<svg version="1.2" xmlns="http://www.w3.org/2000/svg" viewBox="0 0 151 97" width="151" height="97">
	<title>address__banner-svg</title>
	<style>
		.s0 { fill: #faf5ed } 
		.s1 { fill: #f9d5cb } 
		.s2 { fill: #313131 } 
		.s3 { fill: #3f3e3e } 
		.s4 { fill: #fdbe23 } 
		.s5 { fill: #e2eaf0 } 
		.s6 { fill: #bfcfdc } 
		.s7 { fill: #d4e0e9 } 
		.s8 { opacity: .1;fill: #10172a } 
		.s9 { opacity: .5;fill: #0f2a47 } 
		.s10 { fill: #fff1db } 
		.s11 { fill: #f5f7fa } 
		.s12 { fill: #fadfb6 } 
		.s13 { fill: #fc7905 } 
		.s14 { fill: #ffffff } 
	</style>
	<g id="Layer">
		<path id="Layer" fill-rule="evenodd" class="s0" d="m0 16.4c0-3.3 2.7-6 6-6h137.1c3.3 0 6 2.7 6 6v73.1c0 3.3-2.7 6-6 6h-137.1c-3.3 0-6-2.7-6-6z"/>
		<g id="Layer">
			<g id="Layer">
				<path id="Layer" fill-rule="evenodd" class="s1" d="m48 88.8l0.5 3-1.3 1.1-0.9-3.6z"/>
				<path id="Layer" fill-rule="evenodd" class="s2" d="m46.2 91.7c0-0.2 0.2-0.3 0.3-0.2q0.6 0.1 0.9 0 0.4-0.1 1-0.5l0.1-0.7c0 0 0.1-0.1 0.1-0.1l4.1 0.8q0.4-0.1 1.1-0.2 0.7 0 0.6 1-7.4 1.8-7.8 2-0.3-0.7-0.4-1.1-0.1-0.3 0-1z"/>
			</g>
			<g id="Layer">
				<path id="Layer" fill-rule="evenodd" class="s2" d="m42.9 56.2c2.7 2.2 4.5 19 4.5 19l-6.3 1.5c-2.5-8.2-4.5-19-4.5-19zm4.5 19c0 0 0.9 14.3 1.1 15l-2 0.5c0 0-4.9-11.7-5.4-14z"/>
				<path id="Layer" class="s2" d="m44.2 79.2c-1.8 0-3.2-1.5-3.2-3.3 0-1.7 1.4-3.2 3.2-3.2 1.8 0 3.2 1.5 3.2 3.2 0 1.8-1.4 3.3-3.2 3.3z"/>
			</g>
			<g id="Layer">
				<path id="Layer" fill-rule="evenodd" class="s1" d="m32 89.3l-1 2.8-1.6 0.3 0.9-3.5z"/>
				<path id="Layer" fill-rule="evenodd" class="s2" d="m29.1 90.9c0.1-0.1 0.3-0.1 0.4 0q0.5 0.4 0.8 0.4 0.3 0.1 1 0l0.4-0.5c0.1-0.1 0.1-0.1 0.2 0l3.2 2.6q0.4 0.1 1 0.4 0.7 0.2 0.1 1.2-7.3-2-7.8-2.1 0.1-0.7 0.2-1.1 0.1-0.3 0.5-0.9 0 0 0 0z"/>
			</g>
			<g id="Layer">
				<path id="Layer" fill-rule="evenodd" class="s3" d="m39.9 57.4c2 2.9-1.2 19.5-1.2 19.5l-6.4-0.4c0-8.5 1.2-19.5 1.2-19.5 0 0 6.4 0.4 6.4 0.4z"/>
				<path id="Layer" fill-rule="evenodd" class="s3" d="m38.6 77.6c0 0-6.8 12.6-7 13.2l-1.9-0.5c0 0 2-12.5 2.7-14.7z"/>
				<path id="Layer" class="s3" d="m35.5 79.8c-1.8 0-3.2-1.4-3.2-3.2 0-1.8 1.4-3.2 3.2-3.2 1.8 0 3.2 1.4 3.2 3.2 0 1.8-1.4 3.2-3.2 3.2z"/>
			</g>
			<g id="Layer">
				<path id="Layer" fill-rule="evenodd" class="s1" d="m61.1 57q-1.2-0.4-2.7-1.3l-4.9-1.2 1-2 3.9 1.9q2.7-0.1 2.6 0.2c-0.1 0.4-0.7 0.3-0.8 0.5-0.1 0.3 0.5 0.8 1 1.3 0.5 0.5 0.1 0.6-0.1 0.6z"/>
				<path id="Layer" fill-rule="evenodd" class="s4" d="m51.5 50.1l-3.7 1.2c0 0-2.2-4.7-3.6-5.6 0 0-2.8-2.7 0.1-4 0 0 2.2-0.7 3.8 1.8 1.5 2.6 2.5 4.4 3.4 6.6z"/>
				<path id="Layer" fill-rule="evenodd" class="s4" d="m50.6 48.9c1.9 1.9 7.7 5.6 7.7 5.6l-0.4 1.4c-3.8 0-9.5-3.7-9.5-3.7z"/>
				<path id="Layer" class="s4" d="m49.6 52.5c-1.1 0-1.9-0.8-1.9-1.9 0-1 0.8-1.9 1.9-1.9 1 0 1.9 0.9 1.9 1.9 0 1.1-0.9 1.9-1.9 1.9z"/>
			</g>
			<g id="Layer">
				<path id="Layer" class="s5" d="m61.6 44.3v12.6l-11.8 0.1v-12.7z"/>
				<path id="Layer" class="s6" d="m58.5 49.2v4.6h-5.2v-4.6z"/>
				<path id="Layer" class="s7" d="m57 50.7h-2.2c-0.8 0-1.5-0.7-1.5-1.5h5.2c0 0.8-0.7 1.5-1.5 1.5zm4.6-6.4v2.6h-11.8v-2.6z"/>
				<path id="Layer" class="s6" d="m59 44.3v2.6h-0.8v-2.6zm-5.7 0v2.6h-0.7v-2.6z"/>
			</g>
			<path id="Layer" class="s4" d="m32.6 59.4c0.9-2.4 0-16.2 4.3-18.3 3.3-1.7 8.9-0.2 10.5 1.7 1.7 1.8-1.6 9.1-1.5 15.1 0.1 3.9-4.7 3.1-4.8 3.1-0.3 0-6.9 0.6-8.5-1.6z"/>
			<path id="Layer" class="s8" d="m45.7 54.8c0.1-0.1 0.3 0.2 0.2 1.5-1.1 0.1-5.1-0.9-6.8-1.8-1.4-0.7-1.5-1.7-1.7-2.2-1-1.8-0.6-5.1-0.2-4.6 0.4 0.7 1.9 3.4 2.6 3.8 1.3 0.8 3.3 2.2 4.5 3 0.4 0.3 0.9 0.3 1.4 0.3z"/>
			<g id="Layer">
				<path id="Layer" fill-rule="evenodd" class="s1" d="m52.4 57.5q-1.3-0.3-2.8-1l-5-0.6 0.7-2.1 4.2 1.4q2.6-0.4 2.5 0c0 0.3-0.6 0.3-0.7 0.5 0 0.3 0.6 0.8 1.2 1.2 0.5 0.4 0.2 0.6-0.1 0.6z"/>
				<path id="Layer" fill-rule="evenodd" class="s4" d="m41.7 51.8l-3.8 0.4c0 0-1.1-5-2.3-6.3 0 0-2.1-3.1 1-3.8 0 0 2.3-0.2 3.3 2.6 0.9 2.8 1.5 4.8 1.8 7.1z"/>
				<path id="Layer" fill-rule="evenodd" class="s4" d="m40.7 50.5c2.1 1.5 8.3 4.5 8.3 4.5l-0.2 1.4c-3.8 0.5-9.9-2.5-9.9-2.5 0 0 1.8-3.4 1.8-3.4z"/>
				<path id="Layer" class="s4" d="m39.8 54.2c-1 0-1.9-0.9-1.9-1.9 0-1.1 0.9-1.9 1.9-1.9 1.1 0 1.9 0.8 1.9 1.9 0 1-0.8 1.9-1.9 1.9z"/>
			</g>
			<g id="Layer">
				<path id="Layer" fill-rule="evenodd" class="s2" d="m39.9 39.5c-1.4-0.3-2.3-2-1.8-3.5 0.6-1.3 2.1-2 3.3-1.4 1.1 0.6 1.6 2.1 1.1 3.3-0.5 1.1-1.6 1.7-2.6 1.6z"/>
				<g id="Layer">
					<path id="Layer" class="s1" d="m43.7 36c0 0 1.7 3.3-1.2 4.6v0.1q0 0.1 0 0.3c0 0.2 0.1 0.8-0.1 0.9-0.5 0.4-1.6-0.1-1.7-0.2-0.6-0.2-0.3-0.4-0.2-0.9l0.3-1.3-0.1-0.1c-4.2-4.1 2.4-4.3 3-3.4z"/>
					<path id="Layer" class="s9" d="m42.5 40.6v0.1q0.1 0.1 0 0.3c-0.3-0.2-0.6-0.5-0.7-0.7q0.2 0.2 0.7 0.3z"/>
				</g>
				<path id="Layer" fill-rule="evenodd" class="s2" d="m39.2 34.9c0.2-0.2 0.4-0.5 0.8-0.7 0.6-0.3 1.3 0 1.7 0 0.8 0 0.9-1.1 1.8-1.3 0.8-0.2 1.9 0.4 2.1 1.1 0.4 1.2-1.4 2.9-2.9 2.7-0.5 0-0.9-0.3-1.1-0.5-0.1 0-0.4 0-0.5 0.2q-0.2 0.2-0.5 0.4-0.1 0.1-0.2 0.1c-0.1 0.1-0.2 0.1-0.2-0.1-0.1-0.2-0.2-0.2-0.3-0.3 0 0 0 0-0.1 0-0.2 0-0.4 0.2-0.4 0.3-0.1 0.2-0.3 0.6-0.3 0.7q-0.1-0.1-0.2-0.1c-0.2-0.2-0.1-0.6-0.1-0.9q0.2-0.2 0.5-0.4-0.1 0-0.1 0-0.1-0.2 0-0.6h-0.1c0 0 0.1-0.6 0.1-0.6z"/>
			</g>
		</g>
		<g id="Layer">
			<g id="Layer">
				<path id="Layer" class="s10" d="m75.3 6.3c0-3.5 2.1-6.3 4.6-6.3h46.8c2.6 0 4.7 2.8 4.7 6.3v89.2l-56.1-0.1z"/>
				<g id="Layer">
					<path id="Layer" class="s11" d="m91.6 39.1v3.8c0 0.4-0.3 0.8-0.6 0.8h-2.8c-0.4 0-0.7-0.4-0.7-0.8v-3.8c0-0.5 0.3-0.8 0.7-0.8h2.8c0.3 0 0.6 0.3 0.6 0.8zm0 7.9v3.8c0 0.5-0.3 0.8-0.6 0.8h-2.8c-0.4 0-0.7-0.3-0.7-0.8v-3.8c0-0.4 0.3-0.8 0.7-0.8h2.8c0.3 0 0.6 0.4 0.6 0.8zm7.3-7.9v3.8c0 0.4-0.3 0.8-0.7 0.8h-2.8c-0.4 0-0.7-0.4-0.7-0.8v-3.8c0-0.5 0.3-0.8 0.7-0.8h2.8c0.4 0 0.7 0.3 0.7 0.8zm0.1 7.9v3.8c0 0.5-0.3 0.8-0.7 0.8h-2.8c-0.4 0-0.7-0.3-0.7-0.8v-3.8c0-0.4 0.3-0.8 0.7-0.8h2.8c0.4 0 0.7 0.4 0.7 0.8zm7.2-7.9v3.8c0 0.4-0.4 0.8-0.7 0.8h-2.8c-0.4 0-0.7-0.4-0.7-0.8v-3.8c0-0.5 0.3-0.8 0.7-0.8h2.8c0.3 0 0.7 0.3 0.7 0.8zm0 8v3.8c0 0.4-0.4 0.8-0.7 0.8h-2.8c-0.4 0-0.7-0.4-0.7-0.8v-3.8c0-0.5 0.3-0.8 0.7-0.8h2.8c0.3 0 0.7 0.3 0.7 0.8zm0 7.9v3.9c0 0.4-0.4 0.7-0.7 0.7h-2.8c-0.4 0-0.7-0.3-0.7-0.7v-3.9c0-0.4 0.3-0.7 0.7-0.7h2.8c0.3 0 0.7 0.3 0.7 0.7zm7.2 0v3.9c0 0.4-0.3 0.7-0.7 0.7h-2.8c-0.4 0-0.7-0.3-0.7-0.7v-3.9c0-0.4 0.3-0.7 0.7-0.7h2.8c0.4 0 0.7 0.3 0.7 0.7z"/>
				</g>
				<g id="Layer">
					<path id="Layer" class="s11" d="m91 27.1h-2.8c-0.4 0-0.7-0.4-0.7-0.8v-3.8c0-0.5 0.3-0.8 0.7-0.8h2.8c0.3 0 0.6 0.3 0.6 0.8v3.8c0 0.4-0.3 0.8-0.6 0.8zm0-8h-2.8c-0.4 0-0.7-0.4-0.7-0.8v-3.8c0-0.5 0.3-0.8 0.7-0.8h2.8c0.3 0 0.6 0.3 0.6 0.8v3.8c0 0.4-0.3 0.8-0.6 0.8zm7.2 8h-2.8c-0.4 0-0.7-0.4-0.7-0.8v-3.8c0-0.5 0.3-0.8 0.7-0.8h2.8c0.4 0 0.7 0.3 0.7 0.8v3.8c0 0.4-0.3 0.8-0.7 0.8zm0-8h-2.8c-0.4 0-0.7-0.4-0.7-0.8v-3.8c0-0.5 0.3-0.8 0.7-0.8h2.8c0.4 0 0.7 0.3 0.7 0.8v3.8c0 0.4-0.3 0.8-0.7 0.8zm7.3 15.9h-2.8c-0.4 0-0.7-0.3-0.7-0.7v-3.9c0-0.4 0.3-0.7 0.7-0.7h2.8c0.3 0 0.7 0.3 0.7 0.7v3.9c0 0.4-0.4 0.7-0.7 0.7zm0-7.9h-2.8c-0.4 0-0.7-0.4-0.7-0.8v-3.8c0-0.5 0.3-0.8 0.7-0.8h2.8c0.3 0 0.7 0.3 0.7 0.8v3.8c0 0.4-0.4 0.8-0.7 0.8zm7.2-8h-2.8c-0.4 0-0.7-0.4-0.7-0.8v-3.8c0-0.5 0.3-0.8 0.7-0.8h2.8c0.4 0 0.7 0.3 0.7 0.8v3.8c0 0.4-0.3 0.8-0.7 0.8z"/>
				</g>
			</g>
			<g id="Layer">
				<path id="Layer" class="s12" d="m144.3 95.5l-49.3-0.1v-66.7c0-3.2 1.9-5.8 4.3-5.8l45.3-0.1c2.4 0 4.8 2.6 4.8 5.8v61.7c0 2.9-2.3 5.2-5.1 5.2q0 0 0 0z"/>
				<g id="Layer">
					<path id="Layer" class="s11" d="m121.7 72.1v3.1c0 0.4-0.4 0.6-0.8 0.6h-2.9c-0.4 0-0.7-0.2-0.7-0.6v-3.1c0-0.3 0.3-0.6 0.7-0.6h2.9c0.4 0 0.8 0.3 0.8 0.6zm-16.3-10.8v3.1c0 0.3-0.3 0.6-0.7 0.6h-3c-0.4 0-0.7-0.3-0.7-0.6v-3.1c0-0.4 0.3-0.6 0.7-0.6h3c0.4 0 0.7 0.2 0.7 0.6zm40.7 10.8v3.1c0 0.4-0.3 0.6-0.7 0.6h-3c-0.4 0-0.7-0.2-0.7-0.6v-3.1c0-0.3 0.3-0.6 0.7-0.6h3c0.4 0 0.7 0.3 0.7 0.6zm-8.2 0v3.1c0 0.4-0.3 0.6-0.7 0.6h-3c-0.3 0-0.7-0.2-0.7-0.6v-3.1c0-0.3 0.4-0.6 0.7-0.6h3c0.4 0 0.7 0.3 0.7 0.6zm-8.1 0v3.1c0 0.4-0.3 0.6-0.7 0.6h-3c-0.4 0-0.7-0.2-0.7-0.6v-3.1c0-0.3 0.3-0.6 0.7-0.6h3c0.4 0 0.7 0.3 0.7 0.6zm8.1-10.8v3.1c0 0.3-0.3 0.6-0.7 0.6h-3c-0.3 0-0.7-0.3-0.7-0.6v-3.1c0-0.4 0.4-0.6 0.7-0.6h3c0.4 0 0.7 0.2 0.7 0.6zm-8.1 0v3.1c0 0.3-0.3 0.6-0.7 0.6h-3c-0.4 0-0.7-0.3-0.7-0.6v-3.1c0-0.4 0.3-0.6 0.7-0.6h3c0.4 0 0.7 0.2 0.7 0.6zm8.1-10.9v3.1c0 0.3-0.3 0.6-0.7 0.6h-3c-0.3 0-0.7-0.3-0.7-0.6v-3.1c0-0.3 0.4-0.6 0.7-0.6h3c0.4 0 0.7 0.3 0.7 0.6zm-16.2 10.9v3.1c0 0.3-0.4 0.6-0.8 0.6h-2.9c-0.4 0-0.7-0.3-0.7-0.6v-3.1c0-0.4 0.3-0.6 0.7-0.6h2.9c0.4 0 0.8 0.2 0.8 0.6zm-8.2 0v3.1c0 0.3-0.3 0.6-0.7 0.6h-3c-0.4 0-0.7-0.3-0.7-0.6v-3.1c0-0.4 0.3-0.6 0.7-0.6h3c0.4 0 0.7 0.2 0.7 0.6zm0 21.7v3.1c0 0.3-0.3 0.6-0.7 0.6h-3c-0.4 0-0.7-0.3-0.7-0.6v-3.1c0-0.4 0.3-0.6 0.7-0.6h3c0.4 0 0.7 0.2 0.7 0.6zm-8.1 0v3.1c0 0.3-0.4 0.6-0.7 0.6h-3c-0.4 0-0.7-0.3-0.7-0.6v-3.1c0-0.4 0.3-0.6 0.7-0.6h3c0.3 0 0.7 0.2 0.7 0.6zm8.1-10.9v3.1c0 0.4-0.3 0.6-0.7 0.6h-3c-0.4 0-0.7-0.2-0.7-0.6v-3.1c0-0.3 0.3-0.6 0.7-0.6h3c0.4 0 0.7 0.3 0.7 0.6zm-8.1 0v3.1c0 0.4-0.4 0.6-0.7 0.6h-3c-0.4 0-0.7-0.2-0.7-0.6v-3.1c0-0.3 0.3-0.6 0.7-0.6h3c0.3 0 0.7 0.3 0.7 0.6zm8.1-21.7v3.1c0 0.3-0.3 0.6-0.7 0.6h-3c-0.4 0-0.7-0.3-0.7-0.6v-3.1c0-0.3 0.3-0.6 0.7-0.6h3c0.4 0 0.7 0.3 0.7 0.6z"/>
				</g>
			</g>
			<g id="Layer">
				<path id="Layer" fill-rule="evenodd" class="s13" d="m137 22.2c0 2.9-1 5.5-2.6 7.7l-10.5 17.2c0 0-11.5-18.8-11.5-18.8-0.9-1.8-1.5-3.9-1.5-6.1 0-7.2 5.8-13.1 13-13.1 7.2 0 13 5.9 13.1 13.1zm-6.6-0.8c0-3.6-2.9-6.5-6.5-6.5-3.5 0-6.4 2.9-6.4 6.5 0 3.5 2.9 6.4 6.4 6.4 3.6 0 6.5-2.9 6.5-6.4z"/>
				<path id="Layer" class="s14" d="m129.4 24.7c-1.9 3.1-5.8 4-8.9 2.1-3-1.8-4-5.8-2.1-8.8 1.9-3.1 5.9-4 8.9-2.1 3 1.8 4 5.8 2.1 8.8z"/>
			</g>
		</g>
	</g>
</svg>