<?xml version="1.0" encoding="UTF-8"?><svg id="Layer_1" xmlns="http://www.w3.org/2000/svg" width="100" height="100" viewBox="0 0 100 100"><defs><style>.cls-1{fill:#fff;}</style></defs><path class="cls-1" d="M9.34,54.49c.12-6.35,.94-11.97,3.5-17.23,5.46-11.16,14.66-15.56,26.72-12.67,2.24,.53,4.52,1.06,6.72,1.79,3.54,1.14,6.96,.9,10.39-.29,3.5-1.18,7.01-2.4,10.67-2.73,8.43-.77,14.99,2.65,20.24,9.04,.65,.77-.08,.94-.45,1.26-2.89,2.57-5.58,5.25-7.37,8.76-6.03,11.89,.73,25.86,10.22,29.53,.61,.24,.77,.53,.57,1.1-3.01,8.19-7.13,15.72-13.64,21.71-3.62,3.34-7.86,4.44-12.63,2.93-1.71-.53-3.5-1.02-5.17-1.67-5.34-1.95-10.55-1.83-15.76,.49-2.16,.98-4.4,1.75-6.8,1.95-3.95,.33-7.17-1.34-10.02-3.87-4.11-3.67-7.01-8.23-9.57-12.99-5.01-9.45-7.66-19.1-7.62-27.13Z"/><path class="cls-1" d="M68.85,5.21c-.65,7.01-4.24,13.28-11,17.68-2.36,1.55-5.13,1.71-7.82,2.08-.86,.12-.73-.49-.69-.98,.45-8.92,4.2-18.04,15.19-21.59,.49-.16,.94-.33,1.43-.45,2.89-.9,2.97-.86,2.89,3.26Z"/></svg>