<svg version="1.2" xmlns="http://www.w3.org/2000/svg" viewBox="0 0 20 17" width="20" height="17"><style>.a{fill:#f05d24}.b{opacity:.6;fill:#bf3c13}.c{fill:none;stroke:#2b3339;stroke-linecap:round;stroke-width:.2}.d{opacity:.6;fill:#e5e5e5}.e{fill:none;stroke:#ffc900;stroke-linecap:round;stroke-width:.2}</style><path class="a" d="m9.6 4.9q0.3 0 0.6-0.1 0.3-0.2 0.4-0.5 0 0 0 0-0.1 0-0.2 0 0 0 0 0-0.1 0.3-0.4 0.5-0.3 0.1-0.6 0.1-0.1 0-0.2 0 0.2 0 0.4 0z"/><path class="a" d="m8.9 3.1q0-0.2 0-0.5 0-0.1 0.1-0.1 1.5 0 3 0-1.6 0-3.2 0-0.1 0-0.1 0.1 0 0.3 0 0.5 0 0.1 0.1 0.1 0.1 0 0.2 0-0.1 0-0.1-0.1z"/><path class="a" d="m10.8 7.8q-0.6-0.7-1.2-1.4-0.3-0.4-0.7-0.8 0 0 0-0.1 0-0.2 0-0.4 0-0.2 0.1-0.2-0.1 0-0.2 0-0.1 0-0.1 0.2 0 0.2 0 0.4 0 0.1 0 0.1 0.4 0.4 0.8 0.8 0.6 0.7 1.1 1.4 0.1 0 0.1 0 0.1 0 0.2 0-0.1 0-0.1 0z"/><path class="a" d="m11.8 3.7q-0.1 0-0.3 0 0 0 0 0 0.2 0 0.3 0z"/><path class="a" d="m11.5 4.3q0.2 0 0.3 0-0.1 0-0.2 0 0 0-0.1 0z"/><path class="a" d="m9 4.3q0 0 0 0 0.7 0 1.4 0 0 0 0 0-0.7 0-1.4 0z"/><path class="a" d="m9.2 4.9q-0.1 0-0.2 0 0 0 0 0 0.1 0 0.2 0z"/><path class="a" d="m9.8 5.6q0.2 0.2 0.4 0.5 0.7 0.7 1.4 1.5 0 0.1 0 0.2-0.1 0-0.1 0-0.4 0-0.8 0 0 0-0.1 0-0.5-0.7-1.1-1.4-0.4-0.4-0.8-0.8 0 0 0-0.1 0-0.2 0-0.4 0-0.2 0.1-0.2 0.3 0 0.6 0 0.3 0 0.6-0.1 0.3-0.2 0.4-0.5 0 0 0 0-0.8 0-1.6 0-0.1 0-0.1-0.1 0-0.2 0-0.4 0-0.1 0.1-0.1 0.8 0 1.5 0 0.1 0 0.1 0 0-0.1-0.1-0.1-0.2-0.3-0.4-0.3-0.3-0.1-0.5-0.1-0.3 0-0.6 0-0.1 0-0.1-0.1 0-0.2 0-0.5 0-0.1 0.1-0.1 1.6 0 3.2 0 0.1 0 0.1 0.1 0 0.2 0 0.4 0 0.1-0.1 0.1-0.4 0-0.9 0 0 0 0 0 0 0 0 0 0.2 0.3 0.2 0.5 0 0.1 0.1 0.1 0.3 0 0.6 0 0.1 0 0.1 0.1 0 0.2 0 0.4 0 0.1-0.1 0.1-0.3 0-0.6 0-0.1 0-0.1 0c-0.1 0.6-0.4 1-0.9 1.2q-0.3 0.1-0.6 0.1z"/><path class="b" d="m8.9 4.2q0-0.2 0-0.4 0-0.1 0.1-0.1 0.7 0 1.5 0 0 0 0 0 0-0.1 0-0.1-0.2-0.3-0.5-0.3-0.2-0.1-0.5-0.1-0.2 0-0.3 0 0.1 0 0.2 0 0.2 0 0.5 0.1 0.2 0 0.4 0.3 0.1 0 0.1 0.1 0 0-0.1 0-0.7 0-1.5 0-0.1 0-0.1 0.1 0 0.2 0 0.4 0 0.1 0.1 0.1 0.1 0 0.2 0-0.2 0-0.1-0.1z"/><path class="c" d="m4.1 10.1c0 0 1.5-1.1 3.2-0.5 1.6 0.6 1.5 0.7 2.5 0.8 1.1 0.1 2.2-0.2 3.3 0.2 0.3 0.2 0.7 0.5 0.9 0.9 0.1 0.3 0.3 0.9 0.1 1.2-0.1 0.1-0.2 0.2-0.3 0.2-0.8 0.1-1.6 0-2.4 0q-0.9 0-1.8 0"/><path class="a" d="m4.1 15l1.2-0.5q-0.2 0-0.5 0.1z"/><path class="d" d="m11 15.4c-1 0-3.6-0.6-5.1-1q-0.5-0.2-1.1 0l-0.8 0.2 0.1 0.3c0.1 0 1.1-0.4 1.2-0.4 1.1 0.3 4.5 1.3 5.7 1.3 1.4 0 7.7-4.2 7.9-4.4q0-0.1-0.1-0.3c-0.4 0.4-6.4 4.3-7.8 4.3z"/><path class="c" d="m4.1 15l0.7-0.4q0.4-0.1 0.8 0c1.1 0.3 4.2 1.2 5.4 1.2 1.4 0 7.7-4.2 7.9-4.4 0.1-0.3-0.5-1.5-2.3-1.1-1.8 0.5-2.7 1-2.7 1"/><path class="d" d="m6.8 5.2c0-2.1 1.7-3.9 3.8-3.9q-0.1-0.1-0.2-0.1c-2.2 0-3.9 1.8-3.9 4 0 2.1 1.7 3.9 3.9 3.9q0.1 0 0.2 0c-2.1-0.1-3.8-1.8-3.8-3.9z"/><path class="c" d="m10.4 9.1c-2.2 0-3.9-1.8-3.9-3.9 0-2.2 1.7-4 3.9-4 2.2 0 3.9 1.8 3.9 4 0 2.1-1.7 3.9-3.9 3.9z"/><path class="a" d="m1.1 9h3v6.5h-3z"/><path class="c" d="m1.1 9h3v6.5h-3z"/><path class="b" d="m1.1 9h0.4v6.5h-0.4z"/><path class="e" d="m4.9 2.5v5.9"/><path class="e" d="m5.7 5.3v3.1"/><path class="e" d="m15.6 2.5v5.9"/><path class="e" d="m16.4 5.3v3.1"/></svg>