<svg version="1.2" xmlns="http://www.w3.org/2000/svg" viewBox="0 0 20 15" width="20" height="15"><style>.a{fill:#f05d24}.b{fill:none;stroke:#2b3339;stroke-width:.2}.c{opacity:.5;fill:#a4a4a5}.d{opacity:.6;fill:#bf3c13}.e{fill:#ffc900}.f{fill:#d8a505}</style><path class="a" d="m2.5 10.8l-0.6 1.3h15.9l-0.7-1.3z"/><path class="b" d="m1.9 0.7h15.8v9.3h-15.8z"/><path class="c" d="m2.9 2c0-0.2 0.1-0.4 0.3-0.4h13.8q0.1 0 0.1 0c0-0.1-0.2-0.3-0.4-0.3h-13.8c-0.2 0-0.3 0.2-0.3 0.4v7.3c0 0.2 0.1 0.3 0.3 0.3q0 0 0 0v-7.3z"/><path class="b" d="m2.6 1.3h14.5v8.1h-14.5z"/><path class="b" d="m19 13l-1.5-2.6h-15.4l-1.4 2.6"/><path class="b" d="m18.5 13.7h-17.3c-0.3 0-0.5-0.2-0.5-0.4v-0.3h18.3v0.3c0 0.2-0.2 0.4-0.5 0.4z"/><path class="b" d="m8.9 12.3l-0.1 0.4h2.1l-0.1-0.4z"/><path class="d" d="m17.2 11l-0.1-0.2h-14.6l-0.6 1.3h0.4l0.5-1.1z"/><path class="e" d="m11.6 6.4q0.1 0.1 0.1 0.2c0.1 0.2-0.1 0.4-0.3 0.4-0.7 0-1.4 0-2.2-0.1q-0.1 0-0.3 0-0.1 0-0.1-0.1 0-0.9 0-1.7 0-0.1 0.1-0.1 0.1 0 0.2-0.1 0.3 0 0.4-0.2 0.2-0.3 0.3-0.5 0.1-0.2 0.3-0.3 0.1-0.2 0.1-0.4 0-0.2 0-0.3 0-0.1 0.2-0.1 0.4 0 0.4 0.3c0 0.3 0 0.5 0 0.7q-0.1 0.1-0.1 0.3c-0.1 0.1-0.1 0.1 0.1 0.1q0.4 0 0.7 0c0.3 0 0.5 0.3 0.4 0.5 0 0.1-0.1 0.1-0.1 0.2 0 0 0.1 0 0.1 0.1q0.1 0.3-0.2 0.5 0.2 0.1 0.1 0.3 0 0.2-0.2 0.3z"/><path class="e" d="m7.8 5.1c0-0.1 0.1-0.2 0.2-0.2q0.3 0 0.5 0 0.2 0 0.2 0.2 0 0.8 0 1.7c0 0.1 0 0.1-0.2 0.2-0.1 0-0.3 0-0.5 0q0 0-0.1 0-0.1-0.1-0.1-0.2 0 0 0 0 0-0.8 0-1.7 0 0 0 0z"/><path class="e" d="m11.1 4.8q0.4 0 0.8 0 0 0 0 0c0-0.1-0.2-0.3-0.4-0.3q-0.2 0-0.5 0 0 0.1 0 0.2c-0.1 0.1-0.1 0.1 0.1 0.1z"/><path class="e" d="m8.5 7c0.2-0.1 0.2-0.1 0.2-0.2q0-0.8 0-1.6-0.2 0-0.4 0c-0.1 0-0.2 0.1-0.2 0.2q0 0 0 0.1 0 0.7 0 1.5 0.2 0 0.4 0z"/><path class="f" d="m8.1 5.4c0-0.1 0.1-0.2 0.2-0.2q0.2 0 0.4 0 0 0 0-0.1 0-0.2-0.2-0.2-0.2 0-0.5 0c-0.1 0-0.2 0.1-0.2 0.2q0 0 0 0 0 0.9 0 1.7 0 0 0 0 0 0.1 0.1 0.2 0.1 0 0.1 0 0.1 0 0.1 0 0-0.8 0-1.5 0-0.1 0-0.1z"/><path class="f" d="m8.8 5.2q0 0.8 0 1.6 0 0.1 0.1 0.1 0.1 0 0.1 0 0-0.7 0-1.5 0-0.1-0.2-0.2z"/><path class="f" d="m9.1 5.3q0 0 0.1-0.1 0.1 0 0.2 0 0.3 0 0.4-0.3 0.2-0.2 0.3-0.5 0.1-0.1 0.3-0.3 0.1-0.1 0.1-0.4 0-0.1 0-0.2 0-0.2 0.2-0.2 0 0 0.1 0-0.1-0.3-0.4-0.3-0.2 0-0.2 0.2 0 0.1 0 0.2 0 0.2-0.1 0.4-0.2 0.1-0.3 0.3-0.1 0.3-0.3 0.5-0.1 0.2-0.4 0.3-0.1 0-0.2 0-0.1 0-0.1 0.1c0 0.1 0 0.2 0 0.3 0.1 0 0.2 1.1 0.2 1.6q0.1 0 0.2 0c0-0.5-0.1-1.1-0.1-1.6z"/></svg>