<svg version="1.2" xmlns="http://www.w3.org/2000/svg" viewBox="0 0 20 19" width="20" height="19"><style>.a{fill:#2b3339}.b{fill:#f05d24}.c{opacity:.5;fill:#a4a4a5}.d{fill:none;stroke:#2b3339;stroke-width:.2}.e{fill:none}.f{opacity:.6;fill:#bf3c13}.g{fill:#ffc900}.h{fill:#d8a505}</style><g style="opacity:.4;display:none"><path class="a" d="m10.1 22.3c-7.6 0-13.7-0.6-13.7-1.4 0-0.8 6.1-1.4 13.7-1.4 7.6 0 13.8 0.6 13.8 1.4 0 0.8-6.2 1.4-13.8 1.4z"/></g><path class="b" d="m7.8 5l0.6-0.2q0.1-0.3 0.1-0.6h-0.5q0 0.4-0.2 0.8z"/><path class="c" d="m6.1 5.4l3.2-0.6-0.1-0.1-3.6 0.7-0.7 3.7 8.3 8.4 0.2-0.3-8.1-8.1z"/><path class="d" d="m17.8 13l-8.6-8.3-3.6 0.7-0.7 3.7 8.3 8.4z"/><path class="e" d="m5.7 2c-1.3 0-2.4 1.1-2.4 2.5 0 0.6 0.2 1.1 0.6 1.6 0.4 0.3 0.9 0.5 1.5 0.6l0.2-1.3 2.2-0.4q0.2-0.4 0.2-0.8c0-0.6-0.3-1.2-0.6-1.6-0.5-0.4-1-0.6-1.7-0.6z"/><path class="b" d="m7.4 2.6c0.3 0.4 0.6 1 0.6 1.6h0.2c-0.1-0.6-0.4-1.2-0.8-1.6z"/><path class="b" d="m5.3 6.9l0.1-0.2c-0.6-0.1-1.1-0.3-1.5-0.6 0.3 0.4 0.8 0.7 1.4 0.8z"/><path class="b" d="m7.7 2.2c-0.5-0.4-1.2-0.7-2-0.7-1.6 0-3 1.3-3 3 0 0.7 0.3 1.4 0.8 2 0.5 0.4 1.1 0.6 1.8 0.7v-0.3c-0.6-0.1-1.1-0.4-1.4-0.8-0.6-0.5-0.9-1.1-0.9-1.9 0-1.3 1.1-2.5 2.5-2.5 0.7 0 1.4 0.4 1.9 0.9 0.4 0.4 0.7 1 0.8 1.6h0.3c0-0.8-0.3-1.4-0.8-2z"/><path class="b" d="m3 4.2c0-1.3 1.1-2.5 2.5-2.5 1.3 0 2.5 1.2 2.5 2.5h0.5c0-1.6-1.4-3-3-3-1.7 0-3 1.4-3 3 0 1.6 1.2 2.9 2.8 3l0.1-0.5c-1.4-0.1-2.4-1.2-2.4-2.5z"/><path class="b" d="m7.1 6.8l-0.3-0.5q-0.6 0.4-1.3 0.4-0.1 0-0.1 0l-0.1 0.5q0.1 0 0.2 0 0.8 0 1.6-0.4z"/><path fill-rule="evenodd" class="b" d="m8.9 8.7q0 0.2-0.1 0.3-0.2 0.2-0.4 0.1-0.3 0-0.5-0.3l-0.7-0.7 1.4-1.3 0.6 0.7q0.2 0.2 0.3 0.4 0 0.3-0.2 0.4-0.1 0.1-0.2 0.1-0.1 0.1-0.2 0 0 0.2 0 0.3zm-0.6 0q0.1 0 0.2-0.1 0.2-0.1-0.1-0.4l-0.3-0.3-0.4 0.3 0.4 0.4q0.1 0.1 0.2 0.1zm0.3-1.3l-0.3 0.3 0.3 0.3q0.1 0.1 0.2 0.1 0.1 0 0.2-0.1 0.1 0 0.1-0.1-0.1-0.1-0.2-0.2z"/><path fill-rule="evenodd" class="b" d="m9.5 10.4l0.1-0.6-0.3-0.3-0.4 0.4-0.3-0.3 1.4-1.3 0.6 0.6q0.1 0.1 0.2 0.3 0.1 0.2 0 0.4 0 0.2-0.2 0.3-0.1 0.2-0.3 0.2-0.2 0-0.4 0l-0.1 0.7zm1-1.1q-0.1-0.1-0.2-0.3l-0.2-0.2-0.5 0.4 0.2 0.3q0.2 0.1 0.3 0.1 0.1 0 0.3-0.1 0.1-0.1 0.1-0.2z"/><path fill-rule="evenodd" class="b" d="m11.2 11.6l-0.6-0.6-0.5 0.1-0.3-0.3 2-0.7 0.3 0.3-0.8 1.9-0.3-0.3zm0.1-0.3l0.3-0.7-0.7 0.2z"/><path class="b" d="m14 12.4l-1.4 1.3-0.2-0.3 0.2-1.4-0.9 0.8-0.3-0.3 1.4-1.3 0.2 0.2-0.1 1.5 0.8-0.8z"/><path fill-rule="evenodd" class="b" d="m14.3 12.7l0.6 0.6q0.2 0.2 0.3 0.5 0.1 0.2 0 0.5-0.1 0.2-0.3 0.4-0.2 0.2-0.4 0.3-0.3 0-0.5-0.1-0.2-0.1-0.5-0.3l-0.6-0.6zm-0.5 1.7q0.2 0.2 0.4 0.2 0.3 0 0.5-0.2 0.2-0.2 0.2-0.4 0-0.2-0.2-0.4l-0.3-0.3-0.9 0.8z"/><path class="f" d="m5.7 1.5c0.8 0 1.5 0.3 2 0.7-0.5-0.6-1.3-1-2.2-1-1.7 0-3 1.4-3 3 0 0.9 0.3 1.7 1 2.3-0.5-0.6-0.8-1.3-0.8-2 0-1.7 1.4-3 3-3z"/><path class="g" d="m6.9 7c-0.3 0-0.5-0.2-0.5-0.5 0-0.3 0.2-0.5 0.5-0.5 0.3 0 0.6 0.2 0.6 0.5 0 0.3-0.3 0.5-0.6 0.5z"/><path class="h" d="m6.5 6.5c0-0.3 0.2-0.5 0.5-0.5q-0.1 0-0.1 0c-0.3 0-0.5 0.2-0.5 0.5 0 0.3 0.2 0.5 0.5 0.5q0 0 0.1 0c-0.3 0-0.5-0.2-0.5-0.5z"/></svg>