<svg xmlns="http://www.w3.org/2000/svg" width="22" height="18"><path d="M12 16.5a1.5 1.5 0 1 1-3 0 1.5 1.5 0 0 1 3 0m6 0a1.5 1.5 0 1 1-3 0 1.5 1.5 0 0 1 3 0m3.329-13.557a1.024 1.024 0 0 0-.388-.075v-.002H5.333L4.586.758A1.062 1.062 0 0 0 3.608.04L1.074 0C.478-.002.01.475 0 1.082c-.009.606.458 1.105 1.043 1.114l1.806.027 3.49 9.84a.802.802 0 0 0 .04.1C6.899 13.28 8.009 14 9.203 14h6.938c1.197 0 2.273-.69 2.807-1.8a1.19 1.19 0 0 0 .038-.089l.125-.327h-8.268a.54.54 0 0 1-.529-.55.54.54 0 0 1 .53-.548h8.683l2.4-6.32c.213-.564-.054-1.201-.598-1.423" fill="#313131" fill-rule="evenodd"/></svg>