<?xml version="1.0" encoding="utf-8"?>
<!-- Generator: Adobe Illustrator 26.3.1, SVG Export Plug-In . SVG Version: 6.00 Build 0)  -->
<svg version="1.1" id="Layer_1" xmlns="http://www.w3.org/2000/svg" xmlns:xlink="http://www.w3.org/1999/xlink" x="0px" y="0px"
	 width="100px" height="100px" viewBox="0 0 100 100" style="enable-background:new 0 0 100 100;" xml:space="preserve">
<style type="text/css">
	.st0{fill:#64BE6A;}
	.st1{fill:#41C6F0;}
	.st2{fill:#FDD700;}
	.st3{fill:#EF384A;}
</style>
<g>
	<path class="st0" d="M71,35.4L15.2,3.1c-1.8-1.1-3.9-0.7-5.3,0.4L56.4,50L71,35.4z"/>
	<path class="st1" d="M9.9,3.6c-1,0.8-1.7,2.1-1.7,3.6v85.7c0,1.5,0.7,2.8,1.7,3.6L56.4,50L9.9,3.6z"/>
	<path class="st2" d="M89.4,46L71,35.4L56.4,50L71,64.7L89.4,54C92.5,52.3,92.5,47.8,89.4,46z"/>
	<path class="st3" d="M9.9,96.4c1.4,1.1,3.5,1.5,5.3,0.4L71,64.7L56.4,50L9.9,96.4z"/>
</g>
</svg>
