<svg version="1.2" xmlns="http://www.w3.org/2000/svg" viewBox="0 0 20 16" width="20" height="16"><style>.a{fill:#f05d24}.b{fill:none;stroke:#2b3339;strokeWidth:.1}.c{opacity:.5;fill:#a4a4a5}.d{opacity:.6;fill:#bf3c13}.e{fill:#ffc900}</style><path class="a" d="m3 11.3l-0.6 1.3h15.3l-0.7-1.3z"/><path class="b" d="m2.4 1.7h15.2v8.9h-15.2z"/><path class="c" d="m3.3 2.9c0-0.2 0.1-0.3 0.3-0.3h13.3q0 0 0.1 0c-0.1-0.2-0.2-0.3-0.4-0.3h-13.2c-0.2 0-0.4 0.1-0.4 0.3v7c0 0.2 0.1 0.3 0.3 0.3q0 0 0 0v-7z"/><path class="b" d="m3 2.3h14v7.6h-14z"/><path class="b" d="m18.8 13.4l-1.4-2.5h-14.8l-1.4 2.5"/><path class="b" d="m18.3 14.1h-16.6c-0.3 0-0.5-0.2-0.5-0.4v-0.3h17.6v0.3c0 0.2-0.2 0.4-0.5 0.4z"/><path class="b" d="m9 12.7l-0.1 0.5h2.1l-0.1-0.5z"/><path class="d" d="m17.1 11.5l-0.1-0.2h-14l-0.6 1.3h0.3l0.5-1.1z"/><path fill-rule="evenodd" class="e" d="m7.2 6q0-0.3 0.1-0.4 0.2-0.2 0.2-0.4 0-0.1 0-0.2 0-0.4 0.3-0.5 0.3-0.1 0.4-0.4c0-0.3 0.2-0.4 0.5-0.4q0.3 0 0.5-0.3c0.1-0.2 0.4-0.3 0.6-0.2q0.3 0.1 0.6 0c0.2-0.2 0.5-0.1 0.7 0q0.2 0.2 0.5 0.2 0.2-0.1 0.4 0 0.1 0 0.1 0.1 0 0 0.1 0.1 0 0 0.1 0.1 0.1 0.3 0.4 0.3 0.3 0.1 0.4 0.4 0 0 0 0-0.2 0.1-0.4 0.1 0 0 0 0-0.7-0.7-1.6-0.9-1.5-0.3-2.6 0.6-0.7 0.7-0.8 1.6-0.1 0.1-0.1 0.2 0 0 0 0-0.2 0.1-0.4 0.1 0 0.1 0 0 0-0.1 0-0.1zm2.4-2.4q0-0.1 0-0.1 0 0 0 0.1 0 0 0 0 0 0 0 0zm-2.3 2.3q0 0-0.1 0 0 0 0 0 0 0.1 0 0.1 0.1 0 0.1-0.1z"/><path fill-rule="evenodd" class="e" d="m11.6 9q0.1 0 0 0.1-0.2 0.2-0.5 0-0.3-0.1-0.6 0.1c-0.2 0.1-0.5 0.1-0.7-0.1q-0.2-0.2-0.5-0.1-0.1 0-0.2 0 0 0 0 0 0 0-0.1 0c0 0-0.1-0.1-0.2-0.1q0 0 0 0 0.1 0 0-0.1 0 0 0 0.1 0 0 0-0.1-0.1 0-0.1-0.1-0.1-0.3-0.4-0.3 0 0-0.1-0.1 0 0 0 0 0 0 0 0-0.3 0-0.4-0.3 0 0 0 0 0.1 0.1 0.1 0.1 0-0.1-0.1-0.1 0 0 0-0.1 0 0 0 0c0 0 0 0 0-0.1 0 0 0 0 0 0q0.1 0 0.2 0c0.1-0.1 0.1-0.1 0.2 0q0.7 0.8 1.7 1 0.6 0.1 1.2 0 0 0 0 0 0.1 0 0.1 0 0 0 0 0 0 0 0 0 0 0 0-0.1 0 0 0 0.1 0.1 0 0.1 0 0 0 0 0 0 0 0.1 0c0 0-0.1 0-0.1-0.1q0.1 0 0.3-0.1 0 0.1-0.1 0.1 0 0 0 0 0 0 0 0 0 0 0 0 0.1 0 0.1 0c0-0.1 0-0.1 0-0.1q0.1 0 0.1 0 0 0 0.1 0 1-0.6 1.3-1.6 0.2-0.4 0.2-0.7 0-0.1 0-0.1 0.2 0 0.3-0.1 0.1 0 0.1 0 0 0.1 0 0.2c0 0 0.1 0 0 0.1 0 0 0 0 0 0q0.1 0 0.1 0 0 0.2-0.2 0.4 0 0 0 0c-0.1 0-0.1 0-0.1 0q0 0 0 0 0 0.1-0.1 0.2 0 0 0 0 0 0.2 0 0.3c0.1 0.2 0 0.5-0.3 0.6q-0.3 0.1-0.3 0.4-0.1 0.2-0.2 0.3c-0.1 0-0.1 0-0.1 0q0 0 0 0 0 0 0 0 0 0.1-0.1 0.1-0.1 0-0.2 0-0.1 0-0.3 0.1 0 0 0 0 0-0.1-0.1-0.1 0 0 0 0 0 0 0 0c-0.1 0 0-0.1-0.1-0.1q-0.1 0.1 0 0.1 0 0 0 0c0 0 0 0.1 0.1 0.1q0 0 0 0 0 0.1-0.1 0.1 0 0 0 0 0 0 0 0 0 0 0 0c0 0.1 0 0.1 0 0.1q-0.1 0-0.1 0 0 0 0 0zm-0.1-0.1q0-0.1 0-0.1c-0.1-0.1-0.1 0-0.1 0q0 0 0 0 0 0 0 0 0 0 0 0.1 0 0 0 0 0 0 0 0c0 0 0.1 0 0.1 0q0 0 0 0zm-0.6 0.1q0 0-0.1 0 0 0 0 0 0 0.1 0 0.1 0.1-0.1 0.1 0 0.1 0 0.1-0.1 0 0-0.1 0zm0.7-0.2c0 0 0 0 0-0.1 0 0 0 0-0.1 0q0.1 0.1 0.1 0.1zm0 0q0 0 0 0 0 0 0 0.1 0.1 0 0.1 0c0 0 0-0.1 0-0.1q0 0-0.1 0zm-3.6-0.9q-0.1 0 0 0-0.1 0 0 0 0 0 0 0 0 0 0 0zm1.7 0.9c0 0-0.1 0 0 0 0 0.1 0 0.1 0 0.1q0 0 0-0.1 0 0 0 0zm2.1-0.2c0.1 0 0 0 0 0q0.1 0 0.1 0 0-0.1 0-0.1c-0.1 0-0.1 0-0.1 0.1zm0.3 0q0 0 0 0-0.1 0-0.1 0 0.1 0 0.1 0 0 0 0 0zm-0.5 0.2q-0.1 0.1 0 0.1 0-0.1 0-0.1zm-0.2 0.2q0-0.1 0-0.1 0 0.1 0 0.1zm0.6-0.5q0 0 0 0 0 0 0 0zm1.7-2.1q0 0 0 0 0 0 0 0 0 0 0 0 0 0 0 0zm-1.7 2.2q0 0 0 0 0 0 0 0 0 0 0 0 0 0 0 0zm1.2-1.1q0 0-0.1 0 0 0 0 0 0 0.1 0.1 0zm-1.6 1.5q0 0 0 0 0 0 0 0 0 0 0 0zm0.2-0.2q0 0 0 0-0.1 0-0.1 0 0 0 0.1 0zm-0.5 0.1q0 0 0 0 0 0 0 0 0 0 0 0zm2.3-2.6q0.1 0 0.1 0-0.1 0-0.1 0z"/><path fill-rule="evenodd" class="e" d="m11.4 5.8q0-0.1 0-0.1-0.1-0.2-0.2-0.4 0-0.1 0.1-0.1 0.1 0 0.2 0 0-0.1 0 0 0.1 0.3 0.2 0.6 0.1 0.3 0.2 0.6 0 0 0 0-0.1 0.1-0.2 0.1-0.1 0-0.1 0-0.1-0.2-0.2-0.5-0.1 0-0.1 0 0 0 0 0 0 0 0 0 0.1 0.1 0.1 0.3 0 0.1 0.1 0.2 0 0 0 0.1-0.2 0-0.3 0 0 0 0 0-0.1-0.4-0.3-0.8 0-0.2-0.1-0.4 0 0 0-0.1 0.1 0 0.3 0 0 0 0 0 0.1 0.1 0.2 0.3 0 0.1 0.1 0.2zm0-0.4q0 0.1 0 0.1 0 0 0 0 0 0 0 0 0 0 0 0 0.1 0 0.2 0 0 0 0 0-0.1-0.1-0.1-0.1c-0.1-0.1-0.1 0-0.2 0q0 0 0.1 0 0 0 0 0zm0.1-0.1c0 0 0-0.1-0.1-0.1 0 0 0 0.1 0 0.1 0 0 0.1 0 0.1 0zm-0.5 0.5q0 0.1 0 0.1 0 0 0 0 0.1 0 0-0.1zm0.1-0.4q0 0 0 0 0 0 0 0.1 0 0 0 0 0 0 0-0.1zm-0.1 0.4q0 0 0 0 0 0 0 0 0 0 0 0 0 0 0 0zm0.6 0.1q-0.1 0-0.1 0 0 0 0 0.1 0 0 0 0 0 0 0.1-0.1zm-0.6-0.4q0 0 0 0c0 0 0 0.1 0 0z"/><path fill-rule="evenodd" class="e" d="m9.9 6.3q0.1 0 0.2 0.1 0 0.2 0.1 0.4 0 0 0 0.1 0 0 0 0-0.1 0.1-0.2 0.1-0.1 0-0.1 0 0-0.2-0.1-0.4 0 0 0-0.1-0.1-0.1-0.2-0.1 0 0.1 0 0.1c0.1 0 0 0 0 0q0 0 0.1 0 0 0.3 0.1 0.5 0 0 0 0-0.1 0.1-0.2 0.1-0.1 0-0.1 0 0-0.1 0-0.1 0 0 0 0 0-0.1 0-0.1-0.1 0-0.1 0-0.1-0.5-0.3-1 0-0.1 0-0.1 0.3 0 0.5-0.1 0.2 0 0.3 0.1 0 0.1 0.1 0.3 0 0.1-0.1 0.2zm-0.2-0.2q0 0-0.1-0.1 0 0-0.1 0 0 0 0 0 0 0.1 0.1 0.2 0 0 0 0c0 0 0.1 0 0.1-0.1zm0.4 0.6c0 0-0.1 0-0.1 0q0 0 0.1 0 0 0.1 0 0 0 0 0 0zm-0.1-0.1q0 0 0 0 0 0 0-0.1 0 0.1 0 0.1z"/><path fill-rule="evenodd" class="e" d="m7.9 5.6q0.1 0.1 0.1 0.1c0 0 0 0 0 0q0 0.1 0 0.2 0 0-0.1 0 0 0-0.1 0.1 0-0.2 0.1-0.3 0-0.3 0.1-0.5 0-0.1 0.1-0.1 0 0 0 0 0 0 0-0.1 0.6-1 1.9-1.3 1.2-0.2 2.1 0.5 0.2 0.2 0.4 0.4 0 0 0 0-0.1 0.1-0.2 0 0 0 0 0c-0.1-0.1-0.2-0.1-0.2-0.2q0 0 0 0-0.1-0.1-0.2-0.2-0.3-0.2-0.7-0.3-1.1-0.3-2 0.2-0.9 0.5-1.2 1.5c0 0 0 0-0.1 0zm0.9-1.2q-0.1-0.1-0.1-0.1 0 0.1 0.1 0.1z"/><path fill-rule="evenodd" class="e" d="m6.7 7q0 0 0 0-0.1-0.1-0.1-0.2 0-0.2 0.1-0.2 0.2-0.1 0.4-0.1 0.1 0 0.2 0.1 0.1 0.1 0.1 0.2 0 0 0 0-0.1 0.1-0.3 0.1 0 0 0 0 0-0.1 0-0.1-0.1-0.1-0.1-0.1-0.1 0-0.1 0.1 0.1 0.2 0.2 0.4 0 0.1 0 0.2 0 0.1 0.1 0.1 0 0 0 0 0.1 0 0.1 0 0-0.2-0.1-0.3 0 0 0 0-0.1 0.1-0.1 0 0-0.1 0-0.1 0-0.1 0-0.1 0.1 0 0.3-0.1 0 0 0 0 0.1 0.3 0.2 0.6 0 0 0.1 0.1 0 0.1-0.1 0.1c0 0 0 0-0.1-0.1q0 0 0 0-0.1 0.1-0.1 0.1 0 0 0 0 0 0 0 0c-0.1 0.1-0.2 0.1-0.3 0.1q0.1 0 0.1 0 0-0.1 0-0.1 0 0 0 0 0 0 0 0c0 0-0.1 0.1-0.1 0.1q0 0 0 0 0 0 0 0c-0.1 0-0.1 0-0.2-0.1q-0.1-0.1-0.1-0.3-0.1-0.1-0.1-0.2c0-0.1 0-0.1 0-0.2q0 0 0 0 0 0 0 0zm0.6 0.7q0 0 0 0.1 0 0 0 0 0-0.1 0-0.1z"/><path fill-rule="evenodd" class="e" d="m11.6 8.3q0.1-0.1 0.2-0.1 0.2-0.1 0.4-0.3 0 0 0 0 0.1 0.1 0.1 0 0-0.1 0 0 0.1 0 0.1-0.1 0 0 0 0 0 0 0 0 0 0 0 0 0 0 0.1 0c0-0.1-0.1-0.1-0.1-0.1 0 0 0.1 0 0.1 0q0 0-0.1 0 0 0 0-0.1 0.2-0.2 0.4-0.5 0 0 0 0 0 0 0 0 0 0 0 0 0 0 0-0.1 0.1-0.2 0.1-0.4c0 0 0 0 0.1 0q0 0 0-0.1 0 0 0 0-0.1 0-0.1 0 0 0 0.1 0 0-0.1 0-0.2 0 0 0 0 0 0 0.1 0 0 0 0 0 0 0 0 0 0 0 0 0 0 0.1 0 0.1c0-0.1-0.1 0-0.1 0q0.1 0 0.1 0 0 0.2-0.1 0.4c0 0 0 0 0 0q0 0.1 0 0.1 0 0.1 0 0.1c-0.1 0-0.1 0-0.1-0.1q0 0 0 0 0 0 0 0 0 0.1 0 0.1c0 0 0 0 0 0q0 0 0 0 0 0.1 0 0.1 0 0 0 0 0-0.1 0.1-0.1-0.1 0.2-0.2 0.4-0.4 0.6-1.1 1-0.1 0-0.2 0.1c0 0-0.1 0-0.1 0q0 0 0 0 0 0 0 0-0.1 0.1-0.1 0 0 0-0.1 0 0 0 0 0 0 0.1 0 0.1-0.1 0-0.1 0 0 0-0.1 0 0 0 0 0 0 0 0 0c0 0 0 0 0 0q-0.3 0.1-0.6 0.1-0.5 0-1-0.2-0.6-0.3-1.1-0.8 0 0 0.1 0c0.1-0.1 0.1-0.1 0.1 0q0.7 0.7 1.6 0.8 0.5 0.1 1 0c0 0 0-0.1 0.1 0q0-0.1 0 0 0 0 0 0c0-0.1 0.1-0.1 0.1-0.1q0.2 0 0.3-0.1 0 0 0 0c0 0 0 0.1 0 0 0.1 0 0 0 0 0zm-0.1 0.1c0 0 0 0.1 0.1 0q0 0-0.1 0c0 0 0 0 0 0zm0.4-0.2q0 0 0 0c0.1 0 0 0 0.1 0q0-0.1 0-0.1-0.1 0-0.1 0c0 0.1 0 0 0 0.1zm-0.6 0.2q0 0.1 0 0.1 0 0 0.1 0 0 0 0 0 0 0-0.1-0.1z"/><path fill-rule="evenodd" class="e" d="m8.1 7.5q-0.3 0-0.3-0.1-0.1-0.1-0.2-0.3-0.1-0.3-0.2-0.7 0-0.1 0.1-0.1 0.1 0 0.2 0 0 0 0 0 0.1 0.3 0.2 0.6 0 0 0 0 0 0.1 0 0.1c0 0 0 0 0 0q0.1 0.1 0.1 0.2 0 0 0 0 0 0.1 0.1 0.1 0.1 0 0.1-0.1-0.1-0.1-0.1-0.1 0-0.2-0.1-0.3 0 0 0 0 0-0.1 0-0.1 0 0 0 0-0.1-0.2-0.2-0.5 0 0 0.1 0 0.1 0 0.2-0.1 0 0 0 0.1 0.2 0.4 0.3 0.8 0.1 0.1 0.1 0.2 0 0.1-0.1 0.1 0 0 0 0.1 0 0 0 0-0.1 0.1-0.1 0.1-0.2 0-0.2 0zm0.2-0.4q0 0 0 0 0 0 0 0 0-0.1 0-0.1 0 0.1 0 0.1zm0-0.3q0 0 0 0 0 0 0 0 0 0 0 0z"/><path fill-rule="evenodd" class="e" d="m9.1 7.2q0 0 0 0 0 0 0-0.1 0 0-0.1 0c0-0.1 0 0-0.1 0q0 0 0 0 0 0.1 0 0.2 0 0 0 0-0.1 0-0.2 0.1-0.1 0-0.1-0.1 0-0.2-0.1-0.4c0 0 0.1 0 0.1 0q-0.1 0-0.1-0.1 0-0.3-0.1-0.7 0 0 0 0 0.2-0.1 0.4-0.2 0 0 0.1 0.1 0.2 0.5 0.5 1.1 0 0.1 0 0.1-0.1 0-0.2 0-0.1 0-0.1 0zm-0.4-1q0 0 0 0.1 0 0.2 0.1 0.5c0 0.1 0 0.1 0.1 0q0 0 0 0 0-0.1 0-0.1-0.1-0.2-0.2-0.4 0-0.1 0-0.1zm0 1q0 0 0 0 0 0 0 0 0 0 0 0 0 0 0 0z"/><path fill-rule="evenodd" class="e" d="m10.2 5.9q-0.1 0-0.1 0 0-0.1 0-0.3 0 0 0 0 0.1-0.1 0.3-0.1 0 0 0 0c0 0 0 0 0.1 0 0 0 0 0 0 0q0 0 0 0 0.1 0 0.1 0 0.1 0.2 0.2 0.5 0.1 0.3 0.3 0.6 0 0.1-0.1 0.1-0.1 0-0.2 0 0 0 0 0 0-0.1-0.1-0.1 0 0 0 0-0.1 0-0.1 0c0 0 0 0.1 0 0.1 0 0.1 0 0.1-0.1 0.1q-0.1 0-0.1 0.1-0.1 0-0.1-0.1-0.1-0.3-0.1-0.7 0-0.1-0.1-0.1 0-0.1 0.1-0.1c0 0 0 0 0 0zm0.2-0.2q-0.1 0.1 0 0.1 0 0.2 0.1 0.5c0 0.1 0 0.1 0.1 0q0 0 0 0-0.1-0.3-0.2-0.5 0-0.1 0-0.1zm0.2 0.5q0 0.1 0.1 0-0.1 0-0.1 0zm0.1 0.1q-0.1 0-0.1 0 0.1 0 0.1 0z"/><path fill-rule="evenodd" class="e" d="m13.7 5.3q0 0.1 0 0.2c0.1 0.1 0.1 0.1 0.2 0.1q0.1 0 0.1-0.1 0.1 0 0.1 0 0 0.1 0.1 0.2 0 0.1-0.1 0.1-0.2 0.1-0.5 0.1-0.1 0-0.1 0-0.1-0.5-0.3-1.1 0 0-0.1-0.1 0 0 0.1 0 0.2-0.1 0.5-0.2 0 0 0 0 0.1 0.1 0.1 0.2 0 0.1 0 0.1-0.1 0-0.3 0 0 0 0 0.1 0.1 0.1 0.1 0.1 0 0.1 0 0.1 0.1-0.1 0.2-0.1 0.1 0 0.1 0 0 0.1 0 0.2 0.1 0 0 0-0.1 0.1-0.2 0.1c0 0 0 0 0 0q0 0 0 0zm-0.1-0.1q0 0 0 0 0 0 0 0 0 0 0 0z"/><path fill-rule="evenodd" class="e" d="m12.9 5.6q0 0-0.1 0 0.1 0.1 0.1 0 0.1 0 0.1 0 0 0.1 0 0.2 0 0 0.1 0 0.1 0 0.2-0.1 0 0 0 0.1 0.1 0.1 0.1 0.2 0 0 0 0-0.3 0.1-0.6 0.2 0 0 0-0.1-0.1-0.1-0.1-0.3 0 0 0 0c0-0.1 0-0.1 0-0.1q0 0-0.1 0 0-0.2-0.1-0.3 0-0.2-0.1-0.5 0 0 0 0 0.3-0.1 0.5-0.2 0.1 0 0.1 0.1 0 0 0 0.1 0.1 0.1 0 0.1-0.1 0-0.2 0 0 0 0 0.1 0 0.1 0 0.2 0 0 0.1 0 0.1 0 0.2-0.1 0 0 0 0 0.1 0.1 0.1 0.2 0 0.1 0 0.1-0.1 0-0.2 0-0.1 0-0.1 0 0 0.1 0 0 0 0 0 0-0.1 0-0.1 0.1 0 0 0 0 0 0 0.1 0zm-0.2-0.2q0 0 0.1 0 0-0.1 0-0.1-0.1 0-0.1 0.1zm-0.2-0.1c0.1 0 0.1 0 0.1 0q0 0 0 0 0-0.1-0.1 0zm0.2 0.3q0 0 0 0 0 0 0.1 0 0 0-0.1 0zm0.1 0.3q0 0 0 0 0 0 0 0 0 0 0 0 0 0 0 0zm0.1-0.1q0 0 0 0.1 0 0 0 0 0.1 0 0.1 0 0-0.1-0.1-0.1z"/><path fill-rule="evenodd" class="e" d="m12.3 5.8q0.1 0 0.1 0.1 0 0.1 0.1 0.3 0 0 0 0.1-0.1 0-0.3 0 0 0 0 0-0.1-0.2-0.1-0.4-0.1-0.3-0.2-0.6 0 0 0 0 0-0.1 0-0.1c0 0-0.1 0-0.1 0q0.1 0.1 0 0.1 0 0-0.1 0.1 0 0 0-0.1 0-0.1-0.1-0.2 0 0 0 0 0.1 0 0.1 0 0.3-0.1 0.5-0.2 0.1 0 0.1 0.1 0 0.1 0 0.1 0.1 0.1 0 0.1 0 0-0.1 0 0 0 0 0.1 0.1 0.2 0.2 0.5 0 0-0.1 0zm-0.2-0.7q0 0 0 0 0 0 0 0 0 0 0 0 0 0 0 0c0 0 0 0.1 0 0.1 0 0 0-0.1 0-0.1zm0 0.5q0 0 0.1 0 0 0.1 0 0.1 0-0.1 0-0.1-0.1 0-0.1 0z"/><path fill-rule="evenodd" class="e" d="m9.4 4.3q0-0.1 0.1-0.2 0.1 0 0.2 0.1 0.1 0.1 0.1 0.2 0 0.1 0 0.1 0.1 0 0 0 0 0.1 0 0 0 0-0.1 0-0.1 0.1-0.2 0-0.1-0.1-0.1-0.2zm0.3 0.2q0 0-0.1-0.1 0 0 0 0c0 0 0 0 0.1 0q0 0 0 0 0-0.1-0.1-0.1 0-0.1-0.1-0.1 0 0 0 0.1 0 0.1 0.1 0.2 0 0 0.1 0z"/><path fill-rule="evenodd" class="e" d="m8.5 5.3q0.1 0 0.2 0 0.1 0.1 0 0.2 0 0 0 0c0 0 0 0.1 0 0.1q-0.1 0-0.1 0-0.2-0.1-0.3-0.2-0.1 0-0.1 0 0.1 0 0.1-0.1 0-0.1 0.1-0.1 0.1 0 0.1 0.1zm0.2 0.2q0-0.1-0.1-0.1c0 0-0.1 0-0.1 0 0 0.1 0.1 0.1 0.1 0.1 0.1 0 0 0 0.1 0zm-0.2-0.1c0-0.1-0.1-0.1-0.1-0.1q-0.1 0-0.1 0.1 0 0 0.1 0 0 0 0 0 0.1 0 0.1 0z"/><path class="e" d="m10.9 8.2q0-0.1 0-0.2-0.1 0-0.1 0-0.1 0-0.1 0 0 0 0 0 0 0.1 0 0.1 0 0-0.1 0 0 0 0 0c0.1 0 0-0.1 0-0.1q0-0.1 0.1-0.1 0.2-0.1 0.2 0.1 0.1 0.1 0.1 0.2 0 0.1 0 0.1 0 0 0 0 0 0.1 0 0-0.1 0-0.1 0-0.2 0.1-0.2-0.1 0 0 0 0c0 0 0-0.1 0-0.1q0.1 0.1 0.1 0.1 0 0 0 0 0 0.1 0 0 0.1 0 0 0 0 0 0 0c0 0 0 0 0-0.1q0 0 0 0 0.1 0.1 0.1 0.1z"/><path fill-rule="evenodd" class="e" d="m9.5 7.7q0 0.1-0.1 0.1 0 0 0 0 0 0.1-0.1 0.2 0 0-0.1 0-0.1-0.1-0.1-0.1-0.1 0 0 0 0.1-0.2 0.2-0.4 0 0 0 0 0.1 0.1 0.2 0.1 0 0 0 0.1zm-0.2 0.1q0 0 0 0-0.1 0-0.1 0 0 0 0 0 0 0.1 0 0.1 0 0 0 0 0.1 0 0.1-0.1zm0.1-0.2q0 0 0 0-0.1 0.1-0.1 0.1 0 0 0 0 0.1 0 0.1 0 0 0 0-0.1 0 0 0 0z"/><path class="e" d="m10.2 4.3q0 0.1-0.1 0.2-0.2 0-0.2-0.1-0.1-0.2-0.1-0.3 0-0.1 0-0.1 0.1 0 0.1 0 0 0 0 0.1 0 0.1 0.1 0.2 0 0 0 0 0 0.1 0 0.1 0.1 0 0.1-0.1 0 0 0 0-0.1-0.2-0.1-0.3 0 0 0 0c0.1 0 0.1 0 0.1 0q0 0.2 0.1 0.3 0 0 0 0z"/><path fill-rule="evenodd" class="e" d="m11.3 8.1q0 0.1 0 0.1c0 0 0 0-0.1 0q0 0-0.1 0 0-0.2-0.1-0.3c0-0.1 0-0.1 0.1-0.1 0 0 0 0 0 0q0 0.2 0.1 0.3 0 0 0.1 0 0 0 0 0c0 0 0 0.1 0 0 0 0 0 0 0-0.1q0 0 0 0-0.1-0.1-0.1-0.2 0 0 0 0 0-0.1 0-0.1 0.1 0 0.1 0.1c0 0 0.1 0.1 0.1 0.2q0 0 0 0 0 0.1 0 0.1 0 0.1-0.1 0zm0-0.1c0 0 0 0 0-0.1q0 0 0 0 0 0 0 0c0 0.1 0 0.1 0 0.1zm0.1 0.1q0 0 0 0 0 0 0 0 0 0 0 0 0 0 0 0z"/><path fill-rule="evenodd" class="e" d="m10.6 4.4q0 0-0.1 0 0 0 0 0 0-0.1-0.1-0.1 0 0 0 0-0.1 0-0.1 0.1 0 0 0 0 0 0-0.1 0 0 0 0 0 0.1-0.2 0.2-0.4c0-0.1 0 0 0 0q0.1 0 0.1 0 0 0.2 0.1 0.4zm-0.2-0.3q0 0 0 0 0 0.1 0 0.1c0 0.1 0 0.1 0 0.1q0.1 0 0.1-0.1-0.1 0-0.1-0.1z"/><path fill-rule="evenodd" class="e" d="m11.9 7.9q-0.1 0-0.1 0.1 0 0 0 0-0.1-0.1-0.1-0.1 0 0-0.1 0.1 0 0 0 0 0 0 0 0.1 0 0 0 0-0.1 0-0.1 0 0-0.2-0.1-0.4c0-0.1 0-0.1 0.1-0.1q0 0 0 0 0.2 0.2 0.3 0.3 0 0 0.1 0zm-0.4-0.2q0 0.1 0.1 0.2 0 0 0 0 0 0 0.1 0 0-0.1-0.1-0.1 0 0 0 0 0.1 0 0 0c0 0-0.1-0.1-0.1-0.1z"/><path class="e" d="m8.9 5.1q0 0 0 0 0 0.1-0.1 0.2 0 0 0 0-0.2-0.1-0.4-0.2 0 0 0-0.1 0.1 0 0.1-0.1c0 0 0.1 0 0.1 0q0 0 0 0.1 0 0 0 0-0.1 0 0 0.1 0 0 0.1-0.1 0 0 0 0 0.1 0.1 0 0.1 0 0 0 0 0 0.1 0.1 0.1 0 0 0 0 0-0.1 0-0.1 0 0 0.1 0 0 0 0 0 0 0 0 0z"/><path fill-rule="evenodd" class="e" d="m9.6 7.7q0.1 0 0.1 0 0 0.1 0.1 0.1 0 0 0 0 0 0.1-0.1 0.1 0-0.1 0-0.1-0.1 0-0.1 0.1 0 0 0.1 0 0 0 0 0.1c0 0 0 0-0.1 0q0 0 0 0 0 0-0.1 0.1 0.1 0 0.1 0 0 0 0 0 0.1 0.1 0 0.1 0 0 0 0-0.1 0-0.2-0.1 0 0 0 0 0.1-0.1 0.1-0.2 0.1-0.1 0.1-0.2 0 0 0 0zm0 0.3q-0.1 0-0.1 0 0 0 0.1 0z"/><path class="e" d="m10 4.9c0.1 0 0.2 0.1 0.3 0q0 0 0 0.1-0.1 0-0.1 0 0 0.1 0 0.1 0 0.1 0.1 0.1-0.1 0-0.1 0-0.1 0-0.1 0-0.1 0-0.1 0.1 0 0 0-0.1 0-0.1-0.1-0.1 0 0-0.1 0 0.1-0.1 0.1-0.1 0.1 0 0.1 0 0-0.1 0-0.1z"/><path class="e" d="m10.9 7q0 0 0 0 0 0.2 0.1 0.2 0 0 0 0 0 0-0.1 0.1 0 0 0 0 0 0.1 0 0.1-0.1 0-0.1 0 0-0.1-0.1-0.1-0.1 0-0.1 0 0 0 0 0 0.1-0.1 0-0.1c0-0.1 0-0.1 0-0.1 0 0 0.1 0 0.1 0q0 0 0.1 0 0-0.1 0.1-0.1z"/><path class="e" d="m8.9 5q0 0 0.1 0 0 0 0-0.1 0 0-0.1 0 0 0-0.1 0-0.1 0-0.1-0.1c-0.1-0.1 0-0.1 0.1-0.2q0 0 0 0.1 0 0 0.1 0-0.1 0-0.1 0 0 0 0 0.1 0 0 0 0 0.1 0 0.1 0 0.1 0 0.2 0.1 0 0.1-0.1 0.1 0 0.1-0.1 0 0 0 0 0z"/><path class="e" d="m10 8c0-0.1 0-0.1-0.1-0.1q0 0.1 0.1 0.2 0 0 0 0.1 0 0.1-0.1 0.1-0.1 0-0.1-0.1c-0.1 0 0 0 0-0.1q0 0.1 0 0.1 0.1 0 0.1 0 0-0.1 0-0.1 0 0 0 0-0.1-0.1-0.1-0.1 0-0.1 0.1-0.2c0 0 0.1 0 0.2 0.1q0 0 0 0 0 0-0.1 0.1z"/><path class="e" d="m11.6 4.3q0 0 0 0c0.1 0 0.1 0 0.1 0.1q0 0 0 0 0 0 0.1 0c0 0 0.1 0 0.1 0q0 0 0 0-0.1 0.1-0.1 0.1-0.1 0.1-0.2 0.2 0 0-0.1 0c0 0 0 0 0-0.1 0.1-0.1 0.1-0.2 0.1-0.3q0 0 0 0 0 0 0 0z"/><path class="e" d="m12.1 7c0-0.1 0-0.1 0-0.1q0.1 0 0.2 0-0.1-0.1-0.1-0.1-0.1 0 0-0.1 0 0 0 0 0 0 0.1 0.1 0.1 0.1 0.2 0.1 0.1 0 0.1 0 0 0.1 0 0.1 0 0 0 0 0 0-0.1 0 0 0 0 0-0.2-0.1-0.3 0-0.1 0-0.1 0z"/><path class="e" d="m9.1 4.4q0 0.1 0 0.1 0 0 0 0 0.1 0.1 0.2 0.3 0 0 0 0 0 0 0 0-0.1 0.1-0.1 0-0.1-0.1-0.2-0.2 0 0-0.1 0 0 0 0 0 0-0.1 0-0.1 0.1 0 0.2-0.1 0 0 0 0 0 0 0 0z"/><path class="e" d="m11.2 4.6q0 0 0-0.1 0 0 0 0 0-0.1 0.1-0.3 0 0 0 0-0.1 0 0-0.1 0 0 0 0 0.1 0 0.2 0.1c0.1 0 0 0 0 0.1q0 0 0 0c-0.1-0.1-0.1-0.1-0.1 0q-0.1 0.1-0.1 0.3 0 0-0.1 0z"/><path class="e" d="m12 7.2q0 0 0 0c0 0.1 0 0 0 0q-0.1 0-0.1 0 0.1-0.1 0.1-0.2c0.1 0 0.1 0 0.1 0q0.1 0 0 0c0 0.1 0 0.1 0.1 0.1q0.1 0.1 0.2 0.2c0 0 0 0 0 0q0 0.1-0.1 0-0.1 0-0.2-0.1 0 0-0.1 0z"/><path class="e" d="m10.4 8c0 0 0 0 0 0 0 0-0.1 0-0.1 0q0 0.2 0 0.3 0 0-0.1 0c0 0 0 0 0 0q0-0.2 0-0.3 0 0 0 0-0.1 0-0.1 0 0-0.1 0-0.1 0 0 0.1 0 0.1 0 0.2 0 0 0 0 0.1 0 0 0 0z"/><path class="e" d="m10.6 4.4q0.1-0.2 0.1-0.4 0 0 0 0c0.1 0 0.1 0 0.1 0q0 0.2 0 0.3-0.1 0.1 0 0.1 0 0 0 0 0.1 0 0.1 0 0 0.1-0.1 0 0 0-0.1 0-0.1 0-0.1 0z"/><path class="e" d="m11.8 7.7q-0.1-0.1-0.2-0.2 0 0 0 0c0.1-0.1 0.1-0.1 0.1 0q0.1 0.1 0.2 0.2 0.1 0 0.1 0 0 0 0 0c0-0.1 0.1-0.1 0.1 0q0 0 0 0c0 0 0 0 0 0q0 0-0.1 0 0 0 0 0 0 0 0 0c0 0 0.1 0 0 0q0 0.1 0 0.1-0.1 0-0.1 0 0 0-0.1-0.1 0 0 0 0 0 0 0 0 0 0 0 0z"/><path class="e" d="m12.2 7.5q0 0.1 0 0.1 0 0 0 0-0.2-0.1-0.4-0.3c0 0 0 0 0.1 0q0-0.1 0 0 0.2 0.1 0.3 0.2 0 0 0 0z"/><path class="e" d="m11.1 4.1q0 0.1 0 0.1 0 0.2-0.1 0.3 0 0 0 0c-0.1 0-0.1 0-0.1-0.1q0.1-0.2 0.1-0.3c0.1-0.1 0-0.1 0.1-0.1q0 0 0 0.1z"/><path class="e" d="m10.5 7.3q-0.1 0-0.1 0.2-0.1-0.1-0.2-0.1 0.1-0.1 0-0.2 0.1 0 0.1 0c0 0 0 0 0.1 0q0 0.1 0.1 0.1z"/><path class="e" d="m10.7 5.1q-0.2-0.1-0.2 0 0-0.1-0.1-0.1 0.1-0.1 0.1-0.2 0 0.1 0.2 0.1c-0.1 0-0.1 0.1 0 0.2z"/><path class="e" d="m9.6 5.1q0.1 0.1 0.2 0-0.1 0.1 0 0.2-0.1 0-0.2 0.1 0-0.1-0.1-0.2 0.1 0 0.1-0.1z"/><path class="e" d="m11.1 7q0.1 0 0.2-0.1 0 0.1 0.1 0.2-0.1 0-0.1 0.1 0 0 0 0-0.1 0-0.1-0.1-0.1 0-0.1 0 0.1 0 0-0.1z"/><path class="e" d="m12.4 7.7q0 0 0 0 0 0 0 0 0 0 0 0 0 0 0 0 0 0 0 0z"/></svg>