<?xml version="1.0" encoding="utf-8"?>
<!-- Generator: Adobe Illustrator 26.0.1, SVG Export Plug-In . SVG Version: 6.00 Build 0)  -->
<svg version="1.1" id="Layer_1" xmlns="http://www.w3.org/2000/svg" xmlns:xlink="http://www.w3.org/1999/xlink" x="0px" y="0px"
	 width="40px" height="40px" viewBox="0 0 40 40" style="enable-background:new 0 0 40 40;" xml:space="preserve">
<style type="text/css">
	.st0{fill:url(#SVGID_1_);}
	.st1{fill:#FFFFFF;}
	.st2{fill:url(#SVGID_00000182515588391397240600000016756571300385176215_);}
	.st3{fill:url(#SVGID_00000030489065158800907440000002102211349345148345_);}
	.st4{opacity:0.9;fill:url(#SVGID_00000108291490991879545900000013464834828230014893_);}
	.st5{fill-rule:evenodd;clip-rule:evenodd;fill:#FFFFFF;}
	.st6{fill:url(#SVGID_00000108999306280105606420000007700680895115629190_);}
	.st7{fill:url(#SVGID_00000008846549952018131730000008033583538896260747_);}
	.st8{fill:#FEFEFE;}
</style>
<linearGradient id="SVGID_1_" gradientUnits="userSpaceOnUse" x1="114.0618" y1="-277.4285" x2="151.2089" y2="-240.2813" gradientTransform="matrix(0.7071 0.7071 -0.7071 0.7071 -256.8228 114.7879)">
	<stop  offset="1.104800e-03" style="stop-color:#FBE18A"/>
	<stop  offset="0.2094" style="stop-color:#FCBB45"/>
	<stop  offset="0.3765" style="stop-color:#F75274"/>
	<stop  offset="0.5238" style="stop-color:#D53692"/>
	<stop  offset="0.7394" style="stop-color:#8F39CE"/>
	<stop  offset="1" style="stop-color:#5B4FE9"/>
</linearGradient>
<path class="st0" d="M7.8,32.2L7.8,32.2c-6.7-6.7-6.7-17.6,0-24.3l0,0c6.7-6.7,17.6-6.7,24.3,0l0,0c6.7,6.7,6.7,17.6,0,24.3l0,0
	C25.5,38.9,14.5,38.9,7.8,32.2z"/>
<path class="st1" d="M20,18.8c-0.7,0-1.2,0.5-1.2,1.2c0,0.7,0.5,1.2,1.2,1.2c0.7,0,1.2-0.5,1.2-1.2C21.2,19.3,20.7,18.8,20,18.8z"/>
<path class="st1" d="M20,15c-2.7,0-5,2.2-5,5c0,2.7,2.2,5,5,5c2.7,0,5-2.2,5-5C25,17.3,22.7,15,20,15z M20,23.2
	c-1.8,0-3.2-1.4-3.2-3.2s1.4-3.2,3.2-3.2c1.8,0,3.2,1.4,3.2,3.2S21.8,23.2,20,23.2z"/>
<path class="st1" d="M24,30.1H16c-3.3,0-6.1-2.7-6.1-6.1V16c0-3.3,2.7-6.1,6.1-6.1H24c3.3,0,6.1,2.7,6.1,6.1V24
	C30.1,27.4,27.4,30.1,24,30.1z M16,11.8c-2.3,0-4.2,1.9-4.2,4.2V24c0,2.3,1.9,4.2,4.2,4.2H24c2.3,0,4.2-1.9,4.2-4.2V16
	c0-2.3-1.9-4.2-4.2-4.2H16z"/>
</svg>
