<svg version="1.2" xmlns="http://www.w3.org/2000/svg" viewBox="0 0 250 38" width="250" height="38"><style>.a{fill:#f05e26}.b{fill:#2c333a}</style><path fill-rule="evenodd" class="a" d="m0.7 29.7h4.9c0.2 0 0.3-0.1 0.3-0.4v-11.8c0-3.2 1.6-4.9 4.7-4.9h1.5c0.2 0 0.4-0.1 0.4-0.4v-4.9c0-0.2-0.2-0.4-0.4-0.4h-0.4q-11.1 0-11.4 10.7v11.7c0 0.3 0.2 0.4 0.4 0.4z"/><path fill-rule="evenodd" class="a" d="m34.8 19.8h-14.2c0.2 3.4 1.7 5.1 4.4 5.1 1.5 0 3-0.8 3.8-2.1q0.1-0.2 0.3-0.3c0.1 0 3.7 0 4.9 0 0.2 0 0.4 0.3 0.4 0.6q-0.2 0.5-0.5 1.1c-0.4 1.1-1.1 2.1-1.9 3q-1.3 1.3-3 1.9c-1.3 0.5-2.7 0.7-4.1 0.7q-10-0.4-10-11.6 0-11.3 10.1-11.4 10.5 0 9.8 13zm-5.8-4c-0.4-2.9-1.8-4.4-4.1-4.4-2.4 0-3.8 1.5-4.2 4.4z"/><path fill-rule="evenodd" class="a" d="m129.1 19.8h-14.3c0.3 3.4 1.7 5.1 4.4 5.1 1.5 0 3.1-0.8 3.8-2.1q0.1-0.2 0.4-0.3c0.1 0 3.7 0 4.8 0 0.3 0 0.5 0.3 0.4 0.6q-0.2 0.5-0.4 1.1c-0.4 1.1-1.1 2.1-1.9 3q-1.3 1.3-3 1.9c-1.3 0.5-2.8 0.7-4.2 0.7q-10-0.4-10-11.6 0.1-11.3 10.1-11.4 10.5 0 9.9 13zm-5.9-4c-0.3-2.9-1.7-4.4-4.1-4.4-2.3 0-3.8 1.5-4.2 4.4z"/><path fill-rule="evenodd" class="b" d="m174.5 19.8h-14.3c0.3 3.4 1.7 5.1 4.4 5.1 1.5 0 3.1-0.8 3.8-2.1q0.1-0.2 0.4-0.3c0.1 0 3.7 0 4.9 0 0.2 0 0.4 0.3 0.3 0.6q-0.1 0.5-0.4 1.1c-0.4 1.1-1.1 2.1-1.9 3q-1.3 1.3-3 1.9c-1.3 0.5-2.8 0.7-4.2 0.7q-9.9-0.4-9.9-11.6 0-11.3 10-11.4 10.5 0 9.9 13zm-5.8-4c-0.4-2.9-1.8-4.4-4.1-4.4-2.4 0-3.8 1.5-4.2 4.4 0 0 8.2 0 8.3 0z"/><path fill-rule="evenodd" class="b" d="m249.3 19.8h-14.3c0.2 3.4 1.7 5.1 4.4 5.1 1.5 0 3.1-0.8 3.8-2.1q0.1-0.2 0.4-0.3c0.1 0 3.7 0 4.8 0 0.3 0 0.5 0.3 0.4 0.6q-0.2 0.5-0.4 1.1c-0.4 1.1-1.1 2.1-1.9 3q-1.3 1.3-3 1.9c-1.3 0.5-2.8 0.7-4.2 0.7q-10-0.4-10-11.6 0.1-11.3 10.1-11.4 10.5 0 9.9 13zm-5.8-4c-0.4-2.9-1.8-4.4-4.1-4.4-2.4 0-3.8 1.5-4.2 4.4 0 0 8.2 0 8.3 0z"/><path fill-rule="evenodd" class="a" d="m56.9 23c0.1-0.2-0.2-0.5-0.4-0.5-1.2 0-4 0-4.9 0q-0.2 0-0.3 0.2c-0.9 1.7-3 2.5-4.9 2-1.7-0.3-2.6-1.7-3-3.3-0.3-1-0.4-2.1-0.4-3.1q0.1-6.6 4.4-6.6c1.7 0 3.2 0.8 3.9 2.1q0.1 0.2 0.4 0.2h4.9c0.2 0 0.4-0.2 0.4-0.5-1.1-4.5-4.3-6.7-9.4-6.7-6.8 0.2-10.2 4-10.2 11.5 0.2 7.6 3.6 11.5 10.3 11.5 1.5 0 3-0.2 4.4-0.8q1-0.4 1.8-1.1 0.8-0.7 1.5-1.6 0.6-0.9 1-1.9 0.2-0.4 0.3-0.9 0.1-0.2 0.2-0.5z"/><path fill-rule="evenodd" class="a" d="m98.3 23c0.1-0.2-0.1-0.5-0.4-0.5-1.1 0-3.9 0-4.8 0q-0.3 0-0.4 0.2c-0.9 1.7-3 2.5-4.9 2-1.6-0.3-2.6-1.7-3-3.3-0.2-1-0.3-2.1-0.3-3.1q0-6.6 4.4-6.6c1.7 0 3.1 0.8 3.8 2.1q0.2 0.2 0.4 0.2h4.9c0.3 0 0.5-0.2 0.4-0.5-1.1-4.5-4.2-6.7-9.4-6.7-6.8 0.2-10.2 4-10.2 11.5 0.2 7.6 3.6 11.5 10.3 11.5 1.5 0 3-0.2 4.4-0.8q1-0.4 1.8-1.1 0.8-0.7 1.5-1.6 0.6-0.9 1-1.9 0.2-0.4 0.3-0.9 0.2-0.2 0.2-0.5z"/><path fill-rule="evenodd" class="b" d="m226.4 23c0.1-0.2-0.1-0.5-0.3-0.5-1.2 0-4 0-4.9 0q-0.3 0-0.3 0.2c-1 1.7-3.1 2.5-5 2-1.6-0.3-2.6-1.7-3-3.3-0.2-1-0.3-2.1-0.3-3.1q0-6.6 4.4-6.6c1.7 0 3.2 0.8 3.9 2.1q0.1 0.2 0.3 0.2h4.9c0.3 0 0.5-0.2 0.4-0.5-1.1-4.5-4.2-6.7-9.3-6.7-6.8 0.2-10.2 4-10.2 11.5 0.2 7.6 3.6 11.5 10.2 11.5 1.5 0 3.1-0.2 4.4-0.8q1-0.4 1.9-1.1 0.8-0.7 1.4-1.6 0.6-0.9 1.1-1.9 0.2-0.4 0.3-0.9c0-0.2 0.1-0.3 0.1-0.5z"/><path fill-rule="evenodd" class="a" d="m77.9 6.8h-5.2c-0.2 0-0.4 0.2-0.4 0.3l-4.4 15.4-4.7-15.4c-0.1-0.1-0.3-0.3-0.4-0.3h-5.3c-0.2 0-0.4 0.3-0.3 0.6l7.6 21.4c0.8 2.9-0.3 4.4-3.3 4.4h-1.1c-0.2 0-0.5 0.2-0.5 0.4v3.9c0 0.2 0.2 0.3 0.4 0.3 0.4 0.1 1 0.1 2 0.1 4.6 0 5.9-1.3 7.2-4.9l6.6-19.4 2.2-6.2c0.1-0.3-0.1-0.6-0.4-0.6z"/><path fill-rule="evenodd" class="b" d="m195.9 6.7h-5.3c-0.1 0-0.3 0.1-0.3 0.3l-1.4 4.6-3.6 11.4-4.6-15.9c0-0.2-0.2-0.3-0.3-0.3h-5.3c-0.3 0-0.4 0.3-0.4 0.5l7.8 22.3h5.9l6.5-18.6 1.3-3.7c0.1-0.3 0-0.6-0.3-0.6z"/><path class="a" d="m100.8 0.9h5.7v28.9h-5.7z"/><path class="b" d="m198.9 6.8h5.7v22.8h-5.7z"/><path class="b" d="m198.9 0.8h5.7v4.3h-5.7z"/><path fill-rule="evenodd" class="b" d="m152 3.6v16q0 10-10.3 9.9-10.3-0.2-10.3-11.2 0-11.2 8.8-11.5 4-0.1 6.2 3.2v-8.8c0-0.3 0.2-0.4 0.4-0.4h4.8c0.3 0 0.4 0.2 0.4 0.4v2.3c0 0 0 0 0 0.1zm-5.5 14.5c-0.1-4.3-1.6-6.4-4.6-6.4-3 0-4.6 2.1-4.8 6.4 0 4.4 1.5 6.7 4.7 6.7 3.1 0 4.7-2.3 4.7-6.7z"/></svg>