<svg version="1.2" xmlns="http://www.w3.org/2000/svg" viewBox="0 0 14 16" width="14" height="16"><style>.a{opacity:.5;fill:#a4a4a5}.b{fill:none;stroke:#2b3339;stroke-width:.1}.c{fill:#f05d24}.d{opacity:.6;fill:#bf3c13}</style><path class="a" d="m2.2 3.1c0 0 2.3 0.6 5.2-1.5l0.1-0.1c0.3 0-0.1-0.1-0.4-0.3 0 0 0-0.1 0-0.1-0.1 0-0.1 0.1-0.1 0.1-2.9 2-5.2 1.5-5.2 1.5l-0.1 7.1c0.2 1.1 0.8 2 1.6 2.7-0.6-0.6-1-1.4-1.2-2.3z"/><path class="b" d="m12.4 9.8l-0.1-7.1c0 0-2.3 0.5-5.2-1.5 0 0 0-0.1 0-0.1-0.1 0-0.1 0.1-0.1 0.1-2.9 2-5.2 1.5-5.2 1.5l-0.1 7.1c0.5 3 4.6 4.8 5.3 5v0.1q0 0 0.1 0 0 0 0 0v-0.1c0.7-0.2 4.8-2 5.3-5z"/><path class="c" d="m4.9 10.1l-1.4-2.5 0.9-0.6 0.9 1.7 4.8-2.9 0.5 1z"/><path class="d" d="m5.3 9l4.9-2.9-0.1-0.3-4.8 2.9-0.9-1.7-0.9 0.6 0.2 0.2 0.7-0.4z"/></svg>