<svg version="1.2" baseProfile="tiny-ps" xmlns="http://www.w3.org/2000/svg" viewBox="0 0 462 427" width="462" height="427">
	<title>alexa_Ranking-svg</title>
	<style>
		tspan { white-space:pre }
		.s0 { fill: none;stroke: #e5e5e5;stroke-width: 3 } 
		.s1 { fill: #ffffff } 
		.s2 { fill: #f05d24 } 
		.s3 { opacity: .6;fill: #bf3c13 } 
		.s4 { fill: #e5e5e5 } 
		.s5 { opacity: 0;fill: #ffffff } 
		.s6 { fill: #ffc900 } 
		.s7 { fill: #d8a505 } 
	</style>
	<path id="Layer" class="s0" d="m175.91 219.03c1.1-5.57-2.2-11.1-6.19-15.14c-10.19-10.3-24.83-15.84-36.73-23.91c-12.18-8.25-23.44-17.64-31.44-30.15c-9.83-15.38-14.66-33.33-15.39-51.47c-0.67-16.56 1.86-33.21 6.44-49.11c0.47-1.64 5.44-20.64 7.45-20.64" />
	<path id="Layer" class="s0" d="m364.53 28.61c2.01 0 6.98 19 7.45 20.64c4.58 15.9 7.11 32.55 6.44 49.11c-0.73 18.14-5.56 36.09-15.39 51.47c-8 12.51-19.26 21.9-31.44 30.15c-11.9 8.07-26.54 13.61-36.73 23.91c-3.99 4.04-7.29 9.57-6.19 15.14" />
	<g id="Layer">
		<path id="Layer" class="s1" d="m320.01 28.61c16.26-0.76 32.57-1.25 48.83-1.65l0.64-0.02c0.02 0 0.04-0.01 0.21 0.01c0.26 0.03 0.53 0.1 0.77 0.21c0.87 0.44 1.43 1.39 1.78 2.02c14.53 35.06 20.74 76.61 3.96 112.07c-7.42 16.09-20.39 29.06-34.94 38.83c-12.45 9.04-27.52 13.99-38.91 24.32c-3.45 3.07-6.66 7.18-7.13 11.73c-0.6 6.29 4.96 11.65 10.67 13.6c3.07 1.07 6.4 1.26 9.6 0.62c6.45-1.26 12.11-6.42 13.94-13.07c-1.94 10.94-13.64 17.85-24.24 14.67c-7.07-1.97-13.79-8.09-13.41-16.06c1.21-16.28 25.73-27.03 37.96-34.69c11.26-7.07 22.11-15.49 30.57-25.75c12.56-15.57 18.94-35.41 20.19-55.32c1.11-16.8-1.2-33.76-5.5-50.02c-1.3-5.01-2.51-9.88-4.06-14.77c-0.61-1.83-1.2-3.78-2.13-5.28c-0.04-0.06 0.02 0.03 0.1 0.06c0.03 0.01 0.02 0 0.08 0.03c0.13 0.08 0.3 0.12 0.46 0.12c0.12 0 0.08-0.01 0.05-0.01l-0.64-0.02c-16.29-0.38-32.6-0.87-48.85-1.63v0z" />
	</g>
	<g id="Layer">
		<path id="Layer" class="s1" d="m143.57 28.61c-16.26 0.76-32.57 1.25-48.83 1.65l-0.64 0.02c-0.04 0-0.07 0 0.05 0.01c0.08 0 0.16-0.01 0.24-0.03c0.08-0.02 0.15-0.05 0.22-0.09c0.06-0.03 0.05-0.02 0.08-0.03c0.08-0.03 0.14-0.12 0.1-0.06c-0.93 1.51-1.52 3.44-2.13 5.28c-1.55 4.89-2.76 9.76-4.06 14.77c-4.3 16.26-6.61 33.22-5.5 50.02c1.25 19.9 7.62 39.75 20.19 55.32c8.46 10.26 19.32 18.68 30.57 25.75c12.23 7.67 36.75 18.42 37.96 34.69c0.38 7.97-6.34 14.09-13.41 16.06c-10.57 3.18-22.32-3.73-24.24-14.67c1.83 6.66 7.49 11.81 13.94 13.07c3.2 0.64 6.53 0.45 9.6-0.62c5.71-1.95 11.27-7.32 10.67-13.6c-0.47-4.55-3.69-8.67-7.13-11.73c-11.39-10.32-26.46-15.28-38.91-24.32c-14.55-9.77-27.52-22.74-34.94-38.83c-16.79-35.46-10.58-77 3.96-112.07c0.43-0.83 1.33-2.17 2.55-2.23c0.17-0.02 0.19-0.01 0.21-0.01l0.64 0.02c16.24 0.39 32.55 0.87 48.81 1.63v0z" />
	</g>
	<path id="Layer" class="s2" d="m315.83 190.66c-4.28 6.53-9.4 12.45-15.05 17.84c-9.09 8.67-27.04 26.81-35.4 42.34c-11.46 21.29-4.91 52.39-4.91 52.39h-29.47h-29.47c0 0 6.55-31.11-4.91-52.39c-8.36-15.52-26.31-33.66-35.4-42.34c-5.65-5.39-10.77-11.32-15.05-17.84c-50.33-76.7-1.94-183.74-1.94-183.74c45.53 5.73 90.31 9.8 136.17 4.4l37.36-4.4c0 0 48.39 107.04-1.93 183.74z" />
	<path id="Layer" class="s3" d="m208.53 303.23h-7c0 0 6.55-31.11-4.91-52.39c-8.36-15.52-26.31-33.66-35.4-42.34c-5.65-5.39-10.77-11.32-15.05-17.84c-50.33-76.7-1.94-183.74-1.94-183.74c2.21 0.28 4.43 0.55 6.64 0.82c-4.29 9.96-45.48 110.11 2.3 182.92c4.28 6.53 9.4 12.45 15.05 17.84c9.09 8.67 27.04 26.81 35.4 42.34c11.46 21.28 4.91 52.39 4.91 52.39z" />
	<path id="Layer" class="s1" d="m234.21 87.35l11.85 24.01l26.5 3.85l-19.18 18.69l4.53 26.39l-23.7-12.46l-23.69 12.46l4.52-26.39l-19.17-18.69l26.49-3.85l11.85-24.01z" />
	<path id="Layer" class="s4" d="m240.33 147.83l16.97 8.92l0.61 3.54l-20.64-10.85l3.06-1.61z" />
	<path id="Layer" class="s4" d="m221.16 133.9l-3.92 22.85l-6.72 3.54l4.52-26.39l-19.17-18.69l26.49-3.85l11.85-24.01l3.06 6.2l-8.79 17.81l-26.49 3.85l19.17 18.69z" />
	<path id="Layer" class="s5" d="m231 416.24c-126.67 0-229.06-11.66-229.06-26.09c0-14.43 102.39-26.09 229.06-26.09c126.67 0 229.06 11.66 229.06 26.09c0 14.43-102.39 26.09-229.06 26.09z" />
	<path id="Layer" class="s6" d="m167.82 303.23h126.36v32.2h-126.36v-32.2z" />
	<path id="Layer" class="s7" d="m167.82 331.59h126.36v3.83h-126.36v-3.83z" />
	<path id="Layer" class="s2" d="m153.55 335.42h154.91v49.66h-154.91v-49.66z" />
	<path id="Layer" class="s3" d="m153.55 381.71h154.91v3.37h-154.91v-3.37z" />
</svg>