<svg version="1.2" baseProfile="tiny-ps" xmlns="http://www.w3.org/2000/svg" viewBox="0 0 418 443" width="418" height="443">
	<title>calendra-svg</title>
	<style>
		tspan { white-space:pre }
		.s0 { opacity: 0;fill: #ffffff } 
		.s1 { fill: #ff7f2c } 
		.s2 { fill: #ffffff } 
		.s3 { fill: #e5e5e5 } 
		.s4 { fill: #f05d24 } 
		.s5 { fill: #ffc900 } 
		.s6 { opacity: .6;fill: #bf3c13 } 
		.s7 { fill: #d8a505 } 
	</style>
	<path id="Layer" class="s0" d="m208 442.24c-126.67 0-229.06-11.66-229.06-26.09c0-14.43 102.39-26.09 229.06-26.09c126.67 0 229.06 11.66 229.06 26.09c0 14.43-102.39 26.09-229.06 26.09z" />
	<g id="Layer">
		<path id="Layer" class="s1" d="m373.28 419.14h-330.56c-14.3 0-25.89-11.59-25.89-25.89v-330.56c0-14.3 11.59-25.89 25.89-25.89h330.56c14.3 0 25.89 11.59 25.89 25.89v330.56c0 14.3-11.59 25.89-25.89 25.89z" />
		<path id="Layer" class="s2" d="m308.82 419.14h-266.1c-14.3 0-25.89-11.59-25.89-25.89v-330.56c0-14.3 11.59-25.89 25.89-25.89h330.56c14.3 0 25.89 11.59 25.89 25.89v261.77l-90.35 94.68z" />
		<path id="Layer" class="s3" d="m47.76 419.14h-5.04c-14.3 0-25.89-11.59-25.89-25.89v-330.56c0-14.3 11.59-25.89 25.89-25.89h5.04c-14.3 0-25.89 11.59-25.89 25.89v330.56c0 14.3 11.6 25.89 25.89 25.89z" />
		<path id="Layer" class="s4" d="m87.62 197.12h-16.32c-12.39 0-22.44-10.05-22.44-22.44v-16.32c0-12.39 10.05-22.44 22.44-22.44h16.32c12.39 0 22.44 10.05 22.44 22.44v16.32c0.01 12.39-10.04 22.44-22.44 22.44z" />
		<path id="Layer" class="s4" d="m173.32 197.12h-16.32c-12.39 0-22.44-10.05-22.44-22.44v-16.32c0-12.39 10.05-22.44 22.44-22.44h16.32c12.39 0 22.44 10.05 22.44 22.44v16.32c0 12.39-10.05 22.44-22.44 22.44z" />
		<path id="Layer" class="s4" d="m259.01 197.12h-16.32c-12.39 0-22.44-10.05-22.44-22.44v-16.32c0-12.39 10.05-22.44 22.44-22.44h16.32c12.39 0 22.44 10.05 22.44 22.44v16.32c0 12.39-10.05 22.44-22.44 22.44z" />
		<path id="Layer" class="s4" d="m344.7 197.12h-16.32c-12.39 0-22.44-10.05-22.44-22.44v-16.32c0-12.39 10.05-22.44 22.44-22.44h16.32c12.39 0 22.44 10.05 22.44 22.44v16.32c0 12.39-10.05 22.44-22.44 22.44z" />
		<path id="Layer" class="s4" d="m87.62 291.39h-16.32c-12.39 0-22.44-10.05-22.44-22.44v-16.32c0-12.39 10.05-22.44 22.44-22.44h16.32c12.39 0 22.44 10.05 22.44 22.44v16.32c0.01 12.39-10.04 22.44-22.44 22.44z" />
		<path id="Layer" class="s5" d="m173.32 291.39h-16.32c-12.39 0-22.44-10.05-22.44-22.44v-16.32c0-12.39 10.05-22.44 22.44-22.44h16.32c12.39 0 22.44 10.05 22.44 22.44v16.32c0 12.39-10.05 22.44-22.44 22.44z" />
		<path id="Layer" class="s4" d="m259.01 291.39h-16.32c-12.39 0-22.44-10.05-22.44-22.44v-16.32c0-12.39 10.05-22.44 22.44-22.44h16.32c12.39 0 22.44 10.05 22.44 22.44v16.32c0 12.39-10.05 22.44-22.44 22.44z" />
		<path id="Layer" class="s4" d="m344.7 291.39h-16.32c-12.39 0-22.44-10.05-22.44-22.44v-16.32c0-12.39 10.05-22.44 22.44-22.44h16.32c12.39 0 22.44 10.05 22.44 22.44v16.32c0 12.39-10.05 22.44-22.44 22.44z" />
		<path id="Layer" class="s4" d="m87.62 385.67h-16.32c-12.39 0-22.44-10.05-22.44-22.44v-16.33c0-12.39 10.05-22.44 22.44-22.44h16.32c12.39 0 22.44 10.05 22.44 22.44v16.32c0.01 12.4-10.04 22.45-22.44 22.45z" />
		<path id="Layer" class="s4" d="m173.32 385.67h-16.32c-12.39 0-22.44-10.05-22.44-22.44v-16.33c0-12.39 10.05-22.44 22.44-22.44h16.32c12.39 0 22.44 10.05 22.44 22.44v16.32c0 12.4-10.05 22.45-22.44 22.45z" />
		<path id="Layer" class="s5" d="m309.51 340.22c0.65-8.88 8.06-15.76 16.97-15.76h72.69l-90.35 94.68l0.69-78.92z" />
		<path id="Layer" class="s6" d="m75.15 197.11h-3.85c-12.39 0-22.44-10.05-22.44-22.44v-16.32c0-12.39 10.05-22.44 22.44-22.44h3.85c-12.39 0-22.44 10.05-22.44 22.44v16.32c0 12.4 10.05 22.44 22.44 22.44z" />
		<path id="Layer" class="s6" d="m75.15 291.39h-3.85c-12.39 0-22.44-10.05-22.44-22.44v-16.32c0-12.39 10.05-22.44 22.44-22.44h3.85c-12.39 0-22.44 10.05-22.44 22.44v16.32c0 12.39 10.05 22.44 22.44 22.44z" />
		<path id="Layer" class="s7" d="m160.84 291.39h-3.85c-12.39 0-22.44-10.05-22.44-22.44v-16.32c0-12.39 10.05-22.44 22.44-22.44h3.85c-12.39 0-22.44 10.05-22.44 22.44v16.32c0 12.39 10.05 22.44 22.44 22.44z" />
		<path id="Layer" class="s6" d="m75.15 385.66h-3.85c-12.39 0-22.44-10.05-22.44-22.44v-16.32c0-12.39 10.05-22.44 22.44-22.44h3.85c-12.39 0-22.44 10.05-22.44 22.44v16.33c0 12.39 10.05 22.44 22.44 22.43z" />
		<path id="Layer" class="s6" d="m160.84 385.66h-3.85c-12.39 0-22.44-10.05-22.44-22.44v-16.32c0-12.39 10.05-22.44 22.44-22.44h3.85c-12.39 0-22.44 10.05-22.44 22.44v16.33c0 12.39 10.05 22.44 22.44 22.43z" />
		<path id="Layer" class="s6" d="m332.23 291.39h-3.85c-12.39 0-22.44-10.05-22.44-22.44v-16.32c0-12.39 10.05-22.44 22.44-22.44h3.85c-12.39 0-22.44 10.05-22.44 22.44v16.32c0 12.39 10.04 22.44 22.44 22.44z" />
		<path id="Layer" class="s6" d="m246.53 291.39h-3.85c-12.39 0-22.44-10.05-22.44-22.44v-16.32c0-12.39 10.05-22.44 22.44-22.44h3.85c-12.39 0-22.44 10.05-22.44 22.44v16.32c0 12.39 10.05 22.44 22.44 22.44z" />
		<path id="Layer" class="s6" d="m160.84 197.11h-3.85c-12.39 0-22.44-10.05-22.44-22.44v-16.32c0-12.39 10.05-22.44 22.44-22.44h3.85c-12.39 0-22.44 10.05-22.44 22.44v16.32c0 12.4 10.05 22.44 22.44 22.44z" />
		<path id="Layer" class="s6" d="m246.53 197.11h-3.85c-12.39 0-22.44-10.05-22.44-22.44v-16.32c0-12.39 10.05-22.44 22.44-22.44h3.85c-12.39 0-22.44 10.05-22.44 22.44v16.32c0 12.4 10.05 22.44 22.44 22.44z" />
		<path id="Layer" class="s6" d="m332.23 197.11h-3.85c-12.39 0-22.44-10.05-22.44-22.44v-16.32c0-12.39 10.05-22.44 22.44-22.44h3.85c-12.39 0-22.44 10.05-22.44 22.44v16.32c0 12.4 10.04 22.44 22.44 22.44z" />
		<path id="Layer" class="s7" d="m309.51 340.22l-0.65 74.46l-0.04 0.04l0.69-78.91c0.65-8.88 8.06-15.76 16.97-15.76h72.69v4.41h-72.69c-8.91 0-16.32 6.88-16.97 15.76z" />
		<path id="Layer" class="s4" d="m399.17 97.7h-382.34v-38.45c0-12.4 10.05-22.44 22.44-22.44h337.45c12.4 0 22.44 10.05 22.44 22.44v38.45h0.01z" />
		<path id="Layer" class="s6" d="m16.83 97.7h382.34v4.42h-382.34v-4.42z" />
		<g id="Layer">
			<path id="Layer" class="s5" d="m289.68 67.25v0c-6.85 0-12.4-5.55-12.4-12.4v-35.19c0-6.85 5.55-12.4 12.4-12.4v0c6.85 0 12.4 5.55 12.4 12.4v35.19c0 6.85-5.55 12.4-12.4 12.4z" />
			<path id="Layer" class="s7" d="m288.3 67.18c-0.42 0.05-0.85 0.07-1.29 0.07v0c-6.85 0-12.4-5.55-12.4-12.4v-35.19c0-6.85 5.55-12.4 12.4-12.4v0c0.43 0 0.87 0.03 1.29 0.07c-6.24 0.65-11.11 5.92-11.11 12.33v35.19c0 6.41 4.87 11.69 11.11 12.33z" />
			<path id="Layer" class="s5" d="m126.32 67.25v0c-6.85 0-12.4-5.55-12.4-12.4v-35.19c0-6.85 5.55-12.4 12.4-12.4v0c6.85 0 12.4 5.55 12.4 12.4v35.19c0 6.85-5.55 12.4-12.4 12.4z" />
			<path id="Layer" class="s7" d="m127.61 67.18c-0.42 0.05-0.85 0.07-1.29 0.07v0c-6.85 0-12.4-5.55-12.4-12.4v-35.19c0-6.85 5.55-12.4 12.4-12.4v0c0.43 0 0.87 0.03 1.29 0.07c-6.24 0.65-11.11 5.92-11.11 12.33v35.19c0 6.41 4.87 11.69 11.11 12.33z" />
		</g>
	</g>
</svg>