<?xml version="1.0" encoding="utf-8"?>
<!-- Generator: Adobe Illustrator 26.0.1, SVG Export Plug-In . SVG Version: 6.00 Build 0)  -->
<svg version="1.1" id="Layer_1" xmlns="http://www.w3.org/2000/svg" xmlns:xlink="http://www.w3.org/1999/xlink" x="0px" y="0px"
	 width="500px" height="500px" viewBox="0 0 500 500" style="enable-background:new 0 0 500 500;" xml:space="preserve">
<style type="text/css">
	.st0{fill:#F05D24;}
	.st1{opacity:0.6;fill:#E5E5E5;}
	.st2{fill:#17171D;}
	.st3{opacity:0.04;fill:#FFFFFF;}
	.st4{fill:none;stroke:#E5E5E5;stroke-width:3;stroke-miterlimit:10;}
	.st5{fill:#FFFFFF;}
	.st6{opacity:0.6;fill:#BF3C13;}
	.st7{fill:#E5E5E5;}
	.st8{fill-rule:evenodd;clip-rule:evenodd;fill:#F05D24;}
	.st9{fill-rule:evenodd;clip-rule:evenodd;fill:#2B3339;}
	.st10{fill:#2B3339;}
	.st11{fill:none;stroke:#606060;stroke-miterlimit:10;}
	.st12{fill:none;}
	.st13{fill:#EF5C24;}
	.st14{fill:#C33A10;}
	.st15{fill:#EF8925;}
	.st16{fill:#D37118;}
	.st17{fill:#FF7F2C;}
	.st18{fill:#FFC900;}
	.st19{fill:#D8A505;}
	.st20{opacity:0.6;}
	.st21{fill:#F8FAFB;}
	.st22{fill:none;stroke:#2B3339;stroke-width:6;stroke-miterlimit:10;}
	.st23{fill:#F16333;}
	.st24{fill:#1F1F21;}
	.st25{opacity:0.12;fill:#FFFFFF;}
	.st26{fill:#585A5A;}
	.st27{fill:#1A1C20;}
	.st28{opacity:0.11;fill:#C6C6C6;}
	.st29{opacity:0.24;}
	.st30{opacity:0.12;}
	.st31{opacity:0.1;}
	.st32{opacity:0.19;fill:#B6B6B7;}
	.st33{filter:url(#Adobe_OpacityMaskFilter);}
	.st34{mask:url(#SVGID_1_);}
	.st35{fill:url(#SVGID_00000111890365766337382340000003258505667629866161_);}
	.st36{filter:url(#Adobe_OpacityMaskFilter_00000152977822280548186010000008315427378346693764_);}
	.st37{mask:url(#SVGID_00000103234479797470979450000005139190282549510325_);}
	.st38{opacity:0.61;}
	.st39{filter:url(#Adobe_OpacityMaskFilter_00000021121544822063083520000004474093490215211937_);}
	.st40{mask:url(#SVGID_00000126282467997493044410000001482951800126433164_);}
	.st41{fill:#DDDDDD;}
	.st42{fill:url(#SVGID_00000124163487399944709170000005814622999413126801_);}
	.st43{fill:url(#SVGID_00000109726000894774039540000003271320716908160914_);}
	.st44{opacity:0.19;}
	.st45{fill:#B6B6B7;}
	.st46{fill:none;stroke:#2B3339;stroke-width:4;stroke-miterlimit:10;}
	.st47{fill:none;stroke:#2B3339;stroke-width:4;stroke-linecap:round;stroke-miterlimit:10;}
	.st48{fill:none;stroke:#2B3339;stroke-width:3.5681;stroke-miterlimit:10;}
	.st49{fill:none;stroke:#FFC900;stroke-width:4;stroke-linecap:round;stroke-miterlimit:10;}
	.st50{fill:none;stroke:#F05D24;stroke-width:4;stroke-miterlimit:10;}
	.st51{fill:none;stroke:#F05D24;stroke-width:6;stroke-miterlimit:10;}
	.st52{fill:none;stroke:#F05D24;stroke-width:4;stroke-linecap:round;stroke-miterlimit:10;}
	.st53{opacity:0.21;fill:#FFFFFF;}
</style>
<g>
	<g>
		<circle class="st0" cx="245.46" cy="370.08" r="53.36"/>
		<circle class="st0" cx="245.46" cy="370.08" r="53.36"/>
		<path class="st6" d="M207.8,370.08c0-26.8,19.76-48.99,45.51-52.78c-2.56-0.38-5.18-0.58-7.85-0.58
			c-29.47,0-53.36,23.89-53.36,53.36c0,29.47,23.89,53.36,53.36,53.36c2.67,0,5.29-0.2,7.85-0.58
			C227.56,419.07,207.8,396.89,207.8,370.08z"/>
		<circle class="st48" cx="245.46" cy="370.08" r="53.36"/>
	</g>
	<g>
		<g>
			<path class="st47" d="M182.72,309.03c18.75-14.85,42.46-23.71,68.24-23.71c25.78,0,49.48,8.87,68.24,23.71"/>
			<path class="st47" d="M140.62,254.04c30.42-23.79,68.72-37.97,110.33-37.97c41.47,0,79.65,14.08,110.02,37.72"/>
			<path class="st47" d="M97.26,197.4c42.44-33,95.77-52.66,153.7-52.66c57.92,0,111.26,19.65,153.7,52.66"/>
			<path class="st47" d="M53.89,144.75c54.23-42.71,122.67-68.19,197.06-68.19c73.52,0,141.22,24.89,195.15,66.7"/>
		</g>
	</g>
</g>
</svg>
