<?xml version="1.0" encoding="utf-8"?>
<!-- Generator: Adobe Illustrator 26.0.1, SVG Export Plug-In . SVG Version: 6.00 Build 0)  -->
<svg version="1.1" id="Layer_1" xmlns="http://www.w3.org/2000/svg" xmlns:xlink="http://www.w3.org/1999/xlink" x="0px" y="0px"
	 width="500px" height="500px" viewBox="0 0 500 500" style="enable-background:new 0 0 500 500;" xml:space="preserve">
<style type="text/css">
	.st0{fill:#F05D24;}
	.st1{opacity:0.6;fill:#E5E5E5;}
	.st2{fill:#17171D;}
	.st3{opacity:0.04;fill:#FFFFFF;}
	.st4{fill:none;stroke:#E5E5E5;stroke-width:3;stroke-miterlimit:10;}
	.st5{fill:#FFFFFF;}
	.st6{opacity:0.6;fill:#BF3C13;}
	.st7{fill:#E5E5E5;}
	.st8{fill-rule:evenodd;clip-rule:evenodd;fill:#F05D24;}
	.st9{fill-rule:evenodd;clip-rule:evenodd;fill:#2B3339;}
	.st10{fill:#2B3339;}
	.st11{fill:none;stroke:#606060;stroke-miterlimit:10;}
	.st12{fill:none;}
	.st13{fill:#EF5C24;}
	.st14{fill:#C33A10;}
	.st15{fill:#EF8925;}
	.st16{fill:#D37118;}
	.st17{fill:#FF7F2C;}
	.st18{fill:#FFC900;}
	.st19{fill:#D8A505;}
	.st20{opacity:0.6;}
	.st21{fill:#F8FAFB;}
	.st22{fill:none;stroke:#2B3339;stroke-width:6;stroke-miterlimit:10;}
	.st23{fill:#F16333;}
	.st24{fill:#1F1F21;}
	.st25{opacity:0.12;fill:#FFFFFF;}
	.st26{fill:#585A5A;}
	.st27{fill:#1A1C20;}
	.st28{opacity:0.11;fill:#C6C6C6;}
	.st29{opacity:0.24;}
	.st30{opacity:0.12;}
	.st31{opacity:0.1;}
	.st32{opacity:0.19;fill:#B6B6B7;}
	.st33{filter:url(#Adobe_OpacityMaskFilter);}
	.st34{mask:url(#SVGID_1_);}
	.st35{fill:url(#SVGID_00000048497556266183287220000009936100199482277305_);}
	.st36{filter:url(#Adobe_OpacityMaskFilter_00000013877324223341975850000002830693658551535259_);}
	.st37{mask:url(#SVGID_00000078765019348589885440000002777537773369867157_);}
	.st38{opacity:0.61;}
	.st39{filter:url(#Adobe_OpacityMaskFilter_00000013153568063091104840000009719662818736150921_);}
	.st40{mask:url(#SVGID_00000179622672102149639490000013739040408714904733_);}
	.st41{fill:#DDDDDD;}
	.st42{fill:url(#SVGID_00000035508461251424804100000008356209121847219388_);}
	.st43{fill:url(#SVGID_00000178173373619191654430000011106281360756225471_);}
	.st44{opacity:0.19;}
	.st45{fill:#B6B6B7;}
	.st46{fill:none;stroke:#2B3339;stroke-width:4;stroke-miterlimit:10;}
	.st47{fill:none;stroke:#2B3339;stroke-width:4;stroke-linecap:round;stroke-miterlimit:10;}
	.st48{fill:none;stroke:#2B3339;stroke-width:3.5681;stroke-miterlimit:10;}
	.st49{fill:none;stroke:#FFC900;stroke-width:4;stroke-linecap:round;stroke-miterlimit:10;}
	.st50{fill:none;stroke:#F05D24;stroke-width:4;stroke-miterlimit:10;}
	.st51{fill:none;stroke:#F05D24;stroke-width:6;stroke-miterlimit:10;}
	.st52{fill:none;stroke:#F05D24;stroke-width:4;stroke-linecap:round;stroke-miterlimit:10;}
	.st53{opacity:0.21;fill:#FFFFFF;}
</style>
<path class="st0" d="M232.27,293.74c15.83-20.26,40.47-33.31,68.17-33.31c0.24,0,0.47,0.02,0.71,0.02V107.53H123.41v284.84H226.9
	c-8.19-13.21-10.24-29.63-10.24-46.32C216.66,329.71,230.33,295.28,232.27,293.74z"/>
<path class="st1" d="M119.09,410.27V89.73c0-12.76,10.34-23.1,23.1-23.1h-6c-12.76,0-23.1,10.34-23.1,23.1v320.54
	c0,12.76,10.34,23.1,23.1,23.1h6C129.43,433.37,119.09,423.03,119.09,410.27z"/>
<rect x="123.41" y="107.53" class="st6" width="6.7" height="284.84"/>
<path class="st0" d="M225.78,419.15h-27.01c-4.25,0-7.69-3.44-7.69-7.69l0,0c0-4.25,3.44-7.69,7.69-7.69h27.01
	c4.25,0,7.69,3.44,7.69,7.69l0,0C233.47,415.7,230.03,419.15,225.78,419.15z"/>
<path class="st6" d="M198.78,405.76h27.01c3.91,0,7.13,2.92,7.62,6.69c0.04-0.33,0.07-0.66,0.07-1c0-4.25-3.44-7.69-7.69-7.69
	h-27.01c-4.25,0-7.69,3.44-7.69,7.69c0,0.34,0.03,0.67,0.07,1C191.65,408.68,194.87,405.76,198.78,405.76z"/>
<path class="st0" d="M230.5,86.71h-36.44c-1.64,0-2.97-1.33-2.97-2.97l0,0c0-1.64,1.33-2.97,2.97-2.97h36.44
	c1.64,0,2.97,1.33,2.97,2.97l0,0C233.47,85.38,232.14,86.71,230.5,86.71z"/>
<path class="st6" d="M194.06,81.76h36.44c1.47,0,2.69,1.07,2.92,2.47c0.03-0.16,0.05-0.33,0.05-0.5c0-1.64-1.33-2.97-2.97-2.97
	h-36.44c-1.64,0-2.97,1.33-2.97,2.97c0,0.17,0.02,0.34,0.05,0.5C191.37,82.83,192.59,81.76,194.06,81.76z"/>
<circle class="st18" cx="158.85" cy="83.66" r="2.68"/>
<path class="st19" d="M156.87,83.73c0-1.45,1.15-2.63,2.59-2.67c-0.2-0.05-0.4-0.08-0.62-0.08c-1.48,0-2.68,1.2-2.68,2.68
	s1.2,2.68,2.68,2.68c0.03,0,0.06-0.01,0.09-0.01C157.76,86.06,156.87,85,156.87,83.73z"/>
<path class="st46" d="M293.1,433.37H136.19c-12.76,0-23.1-10.34-23.1-23.1V89.73c0-12.76,10.34-23.1,23.1-23.1h152.18
	c12.76,0,23.1,10.34,23.1,23.1v171.9"/>
<path class="st46" d="M301.15,260.43v-152.9H123.41v284.84l106.89,0"/>
<path class="st12" d="M226.4,302.22c1.79-2.95,3.76-5.78,5.87-8.48c-1.94,1.54-4.05,2.92-5.88,4.48
	C224.92,299.48,225.3,301.19,226.4,302.22z"/>
<circle class="st46" cx="303.13" cy="347.24" r="86.47"/>
<g>
	<path class="st18" d="M255.49,360.65l-7.51,22.74h-9.65l24.56-72.3h11.26l24.67,72.3h-9.98l-7.72-22.74H255.49z M279.2,353.35
		l-7.08-20.81c-1.61-4.72-2.68-9.01-3.75-13.19h-0.21c-1.07,4.29-2.25,8.69-3.65,13.09l-7.08,20.92H279.2z"/>
	<path class="st18" d="M336.7,326.32v25.21h24.24v6.44H336.7v25.42h-6.87v-25.42h-24.24v-6.44h24.24v-25.21H336.7z"/>
</g>
<path class="st12" d="M270.26,326.5c-0.55,1.97-1.13,3.95-1.76,5.93l-7.08,20.92h17.78l-7.08-20.81
	C271.41,330.45,270.81,328.45,270.26,326.5z"/>
<polygon class="st18" points="281.13,360.65 288.85,383.39 292.85,383.39 285.13,360.65 "/>
<polygon class="st19" points="262.89,311.09 238.33,383.39 242.33,383.39 266.89,311.09 "/>
<rect x="305.59" y="351.53" class="st19" width="4" height="6.44"/>
<rect x="329.83" y="326.32" class="st19" width="4" height="25.21"/>
<rect x="329.83" y="357.96" class="st19" width="4" height="25.42"/>
<path class="st18" d="M266.89,311.09l-24.56,72.3h5.65l7.51-22.74h4h21.64h4l7.72,22.74h5.98l-24.67-72.3H266.89z M283.2,353.35h-4
	h-17.78h-4l7.08-20.92c1.39-4.4,2.57-8.8,3.65-13.09h0.21c0.6,2.33,1.21,4.7,1.9,7.16c0.67-2.41,1.3-4.8,1.89-7.16h0.21
	c1.07,4.18,2.15,8.47,3.75,13.19L283.2,353.35z"/>
<polygon class="st18" points="340.7,351.53 336.7,351.53 336.7,326.32 333.83,326.32 333.83,351.53 329.83,351.53 309.59,351.53 
	309.59,357.96 329.83,357.96 333.83,357.96 333.83,383.39 336.7,383.39 336.7,357.96 340.7,357.96 360.94,357.96 360.94,351.53 "/>
</svg>
