<?xml version="1.0" encoding="utf-8"?>
<!-- Generator: Adobe Illustrator 26.0.1, SVG Export Plug-In . SVG Version: 6.00 Build 0)  -->
<svg version="1.1" id="Layer_1" xmlns="http://www.w3.org/2000/svg" xmlns:xlink="http://www.w3.org/1999/xlink" x="0px" y="0px"
	 width="500px" height="500px" viewBox="0 0 500 500" style="enable-background:new 0 0 500 500;" xml:space="preserve">
<style type="text/css">
	.st0{fill:#F05D24;}
	.st1{opacity:0.6;fill:#E5E5E5;}
	.st2{fill:#17171D;}
	.st3{opacity:0.04;fill:#FFFFFF;}
	.st4{fill:none;stroke:#E5E5E5;stroke-width:3;stroke-miterlimit:10;}
	.st5{fill:#FFFFFF;}
	.st6{opacity:0.6;fill:#BF3C13;}
	.st7{fill:#E5E5E5;}
	.st8{fill-rule:evenodd;clip-rule:evenodd;fill:#F05D24;}
	.st9{fill-rule:evenodd;clip-rule:evenodd;fill:#2B3339;}
	.st10{fill:#2B3339;}
	.st11{fill:none;stroke:#606060;stroke-miterlimit:10;}
	.st12{fill:none;}
	.st13{fill:#EF5C24;}
	.st14{fill:#C33A10;}
	.st15{fill:#EF8925;}
	.st16{fill:#D37118;}
	.st17{fill:#FF7F2C;}
	.st18{fill:#FFC900;}
	.st19{fill:#D8A505;}
	.st20{opacity:0.6;}
	.st21{fill:#F8FAFB;}
	.st22{fill:none;stroke:#2B3339;stroke-width:6;stroke-miterlimit:10;}
	.st23{fill:#F16333;}
	.st24{fill:#1F1F21;}
	.st25{opacity:0.12;fill:#FFFFFF;}
	.st26{fill:#585A5A;}
	.st27{fill:#1A1C20;}
	.st28{opacity:0.11;fill:#C6C6C6;}
	.st29{opacity:0.24;}
	.st30{opacity:0.12;}
	.st31{opacity:0.1;}
	.st32{opacity:0.19;fill:#B6B6B7;}
	.st33{filter:url(#Adobe_OpacityMaskFilter);}
	.st34{mask:url(#SVGID_1_);}
	.st35{fill:url(#SVGID_00000176759889465120989250000012635230726653332608_);}
	.st36{filter:url(#Adobe_OpacityMaskFilter_00000081623500746426096300000013180461471221815179_);}
	.st37{mask:url(#SVGID_00000039843020357323475250000010771404128695700640_);}
	.st38{opacity:0.61;}
	.st39{filter:url(#Adobe_OpacityMaskFilter_00000178180854291049791460000002394191173034246070_);}
	.st40{mask:url(#SVGID_00000126316599683656356580000017682405012996745149_);}
	.st41{fill:#DDDDDD;}
	.st42{fill:url(#SVGID_00000121259730363332038900000010976213582046766520_);}
	.st43{fill:url(#SVGID_00000045616556002949909040000013257463324585781392_);}
	.st44{opacity:0.19;}
	.st45{fill:#B6B6B7;}
	.st46{fill:none;stroke:#2B3339;stroke-width:4;stroke-miterlimit:10;}
	.st47{fill:none;stroke:#2B3339;stroke-width:4;stroke-linecap:round;stroke-miterlimit:10;}
	.st48{fill:none;stroke:#2B3339;stroke-width:3.5681;stroke-miterlimit:10;}
	.st49{fill:none;stroke:#FFC900;stroke-width:4;stroke-linecap:round;stroke-miterlimit:10;}
	.st50{fill:none;stroke:#F05D24;stroke-width:4;stroke-miterlimit:10;}
	.st51{fill:none;stroke:#F05D24;stroke-width:6;stroke-miterlimit:10;}
	.st52{fill:none;stroke:#F05D24;stroke-width:4;stroke-linecap:round;stroke-miterlimit:10;}
	.st53{opacity:0.21;fill:#FFFFFF;}
</style>
<g>
	<path class="st1" d="M99.63,306.15c0.34-0.05,0.67-0.12,1-0.2c-0.03-0.57,0.14-1.15,0.44-1.64c0.16-0.45,0.39-0.87,0.73-1.23
		c0.57-0.59,1.35-0.92,2.15-0.95V86.43c0-12.76,10.34-23.1,23.1-23.1h-6c-12.76,0-23.1,10.34-23.1,23.1v220.95
		C98.34,306.75,98.92,306.26,99.63,306.15z"/>
	<path class="st1" d="M103.95,406.97V385.2c-0.84-0.09-1.66-0.5-2.21-1.3c-0.28-0.42-0.54-0.86-0.8-1.29
		c-0.44-0.51-0.88-1.02-1.32-1.53c-0.29-0.2-0.52-0.43-0.71-0.67c-0.32,0.01-0.65-0.05-0.97-0.17v26.73
		c0,12.76,10.34,23.1,23.1,23.1h6C114.3,430.07,103.95,419.72,103.95,406.97z"/>
	<path class="st0" d="M108.27,104.23v195.93c6.47-6.04,16.33-5.21,24.7-5.06c11.11,0.19,21,2.76,29.6,10.14
		c14.75,12.65,20.09,33.45,16.4,52.1c-1.87,9.44-6.25,18.89-13.15,25.71c-3.09,3.06-6.74,4.82-10.63,6.02h27.5
		c1.03-3.71,2.42-7.42,6.22-9.09c1.09-0.48,2.3-0.49,3.22,0.15c0.15,0,0.31,0,0.47,0.02c5.46,0.76,10.61,4.26,14.24,8.29
		c0.18,0.2,0.32,0.41,0.44,0.63h78.73V104.23H108.27z"/>
	<path class="st6" d="M114.65,296.28c0.11,0.01,0.22,0.03,0.32,0.05v-192.1h-6.7v194.43C109.98,297.07,112.29,296.14,114.65,296.28z
		"/>
	<path class="st0" d="M200.65,415.84h-17c-4.25,0-7.69-3.44-7.69-7.69l0,0c0-4.25,3.44-7.69,7.69-7.69"/>
	<path class="st6" d="M183.64,400.46c-4.25,0-7.69,3.44-7.69,7.69c0,0.34,0.03,0.67,0.07,1c0.49-3.77,3.71-6.69,7.62-6.69"/>
	<path class="st0" d="M215.37,83.4h-36.44c-1.64,0-2.97-1.33-2.97-2.97l0,0c0-1.64,1.33-2.97,2.97-2.97h36.44
		c1.64,0,2.97,1.33,2.97,2.97l0,0C218.34,82.07,217.01,83.4,215.37,83.4z"/>
	<path class="st6" d="M178.93,78.46h36.44c1.47,0,2.69,1.07,2.92,2.47c0.03-0.16,0.05-0.33,0.05-0.5c0-1.64-1.33-2.97-2.97-2.97
		h-36.44c-1.64,0-2.97,1.33-2.97,2.97c0,0.17,0.02,0.34,0.05,0.5C176.24,79.53,177.45,78.46,178.93,78.46z"/>
	<circle class="st18" cx="143.72" cy="80.36" r="2.68"/>
	<path class="st19" d="M141.74,80.43c0-1.45,1.15-2.63,2.59-2.67c-0.2-0.05-0.4-0.08-0.62-0.08c-1.48,0-2.68,1.2-2.68,2.68
		s1.2,2.68,2.68,2.68c0.03,0,0.06-0.01,0.09-0.01C142.62,82.75,141.74,81.7,141.74,80.43z"/>
	<path class="st46" d="M220.06,430.07h-99c-12.76,0-23.1-10.34-23.1-23.1V382.2"/>
	<path class="st46" d="M97.95,305.91V86.43c0-12.76,10.34-23.1,23.1-23.1h152.18c12.76,0,23.1,10.34,23.1,23.1v320.54
		c0,12.76-10.34,23.1-23.1,23.1h-27.5"/>
	<polyline class="st46" points="143.72,276.83 206.64,276.83 241.3,213.57 255.43,316.54 277.02,270.01 294.47,280.79 
		320.74,244.17 340.52,288.59 357.68,270.05 412.91,270.99 	"/>
	<circle class="st10" cx="143.72" cy="276.83" r="10.13"/>
	<circle class="st10" cx="409.32" cy="270.08" r="10.13"/>
	<line class="st46" x1="180.48" y1="389.07" x2="153.93" y2="389.07"/>
	<polyline class="st46" points="108.27,300.16 108.27,104.23 286.02,104.23 286.02,389.07 209.85,389.07 	"/>
	<g>
		<polygon class="st18" points="186.61,380.05 177.4,391.91 166.02,380.33 176.16,367.27 		"/>
		<path class="st46" d="M188.93,378.57L188.93,378.57c-4.76,2.85-8.32,7.35-10.01,12.64l-0.13,0.42l-12.92-10.1l10.15-13.06
			L188.93,378.57z"/>
		<g>
			<path class="st46" d="M243.85,431.72L243.85,431.72c-4.34,5.59-12.4,6.6-17.98,2.26l-40.81-31.71c-5.59-4.34-6.6-12.4-2.26-17.98
				l0,0c4.34-5.59,12.4-6.6,17.98-2.26l40.81,31.71C247.18,418.08,248.19,426.13,243.85,431.72z"/>
		</g>
		<circle class="st46" cx="131.04" cy="344.06" r="50.49"/>
	</g>
</g>
</svg>
