<?xml version="1.0" encoding="utf-8"?>
<!-- Generator: Adobe Illustrator 26.0.1, SVG Export Plug-In . SVG Version: 6.00 Build 0)  -->
<svg version="1.1" id="Layer_1" xmlns="http://www.w3.org/2000/svg" xmlns:xlink="http://www.w3.org/1999/xlink" x="0px" y="0px"
	 width="376px" height="500px" viewBox="0 0 376 500" style="enable-background:new 0 0 376 500;" xml:space="preserve">
<style type="text/css">
	.st0{fill:#FFC900;}
	.st1{fill:#D8A505;}
	.st2{opacity:0.6;fill:#E5E5E5;enable-background:new    ;}
	.st3{fill:none;stroke:#2B3339;stroke-width:4;stroke-miterlimit:10;}
	.st4{fill:#F16333;}
	.st5{opacity:0.6;fill:#BF3C13;enable-background:new    ;}
	.st6{fill:#F05D24;}
</style>
<path class="st0" d="M299.6,369.6H88.8c-2.6,0-4.8-2.1-4.8-4.8l0,0c0-2.6,2.1-4.8,4.8-4.8h210.9c2.6,0,4.8,2.1,4.8,4.8l0,0
	C304.4,367.5,302.3,369.6,299.6,369.6z"/>
<path class="st0" d="M299.6,369.6H88.8c-2.6,0-4.8-2.1-4.8-4.8l0,0c0-2.6,2.1-4.8,4.8-4.8h210.9c2.6,0,4.8,2.1,4.8,4.8l0,0
	C304.4,367.5,302.3,369.6,299.6,369.6z"/>
<path class="st1" d="M297.7,369.6c1.4,0,2.6-0.3,3.6-0.8c-1-0.5-2.3-0.8-3.6-0.8h-207c-1.4,0-2.6,0.3-3.6,0.8
	c1.1,0.5,2.3,0.8,3.6,0.8H297.7z"/>
<path class="st0" d="M299.6,389H88.8c-2.6,0-4.8-2.1-4.8-4.8l0,0c0-2.6,2.1-4.8,4.8-4.8h210.9c2.6,0,4.8,2.1,4.8,4.8l0,0
	C304.4,386.9,302.3,389,299.6,389z"/>
<path class="st0" d="M299.6,408.4H88.8c-2.6,0-4.8-2.1-4.8-4.8l0,0c0-2.6,2.1-4.8,4.8-4.8h210.9c2.6,0,4.8,2.1,4.8,4.8l0,0
	C304.4,406.3,302.3,408.4,299.6,408.4z"/>
<path class="st1" d="M297.7,389.3c1.4,0,2.6-0.3,3.6-0.8c-1-0.5-2.3-0.8-3.6-0.8h-207c-1.4,0-2.6,0.3-3.6,0.8
	c1.1,0.5,2.3,0.8,3.6,0.8H297.7z"/>
<path class="st1" d="M297.7,408.4c1.4,0,2.6-0.3,3.6-0.8c-1-0.5-2.3-0.8-3.6-0.8h-207c-1.4,0-2.6,0.3-3.6,0.8
	c1.1,0.5,2.3,0.8,3.6,0.8H297.7z"/>
<path class="st2" d="M52.8,438.9V86.3c0-14,15.3-25.4,34.2-25.4h-8.9c-18.9,0-34.2,11.4-34.2,25.4v352.6c0,14,15.3,25.4,34.2,25.4
	H87C68.1,464.3,52.8,452.9,52.8,438.9z"/>
<path class="st3" d="M70.8,60.9h234.4c16.4,0,29.6,13.3,29.6,29.6v347.6c0,16.4-13.2,29.6-29.6,29.6H70.8
	c-16.3,0-29.6-13.2-29.6-29.6V90.5C41.2,74.1,54.4,60.9,70.8,60.9z"/>
<path class="st4" d="M240.4,62.4h-7.6c-1.6-7.8-8.4-13.7-16.5-13.7c-0.1,0-0.3,0-0.4,0C213.4,34.1,201,23,186,23
	c-15,0-27.4,11.2-29.8,25.8c-0.1,0-0.3,0-0.4,0c-8.1,0-14.9,5.9-16.5,13.7h-7.6c-10.7,0-19.3,8.7-19.3,19.3h36.5h14h10.5h25.3h10.5
	h14h36.5C259.7,71.1,251.1,62.4,240.4,62.4z"/>
<path class="st5" d="M131.7,67.4h7.6c1.6-7.8,8.4-13.7,16.5-13.7c0.1,0,0.3,0,0.4,0C158.7,39.1,171.1,28,186,28
	c15,0,27.4,11.2,29.8,25.8c0.1,0,0.3,0,0.4,0c8.1,0,14.9,5.9,16.5,13.7h7.6c9,0,16.5,6.1,18.7,14.3h0.7c0-10.7-8.7-19.3-19.3-19.3
	h-7.6c-1.6-7.8-8.4-13.7-16.5-13.7c-0.1,0-0.3,0-0.4,0C213.4,34.1,201,23,186.1,23c-15,0-27.4,11.2-29.8,25.8c-0.1,0-0.3,0-0.4,0
	c-8.1,0-14.9,5.9-16.5,13.7h-7.6c-10.7,0-19.3,8.7-19.3,19.3h0.7C115.2,73.5,122.7,67.4,131.7,67.4z"/>
<path class="st6" d="M101.7,220.2c6.6-0.4,13.1-1.5,19.1-4.4c6.1-3,10.5-7.5,12.6-14.1c0.3-0.9,0.1-1-0.8-1c-1.6,0-3.3,0-4.9,0
	c0.8,0,1,0.2,0.7,1c-2.1,6.6-6.5,11.1-12.6,14.1c-6,3-12.5,4.1-19.1,4.4c-2.2,0.1-4.4,0.2-6.5,0.2C94,220.4,97.9,220.4,101.7,220.2z
	"/>
<path class="st6" d="M79.9,163.9c0-4.9,0-9.9,0-14.8c0-2.8,1.4-4.1,4.2-4.1c30.5,0,60.9,0,91.4,0l0,0c-32.1,0-64.3,0-96.4,0
	c-2.8,0-4.2,1.4-4.2,4.1c0,4.9,0,9.9,0,14.8c0,2.7,1.5,4.2,4.2,4.2c1.6,0,3.3,0,4.9,0C81.4,168,79.9,166.6,79.9,163.9z"/>
<path class="st6" d="M139.1,308.2c-11.6-14-23.4-27.9-35.4-41.6c-7.4-8.4-14.8-16.7-22.5-24.9c-0.9-0.9-1.3-1.9-1.3-3.2
	c0-4.7,0-9.4,0-14.1c0-2.7,1.5-4.1,4.1-4.1c-1.6,0-3.3,0-4.9,0c-2.7,0-4.2,1.4-4.2,4.1c0,4.7,0,9.4,0,14.1c0,1.3,0.4,2.3,1.3,3.2
	c7.7,8.1,15.1,16.5,22.5,24.9c12,13.7,23.8,27.6,35.4,41.6c0.8,1,1.8,1.5,3,1.5c1.7,0,3.3,0,5,0
	C140.9,309.8,139.9,309.2,139.1,308.2z"/>
<path class="st6" d="M170.8,181.3c-2.9,0-5.8,0-8.7,0c0.1,0,0.1,0,0.1,0C165.1,181.3,168,181.3,170.8,181.3z"/>
<path class="st6" d="M162.5,200.7c2.8,0,5.6,0,8.4,0c-2.7,0-5.4,0-8,0C162.8,200.6,162.7,200.7,162.5,200.7z"/>
<path class="st6" d="M84.1,168C84.1,168,84.1,168,84.1,168c1.8,0,3.4,0,5.1,0C87.5,168,85.8,168,84.1,168z"/>
<path class="st6" d="M84.4,200.7C84.4,200.7,84.4,200.7,84.4,200.7c14.5,0,28.9,0,43.3,0c0,0-0.1,0-0.1,0
	C113.2,200.7,98.8,200.7,84.4,200.7z"/>
<path class="st6" d="M90.2,220.4c-2,0-4,0-6,0c0,0,0,0-0.1,0C86.1,220.4,88.1,220.4,90.2,220.4z"/>
<path class="st6" d="M109.3,240.9c4.5,4.8,8.8,9.6,13,14.4c13.9,15.8,27.3,32,40.6,48.2c1,1.2,1.3,2.4,0.6,3.9
	c-0.7,1.5-1.8,2.3-3.5,2.3c-7.6,0-15.2,0-22.9,0c-1.3,0-2.2-0.6-3-1.5c-11.6-14-23.4-27.9-35.4-41.6c-7.4-8.4-14.8-16.7-22.5-24.9
	c-0.9-0.9-1.3-1.9-1.3-3.2c0-4.7,0-9.4,0-14.1c0-2.7,1.5-4.1,4.2-4.1c5.9,0,11.7,0.2,17.5-0.2c6.6-0.4,13.1-1.5,19.1-4.4
	c6.1-3,10.5-7.5,12.6-14.1c0.3-0.9,0.1-1-0.8-1c-16.1,0-32.1,0-48.2,0c-3.2,0-4.4-1.2-4.4-4.4c0-3.6,0-7.3,0-10.9
	c0-2.8,1.3-4.1,4.1-4.1c15.6,0,31.1,0,46.6,0c0.4,0,0.7,0,1.2,0c-0.6-1.3-1.3-2.4-2.2-3.4c-3.6-4.4-8.4-6.7-13.7-8.1
	c-4.9-1.3-10-1.7-15.1-1.7c-5.6,0-11.2,0-16.9,0c-2.7,0-4.2-1.4-4.2-4.2c0-4.9,0-9.9,0-14.8c0-2.8,1.4-4.1,4.2-4.1
	c32.1,0,64.3,0,96.4,0c2.9,0,4.3,1.4,4.3,4.3c0,3.7,0,7.3,0,11c0,2.8-1.4,4.2-4.2,4.2c-8.5,0-16.9,0-25.4,0c-0.4,0-0.7,0-1.1,0
	c-0.2,0.3,0,0.4,0.1,0.5c3.4,4.6,5.6,9.8,6.9,15.4c0.2,0.7,0.4,1,1.2,1c6.2-0.1,12.4,0,18.7,0c2.7,0,4.1,1.4,4.1,4.1
	c0,3.7,0,7.5,0,11.2c0,2.8-1.4,4.1-4.2,4.1c-6,0-11.9,0-17.9,0c-1.1,0-1.4,0.3-1.6,1.3c-3.3,17.3-13.8,28.5-29.9,34.9
	C121.1,239,115.3,240.2,109.3,240.9z"/>
<path class="st5" d="M81.5,198.1c0-3.6,0-7.3,0-10.9c0-2.8,1.3-4.1,4.1-4.1c15.6,0,31.1,0,46.6,0c0.4,0,0.7,0,1.2,0
	c-0.6-1.3-1.3-2.4-2.2-3.4c-3.6-4.4-8.4-6.7-13.7-8.1c-4.9-1.3-10-1.7-15.1-1.7c-3.9,0-7.9,0-11.8,0c2.3,0,4.6,0,6.8,0
	c5.1,0,10.1,0.4,15.1,1.7c5.3,1.4,10.1,3.7,13.7,8.1c0.8,1,1.6,2.1,2.2,3.4c-0.5,0-0.8,0-1.2,0c-15.6,0-31.1,0-46.6,0
	c-2.8,0-4.1,1.3-4.1,4.1c0,3.6,0,7.3,0,10.9c0,3.2,1.2,4.4,4.4,4.4c1.6,0,3.3,0,5,0C82.7,202.5,81.5,201.3,81.5,198.1z"/>
<path class="st3" d="M109.3,240.9c4.5,4.8,8.8,9.6,13,14.4c13.9,15.8,27.3,32,40.6,48.2c1,1.2,1.3,2.4,0.6,3.9
	c-0.7,1.5-1.8,2.3-3.5,2.3c-7.6,0-15.2,0-22.9,0c-1.3,0-2.2-0.6-3-1.5c-11.6-14-23.4-27.9-35.4-41.6c-7.4-8.4-14.8-16.7-22.5-24.9
	c-0.9-0.9-1.3-1.9-1.3-3.2c0-4.7,0-9.4,0-14.1c0-2.7,1.5-4.1,4.2-4.1c5.9,0,11.7,0.2,17.5-0.2c6.6-0.4,13.1-1.5,19.1-4.4
	c6.1-3,10.5-7.5,12.6-14.1c0.3-0.9,0.1-1-0.8-1c-16.1,0-32.1,0-48.2,0c-3.2,0-4.4-1.2-4.4-4.4c0-3.6,0-7.3,0-10.9
	c0-2.8,1.3-4.1,4.1-4.1c15.6,0,31.1,0,46.6,0c0.4,0,0.7,0,1.2,0c-0.6-1.3-1.3-2.4-2.2-3.4c-3.6-4.4-8.4-6.7-13.7-8.1
	c-4.9-1.3-10-1.7-15.1-1.7c-5.6,0-11.2,0-16.9,0c-2.7,0-4.2-1.4-4.2-4.2c0-4.9,0-9.9,0-14.8c0-2.8,1.4-4.1,4.2-4.1
	c32.1,0,64.3,0,96.4,0c2.9,0,4.3,1.4,4.3,4.3c0,3.7,0,7.3,0,11c0,2.8-1.4,4.2-4.2,4.2c-8.5,0-16.9,0-25.4,0c-0.4,0-0.7,0-1.1,0
	c-0.2,0.3,0,0.4,0.1,0.5c3.4,4.6,5.6,9.8,6.9,15.4c0.2,0.7,0.4,1,1.2,1c6.2-0.1,12.4,0,18.7,0c2.7,0,4.1,1.4,4.1,4.1
	c0,3.7,0,7.5,0,11.2c0,2.8-1.4,4.1-4.2,4.1c-6,0-11.9,0-17.9,0c-1.1,0-1.4,0.3-1.6,1.3c-3.3,17.3-13.8,28.5-29.9,34.9
	C121.1,239,115.3,240.2,109.3,240.9z"/>
</svg>
