<?xml version="1.0" encoding="utf-8"?>
<!-- Generator: Adobe Illustrator 26.0.1, SVG Export Plug-In . SVG Version: 6.00 Build 0)  -->
<svg version="1.1" id="Layer_1" xmlns="http://www.w3.org/2000/svg" xmlns:xlink="http://www.w3.org/1999/xlink" x="0px" y="0px"
	 width="500px" height="500px" viewBox="0 0 500 500" style="enable-background:new 0 0 500 500;" xml:space="preserve">
<style type="text/css">
	.st0{fill:#F05D24;}
	.st1{opacity:0.6;fill:#E5E5E5;}
	.st2{fill:#17171D;}
	.st3{opacity:0.04;fill:#FFFFFF;}
	.st4{fill:none;stroke:#E5E5E5;stroke-width:3;stroke-miterlimit:10;}
	.st5{fill:#FFFFFF;}
	.st6{opacity:0.6;fill:#BF3C13;}
	.st7{fill:#E5E5E5;}
	.st8{fill-rule:evenodd;clip-rule:evenodd;fill:#F05D24;}
	.st9{fill-rule:evenodd;clip-rule:evenodd;fill:#2B3339;}
	.st10{fill:#2B3339;}
	.st11{fill:none;stroke:#606060;stroke-miterlimit:10;}
	.st12{fill:none;}
	.st13{fill:#EF5C24;}
	.st14{fill:#C33A10;}
	.st15{fill:#EF8925;}
	.st16{fill:#D37118;}
	.st17{fill:#FF7F2C;}
	.st18{fill:#FFC900;}
	.st19{fill:#D8A505;}
	.st20{opacity:0.6;}
	.st21{fill:#F8FAFB;}
	.st22{fill:none;stroke:#2B3339;stroke-width:6;stroke-miterlimit:10;}
	.st23{fill:#F16333;}
	.st24{fill:#1F1F21;}
	.st25{opacity:0.12;fill:#FFFFFF;}
	.st26{fill:#585A5A;}
	.st27{fill:#1A1C20;}
	.st28{opacity:0.11;fill:#C6C6C6;}
	.st29{opacity:0.24;}
	.st30{opacity:0.12;}
	.st31{opacity:0.1;}
	.st32{opacity:0.19;fill:#B6B6B7;}
	.st33{filter:url(#Adobe_OpacityMaskFilter);}
	.st34{mask:url(#SVGID_1_);}
	.st35{fill:url(#SVGID_00000056396092349009968990000013254839639143579023_);}
	.st36{filter:url(#Adobe_OpacityMaskFilter_00000096754676034593589200000001551156699653902757_);}
	.st37{mask:url(#SVGID_00000039120968901771620320000008317974527020002472_);}
	.st38{opacity:0.61;}
	.st39{filter:url(#Adobe_OpacityMaskFilter_00000168824811405345014170000005396703451334926749_);}
	.st40{mask:url(#SVGID_00000002377975480601712600000008110313890009883297_);}
	.st41{fill:#DDDDDD;}
	.st42{fill:url(#SVGID_00000141413560072082321220000014397488954971064742_);}
	.st43{fill:url(#SVGID_00000064339052698498039080000016789681562161506979_);}
	.st44{opacity:0.19;}
	.st45{fill:#B6B6B7;}
	.st46{fill:none;stroke:#2B3339;stroke-width:4;stroke-miterlimit:10;}
	.st47{fill:none;stroke:#2B3339;stroke-width:4;stroke-linecap:round;stroke-miterlimit:10;}
	.st48{fill:none;stroke:#2B3339;stroke-width:3.5681;stroke-miterlimit:10;}
	.st49{fill:none;stroke:#FFC900;stroke-width:4;stroke-linecap:round;stroke-miterlimit:10;}
	.st50{fill:none;stroke:#F05D24;stroke-width:4;stroke-miterlimit:10;}
	.st51{fill:none;stroke:#F05D24;stroke-width:6;stroke-miterlimit:10;}
	.st52{fill:none;stroke:#F05D24;stroke-width:4;stroke-linecap:round;stroke-miterlimit:10;}
	.st53{opacity:0.21;fill:#FFFFFF;}
</style>
<g>
	<path class="st0" d="M239.06,160.55c5.39-0.3,10.65-1.21,15.55-3.62c4.94-2.44,8.54-6.09,10.24-11.45
		c0.23-0.71,0.11-0.84-0.62-0.84c-1.34,0-2.68,0-4.01,0c0.67,0.01,0.78,0.15,0.56,0.83c-1.71,5.36-5.3,9.01-10.24,11.45
		c-4.9,2.42-10.16,3.33-15.55,3.62c-1.77,0.1-3.55,0.13-5.32,0.14C232.8,160.71,235.93,160.72,239.06,160.55z"/>
	<path class="st0" d="M221.33,114.66c-0.01-4.01-0.01-8.02,0-12.03c0.01-2.27,1.13-3.37,3.41-3.37c24.82,0,49.64,0,74.46,0
		c0,0,0,0,0,0c-26.18,0-52.35,0-78.53,0c-2.28,0-3.4,1.1-3.41,3.37c-0.01,4.01-0.01,8.02,0,12.03c0,2.21,1.2,3.39,3.41,3.39
		c1.34,0,2.67,0,4.01,0C222.51,118.03,221.34,116.86,221.33,114.66z"/>
	<path class="st0" d="M269.55,232.27c-9.49-11.4-19.08-22.71-28.86-33.87c-6-6.85-12.08-13.63-18.33-20.26
		c-0.71-0.75-1.04-1.57-1.03-2.6c0.02-3.83,0-7.66,0.01-11.49c0.01-2.19,1.19-3.34,3.38-3.38c-1.34-0.01-2.68-0.01-4.02,0
		c-2.23,0.02-3.43,1.18-3.43,3.38c-0.01,3.83,0.01,7.66-0.01,11.49c-0.01,1.03,0.33,1.85,1.03,2.6
		c6.25,6.63,12.32,13.41,18.33,20.26c9.78,11.15,19.38,22.46,28.86,33.87c0.66,0.79,1.43,1.25,2.48,1.25c1.36,0,2.72,0,4.07,0
		C270.98,233.52,270.21,233.06,269.55,232.27z"/>
	<path class="st0" d="M295.39,128.85c-2.37,0-4.74,0-7.11,0.01c0.04,0,0.07,0.01,0.12,0.01
		C290.74,128.85,293.07,128.85,295.39,128.85z"/>
	<path class="st0" d="M288.63,144.65c2.3,0.01,4.59,0.01,6.89,0.01c-2.18,0-4.36-0.01-6.54-0.03
		C288.85,144.63,288.74,144.64,288.63,144.65z"/>
	<path class="st0" d="M224.93,144.66c0.01,0,0.02,0,0.03,0c11.75,0,23.5,0,35.25-0.01c-0.02,0-0.04,0-0.06,0
		C248.41,144.66,236.67,144.66,224.93,144.66z"/>
	<path class="st0" d="M229.67,160.69c-1.63-0.01-3.26-0.02-4.9-0.01c-0.02,0-0.03,0-0.05,0
		C226.37,160.69,228.02,160.7,229.67,160.69z"/>
	<path class="st0" d="M245.23,177.47c3.68,3.94,7.17,7.81,10.62,11.73c11.31,12.86,22.24,26.04,33.08,39.3
		c0.8,0.98,1.04,1.99,0.49,3.18c-0.56,1.23-1.47,1.85-2.83,1.85c-6.21-0.01-12.43-0.01-18.64,0c-1.05,0-1.82-0.46-2.48-1.25
		c-9.49-11.4-19.08-22.71-28.86-33.87c-6-6.85-12.08-13.63-18.33-20.26c-0.71-0.75-1.04-1.57-1.03-2.6c0.02-3.83,0-7.66,0.01-11.49
		c0.01-2.2,1.2-3.36,3.43-3.38c4.76-0.04,9.53,0.13,14.29-0.13c5.39-0.3,10.65-1.21,15.55-3.62c4.94-2.44,8.54-6.09,10.24-11.45
		c0.23-0.71,0.11-0.84-0.62-0.84c-13.09,0.02-26.18,0.02-39.27,0.02c-2.61,0-3.63-1-3.63-3.58c0-2.96-0.01-5.91,0-8.87
		c0.01-2.3,1.08-3.36,3.38-3.36c12.67,0,25.33,0,38,0c0.29,0,0.59,0,0.98,0c-0.46-1.09-1.08-1.97-1.76-2.8
		c-2.91-3.57-6.83-5.43-11.16-6.58c-4.02-1.06-8.13-1.38-12.27-1.41c-4.58-0.03-9.17-0.01-13.75-0.01c-2.22,0-3.41-1.18-3.41-3.39
		c-0.01-4.01-0.01-8.02,0-12.03c0.01-2.27,1.13-3.37,3.41-3.37c26.18,0,52.35,0,78.53,0c2.38,0,3.5,1.12,3.5,3.48
		c0,2.99,0,5.97,0,8.96c0,2.31-1.12,3.42-3.46,3.42c-6.91,0-13.81,0-20.72,0c-0.3,0-0.6,0-0.87,0c-0.13,0.21,0.03,0.31,0.11,0.42
		c2.78,3.76,4.58,7.97,5.59,12.52c0.13,0.59,0.32,0.82,0.99,0.81c5.07-0.04,10.13-0.02,15.2-0.02c2.22,0,3.34,1.1,3.35,3.32
		c0.01,3.05,0.01,6.09,0,9.14c-0.01,2.26-1.13,3.35-3.42,3.35c-4.86,0-9.71,0.02-14.57-0.02c-0.87-0.01-1.13,0.22-1.29,1.09
		c-2.69,14.09-11.23,23.21-24.32,28.39C254.83,175.88,250.16,176.87,245.23,177.47z"/>
	<path class="st6" d="M221.33,141.08c0-2.96-0.01-5.91,0-8.87c0.01-2.3,1.08-3.36,3.38-3.36c12.67,0,25.33,0,38,0
		c0.29,0,0.59,0,0.98,0c-0.46-1.09-1.08-1.97-1.76-2.8c-2.91-3.57-6.83-5.43-11.16-6.58c-4.02-1.06-8.13-1.38-12.27-1.41
		c-3.21-0.02-6.42-0.02-9.63-0.01c1.85,0,3.71,0,5.56,0.01c4.14,0.03,8.25,0.34,12.27,1.41c4.33,1.15,8.25,3.01,11.16,6.58
		c0.68,0.83,1.3,1.71,1.76,2.8c-0.39,0-0.68,0-0.98,0c-12.67,0-25.33,0-38,0c-2.3,0-3.38,1.06-3.38,3.36
		c-0.01,2.96-0.01,5.91,0,8.87c0,2.59,1.01,3.58,3.63,3.58c1.35,0,2.7,0,4.04,0C222.34,144.65,221.34,143.65,221.33,141.08z"/>
</g>
<path class="st47" d="M103,290.37c0,0,38.12-28.94,79.06-13.41c40.94,15.53,38.66,19.06,64.15,20.47
	c26.84,1.49,54.54-5.29,80.27,5.74c9.68,4.15,17.44,12.1,22.32,21.34c4.07,7.7,9.64,23.48,4.16,31.66
	c-1.76,2.64-5.07,3.82-8.23,4.12c-19.6,1.83-40.19-0.04-59.89-0.04c-14.74,0-29.48,0-44.21,0"/>
<path class="st0" d="M103,411.78l29.31-10.86c-3.85,0.05-7.68,0.88-11.23,2.52L103,411.78z"/>
<path class="st1" d="M274.53,423.98c-24.68,0-90.54-16.61-127.23-26.74c-8.82-2.43-18.13-2.35-26.9,0.26l-21.28,6.33l2.24,6.12
	c2.72-0.03,28.88-9.79,31.53-9.02c27.38,8.02,111.72,30.82,141.64,30.82c36.71,0,194.12-104.66,196.94-110.31
	c0.63-1.26,0.45-3.84-0.72-6.94C458.84,325.81,310.08,423.98,274.53,423.98z"/>
<path class="st47" d="M103,411.78l18.08-8.34c6.06-2.8,12.92-3.3,19.33-1.43c27.38,8.02,104.2,29.73,134.12,29.73
	c36.71,0,194.12-104.66,196.94-110.31c2.82-5.65-10.59-37.41-55.76-26.12c-45.18,11.29-68.7,26.07-68.7,26.07"/>
<path class="st1" d="M170.42,166.39c0-52.78,41.66-95.81,93.89-98.03c-1.4-0.06-2.82-0.1-4.24-0.1c-54.2,0-98.13,43.93-98.13,98.13
	s43.93,98.13,98.13,98.13c1.42,0,2.83-0.04,4.24-0.1C212.08,262.2,170.42,219.16,170.42,166.39z"/>
<circle class="st47" cx="260.08" cy="166.39" r="98.13"/>
<rect x="28.17" y="263.55" class="st0" width="74.82" height="163.06"/>
<rect x="28.17" y="263.55" class="st47" width="74.82" height="163.06"/>
<rect x="28.17" y="263.55" class="st6" width="8.47" height="163.06"/>
<line class="st49" x1="122.8" y1="99.26" x2="122.8" y2="246.83"/>
<line class="st49" x1="142.37" y1="170.41" x2="142.37" y2="246.83"/>
<line class="st49" x1="391" y1="99.26" x2="391" y2="246.83"/>
<line class="st49" x1="410.57" y1="170.41" x2="410.57" y2="246.83"/>
</svg>
