<svg version="1.2" xmlns="http://www.w3.org/2000/svg" viewBox="0 0 500 500" width="500" height="500"><style>.a{fill:#ffc900}.b{fill:#d8a505}.c{opacity:.6;fill:#e5e5e5}.d{fill:none;stroke:#2b3339;stroke-miterlimit:10;stroke-width:4}.e{fill:#f16333}.f{opacity:.6;fill:#bf3c13}.g{fill:#f05d24}</style><path class="a" d="m361.6 369.6h-210.8c-2.6 0-4.8-2.1-4.8-4.8 0-2.6 2.2-4.7 4.8-4.7h210.8c2.7 0 4.8 2.1 4.8 4.8 0 2.6-2.1 4.7-4.8 4.7z"/><path class="a" d="m361.6 369.6h-210.8c-2.6 0-4.8-2.1-4.8-4.8 0-2.6 2.2-4.7 4.8-4.7h210.8c2.7 0 4.8 2.1 4.8 4.8 0 2.6-2.1 4.7-4.8 4.7z"/><path class="b" d="m359.7 369.6c1.4 0 2.6-0.3 3.7-0.8-1.1-0.5-2.3-0.8-3.7-0.8h-207c-1.3 0-2.6 0.3-3.6 0.8 1 0.5 2.3 0.8 3.6 0.8z"/><path class="a" d="m361.6 389h-210.8c-2.6 0-4.8-2.1-4.8-4.7 0-2.7 2.2-4.8 4.8-4.8h210.8c2.7 0 4.8 2.1 4.8 4.8 0 2.6-2.1 4.7-4.8 4.7z"/><path class="a" d="m361.6 408.4h-210.8c-2.6 0-4.8-2.1-4.8-4.7 0-2.6 2.2-4.8 4.8-4.8h210.8c2.7 0 4.8 2.2 4.8 4.8 0 2.6-2.1 4.7-4.8 4.7z"/><path class="b" d="m359.7 389.3c1.4 0 2.6-0.3 3.7-0.8-1.1-0.5-2.3-0.7-3.7-0.7h-207c-1.3 0-2.6 0.2-3.6 0.7 1 0.5 2.3 0.8 3.6 0.8z"/><path class="b" d="m359.7 408.4c1.4 0 2.6-0.3 3.7-0.7-1.1-0.5-2.3-0.8-3.7-0.8h-207c-1.3 0-2.6 0.3-3.6 0.8 1 0.4 2.3 0.7 3.6 0.7z"/><path class="c" d="m114.8 438.9v-352.6c0-14 15.3-25.4 34.2-25.4h-8.9c-18.9 0-34.2 11.4-34.2 25.4v352.6c0 14 15.4 25.4 34.2 25.4h8.9c-18.9 0-34.2-11.4-34.2-25.4z"/><path fill-rule="evenodd" class="d" d="m132.8 60.9h234.4c16.4 0 29.6 13.2 29.6 29.6v347.6c0 16.3-13.2 29.6-29.6 29.6h-234.4c-16.4 0-29.6-13.3-29.6-29.6v-347.6c0-16.4 13.2-29.6 29.6-29.6z"/><path class="e" d="m302.4 62.4h-7.6c-1.7-7.8-8.5-13.6-16.6-13.6q-0.2 0-0.4 0c-2.4-14.7-14.8-25.8-29.8-25.8-15 0-27.4 11.1-29.7 25.8q-0.2 0-0.5 0c-8.1 0-14.9 5.8-16.5 13.6h-7.6c-10.7 0-19.4 8.7-19.4 19.4h36.6 13.9 10.6 25.3 10.5 14 36.5c0-10.7-8.6-19.4-19.3-19.4z"/><path class="f" d="m193.7 67.4h7.6c1.6-7.8 8.4-13.7 16.5-13.7q0.3 0.1 0.5 0.1c2.3-14.7 14.7-25.8 29.7-25.8 15 0 27.4 11.1 29.8 25.8q0.2 0 0.4-0.1c8.2 0 14.9 5.9 16.6 13.7h7.6c9 0 16.5 6.1 18.7 14.4h0.7c0-10.7-8.7-19.4-19.4-19.4h-7.6c-1.6-7.8-8.4-13.7-16.6-13.7q-0.2 0.1-0.4 0.1c-2.4-14.7-14.8-25.8-29.7-25.8-15 0-27.4 11.1-29.8 25.8q-0.2 0-0.4-0.1c-8.2 0-14.9 5.9-16.6 13.7h-7.6c-10.7 0-19.4 8.7-19.4 19.4h0.7c2.2-8.3 9.7-14.4 18.7-14.4z"/><path class="g" d="m163.7 220.2c6.6-0.4 13.1-1.5 19.1-4.5 6-2.9 10.4-7.4 12.5-14 0.3-0.9 0.2-1-0.7-1q-2.5 0-5 0c0.9 0 1 0.1 0.7 1-2.1 6.6-6.5 11-12.5 14-6 3-12.5 4.1-19.1 4.5q-3.3 0.1-6.5 0.2c3.8 0 7.7 0 11.5-0.2z"/><path class="g" d="m141.9 163.9q0-7.4 0-14.8c0-2.8 1.4-4.1 4.2-4.1q45.7 0 91.4 0-48.2 0-96.4 0c-2.8 0-4.2 1.3-4.2 4.1q0 7.4 0 14.8c0 2.7 1.5 4.1 4.2 4.1q2.5 0 4.9 0c-2.6 0-4.1-1.4-4.1-4.1z"/><path class="g" d="m201.1 308.2c-11.6-14-23.4-27.9-35.4-41.5-7.4-8.4-14.8-16.8-22.5-24.9-0.9-0.9-1.3-1.9-1.3-3.2 0-4.7 0-9.4 0-14.1 0-2.7 1.5-4.1 4.2-4.1q-2.5-0.1-5 0c-2.7 0-4.2 1.4-4.2 4.1 0 4.7 0 9.4 0 14.1 0 1.3 0.4 2.3 1.3 3.2 7.7 8.1 15.1 16.5 22.5 24.9 12 13.7 23.8 27.5 35.4 41.5 0.8 1 1.8 1.6 3.1 1.6q2.5 0 5 0c-1.3 0-2.3-0.6-3.1-1.6z"/><path class="g" d="m232.8 181.3q-4.3 0-8.7 0 0.1 0 0.2 0 4.3 0 8.5 0z"/><path class="g" d="m224.5 200.7q4.3 0 8.5 0-4 0-8-0.1-0.3 0.1-0.5 0.1z"/><path class="g" d="m146.1 168q0 0 0 0 2.6 0 5.1 0-2.6 0-5.1 0z"/><path class="g" d="m146.3 200.7q0.1 0 0.1 0 21.6 0 43.3 0-0.1 0-0.1 0-21.6 0-43.3 0z"/><path class="g" d="m152.2 220.4q-3-0.1-6 0-0.1 0-0.1 0 3 0 6.1 0z"/><path class="g" d="m171.3 240.9c4.5 4.9 8.8 9.6 13 14.4 13.9 15.8 27.3 32 40.6 48.3 1 1.2 1.3 2.4 0.6 3.9-0.7 1.5-1.8 2.2-3.4 2.2q-11.5 0-22.9 0c-1.3 0-2.3-0.5-3.1-1.5-11.6-14-23.4-27.9-35.4-41.6-7.4-8.4-14.8-16.7-22.5-24.8-0.9-0.9-1.3-2-1.3-3.2 0.1-4.7 0-9.4 0-14.1 0.1-2.7 1.5-4.1 4.3-4.2 5.8 0 11.7 0.2 17.5-0.1 6.6-0.4 13.1-1.5 19.1-4.5 6-3 10.5-7.5 12.5-14 0.3-0.9 0.2-1.1-0.7-1.1q-24.1 0.1-48.2 0.1c-3.2 0-4.5-1.3-4.5-4.4q0-5.5 0-10.9c0-2.8 1.4-4.1 4.2-4.1q23.3 0 46.6 0c0.4 0 0.7 0 1.2 0-0.5-1.4-1.3-2.5-2.1-3.5-3.6-4.4-8.4-6.6-13.7-8.1-5-1.3-10-1.6-15.1-1.7-5.6 0-11.2 0-16.9 0-2.7 0-4.2-1.4-4.2-4.2q0-7.3 0-14.7c0-2.8 1.4-4.2 4.2-4.2q48.2 0 96.4 0c2.9 0 4.3 1.4 4.3 4.3q0 5.5 0 11c0 2.8-1.4 4.2-4.2 4.2q-12.7 0-25.5 0-0.5 0-1 0c-0.2 0.2 0 0.4 0.1 0.5 3.4 4.6 5.6 9.8 6.9 15.4 0.1 0.7 0.4 1 1.2 1 6.2-0.1 12.4-0.1 18.6-0.1q4.1 0 4.2 4.1 0 5.6 0 11.2c-0.1 2.8-1.4 4.2-4.2 4.2-6 0-12 0-17.9-0.1-1.1 0-1.4 0.3-1.6 1.4-3.3 17.3-13.8 28.4-29.9 34.8-5.5 2.2-11.2 3.4-17.2 4.1z"/><path class="f" d="m143.5 198.2q0-5.5 0-10.9c0-2.9 1.3-4.2 4.1-4.2q23.4 0 46.7 0c0.3 0 0.7 0 1.2 0-0.6-1.3-1.4-2.4-2.2-3.4-3.6-4.4-8.4-6.7-13.7-8.1-4.9-1.3-10-1.7-15.1-1.7q-5.9 0-11.8 0 3.4 0 6.8 0c5.1 0 10.2 0.4 15.1 1.7 5.3 1.4 10.1 3.7 13.7 8.1 0.8 1 1.6 2.1 2.2 3.4-0.5 0-0.9 0-1.2 0q-23.4 0-46.7 0c-2.8 0-4.1 1.3-4.1 4.2q0 5.4 0 10.9c0 3.1 1.2 4.4 4.4 4.4q2.5 0 5 0c-3.2-0.1-4.4-1.3-4.4-4.4z"/><path fill-rule="evenodd" class="d" d="m171.3 240.9c4.5 4.9 8.8 9.6 13 14.4 13.9 15.8 27.3 32 40.6 48.3 1 1.2 1.3 2.4 0.6 3.9-0.7 1.5-1.8 2.2-3.4 2.2q-11.5 0-22.9 0c-1.3 0-2.3-0.5-3.1-1.5-11.6-14-23.4-27.9-35.4-41.6-7.4-8.4-14.8-16.7-22.5-24.8-0.9-0.9-1.3-2-1.3-3.2 0.1-4.7 0-9.4 0-14.1 0.1-2.7 1.5-4.1 4.3-4.2 5.8 0 11.7 0.2 17.5-0.1 6.6-0.4 13.1-1.5 19.1-4.5 6-3 10.5-7.5 12.5-14 0.3-0.9 0.2-1.1-0.7-1.1q-24.1 0.1-48.2 0.1c-3.2 0-4.5-1.3-4.5-4.4q0-5.5 0-10.9c0-2.8 1.4-4.1 4.2-4.1q23.3 0 46.6 0c0.4 0 0.7 0 1.2 0-0.5-1.4-1.3-2.5-2.1-3.5-3.6-4.4-8.4-6.6-13.7-8.1-5-1.3-10-1.6-15.1-1.7-5.6 0-11.2 0-16.9 0-2.7 0-4.2-1.4-4.2-4.2q0-7.3 0-14.7c0-2.8 1.4-4.2 4.2-4.2q48.2 0 96.4 0c2.9 0 4.3 1.4 4.3 4.3q0 5.5 0 11c0 2.8-1.4 4.2-4.2 4.2q-12.7 0-25.5 0-0.5 0-1 0c-0.2 0.2 0 0.4 0.1 0.5 3.4 4.6 5.6 9.8 6.9 15.4 0.1 0.7 0.4 1 1.2 1 6.2-0.1 12.4-0.1 18.6-0.1q4.1 0 4.2 4.1 0 5.6 0 11.2c-0.1 2.8-1.4 4.2-4.2 4.2-6 0-12 0-17.9-0.1-1.1 0-1.4 0.3-1.6 1.4-3.3 17.3-13.8 28.4-29.9 34.8-5.5 2.2-11.2 3.4-17.2 4.1z"/></svg>