<?xml version="1.0" encoding="utf-8"?>
<!-- Generator: Adobe Illustrator 26.0.1, SVG Export Plug-In . SVG Version: 6.00 Build 0)  -->
<svg version="1.1" id="Layer_1" xmlns="http://www.w3.org/2000/svg" xmlns:xlink="http://www.w3.org/1999/xlink" x="0px" y="0px"
	 width="500px" height="500px" viewBox="0 0 500 500" style="enable-background:new 0 0 500 500;" xml:space="preserve">
<style type="text/css">
	.st0{fill:#F05D24;}
	.st1{opacity:0.6;fill:#E5E5E5;}
	.st2{fill:#17171D;}
	.st3{opacity:0.04;fill:#FFFFFF;}
	.st4{fill:none;stroke:#E5E5E5;stroke-width:3;stroke-miterlimit:10;}
	.st5{fill:#FFFFFF;}
	.st6{opacity:0.6;fill:#BF3C13;}
	.st7{fill:#E5E5E5;}
	.st8{fill-rule:evenodd;clip-rule:evenodd;fill:#F05D24;}
	.st9{fill-rule:evenodd;clip-rule:evenodd;fill:#2B3339;}
	.st10{fill:#2B3339;}
	.st11{fill:none;stroke:#606060;stroke-miterlimit:10;}
	.st12{fill:none;}
	.st13{fill:#EF5C24;}
	.st14{fill:#C33A10;}
	.st15{fill:#EF8925;}
	.st16{fill:#D37118;}
	.st17{fill:#FF7F2C;}
	.st18{fill:#FFC900;}
	.st19{fill:#D8A505;}
	.st20{opacity:0.6;}
	.st21{fill:#F8FAFB;}
	.st22{fill:none;stroke:#2B3339;stroke-width:6;stroke-miterlimit:10;}
	.st23{fill:#F16333;}
	.st24{fill:#1F1F21;}
	.st25{opacity:0.12;fill:#FFFFFF;}
	.st26{fill:#585A5A;}
	.st27{fill:#1A1C20;}
	.st28{opacity:0.11;fill:#C6C6C6;}
	.st29{opacity:0.24;}
	.st30{opacity:0.12;}
	.st31{opacity:0.1;}
	.st32{opacity:0.19;fill:#B6B6B7;}
	.st33{filter:url(#Adobe_OpacityMaskFilter);}
	.st34{mask:url(#SVGID_1_);}
	.st35{fill:url(#SVGID_00000027580447451695758520000002916920131078159283_);}
	.st36{filter:url(#Adobe_OpacityMaskFilter_00000049192183201140333180000012275752325209177006_);}
	.st37{mask:url(#SVGID_00000005968481997253464940000012351901205995457450_);}
	.st38{opacity:0.61;}
	.st39{filter:url(#Adobe_OpacityMaskFilter_00000016787258895132141630000018015242893989418903_);}
	.st40{mask:url(#SVGID_00000085211917632915355260000009442773619453914769_);}
	.st41{fill:#DDDDDD;}
	.st42{fill:url(#SVGID_00000034795517778015608040000002187378435138394013_);}
	.st43{fill:url(#SVGID_00000004543640224338955310000003483585364985874048_);}
	.st44{opacity:0.19;}
	.st45{fill:#B6B6B7;}
	.st46{fill:none;stroke:#2B3339;stroke-width:4;stroke-miterlimit:10;}
	.st47{fill:none;stroke:#2B3339;stroke-width:4;stroke-linecap:round;stroke-miterlimit:10;}
	.st48{fill:none;stroke:#2B3339;stroke-width:3.5681;stroke-miterlimit:10;}
	.st49{fill:none;stroke:#FFC900;stroke-width:4;stroke-linecap:round;stroke-miterlimit:10;}
	.st50{fill:none;stroke:#F05D24;stroke-width:4;stroke-miterlimit:10;}
	.st51{fill:none;stroke:#F05D24;stroke-width:6;stroke-miterlimit:10;}
	.st52{fill:none;stroke:#F05D24;stroke-width:4;stroke-linecap:round;stroke-miterlimit:10;}
	.st53{opacity:0.21;fill:#FFFFFF;}
</style>
<path class="st1" d="M98.78,375.89V125.7c0-18.21,14.76-32.97,32.97-32.97h-9.15c-18.21,0-32.97,14.76-32.97,32.97v250.18
	c0,18.21,14.76,32.97,32.97,32.97h9.15C113.54,408.85,98.78,394.09,98.78,375.89z"/>
<path class="st10" d="M144.96,55.56c0-4.16-3.37-7.53-7.53-7.53s-7.53,3.37-7.53,7.53v37.18h15.06V55.56z"/>
<path class="st10" d="M191.09,55.56c0-4.16-3.37-7.53-7.53-7.53l0,0c-4.16,0-7.53,3.37-7.53,7.53v37.18h15.06V55.56z"/>
<path class="st10" d="M237.21,55.56c0-4.16-3.37-7.53-7.53-7.53s-7.53,3.37-7.53,7.53v37.18h15.06V55.56z"/>
<path class="st10" d="M283.34,55.56c0-4.16-3.37-7.53-7.53-7.53s-7.53,3.37-7.53,7.53v37.18h15.06V55.56z"/>
<path class="st10" d="M329.46,55.56c0-4.16-3.37-7.53-7.53-7.53l0,0c-4.16,0-7.53,3.37-7.53,7.53v37.18h15.06V55.56z"/>
<path class="st10" d="M375.58,92.86v-37.3c0-4.16-3.37-7.53-7.53-7.53s-7.53,3.37-7.53,7.53v37.18h12.26
	C373.73,92.74,374.66,92.78,375.58,92.86z"/>
<path class="st10" d="M360.52,408.85v35.59c0,4.16,3.37,7.53,7.53,7.53s7.53-3.37,7.53-7.53v-35.71c-0.92,0.08-1.85,0.13-2.8,0.13
	H360.52z"/>
<path class="st10" d="M314.4,444.44c0,4.16,3.37,7.53,7.53,7.53l0,0c4.16,0,7.53-3.37,7.53-7.53v-35.59H314.4V444.44z"/>
<path class="st10" d="M268.28,444.44c0,4.16,3.37,7.53,7.53,7.53s7.53-3.37,7.53-7.53v-35.59h-15.06V444.44z"/>
<path class="st10" d="M222.15,444.44c0,4.16,3.37,7.53,7.53,7.53s7.53-3.37,7.53-7.53v-35.59h-15.06V444.44z"/>
<path class="st10" d="M176.03,444.44c0,4.16,3.37,7.53,7.53,7.53l0,0c4.16,0,7.53-3.37,7.53-7.53v-35.59h-15.06V444.44z"/>
<path class="st10" d="M129.9,444.44c0,4.16,3.37,7.53,7.53,7.53s7.53-3.37,7.53-7.53v-35.59H129.9V444.44z"/>
<path class="st10" d="M447.49,143.01c4.16,0,7.53-3.37,7.53-7.53v0c0-4.16-3.37-7.53-7.53-7.53h-41.73v15.06H447.49z"/>
<path class="st10" d="M447.49,189.14c4.16,0,7.53-3.37,7.53-7.53s-3.37-7.53-7.53-7.53h-41.73v15.06H447.49z"/>
<path class="st10" d="M447.49,235.26c4.16,0,7.53-3.37,7.53-7.53s-3.37-7.53-7.53-7.53h-41.73v15.06H447.49z"/>
<path class="st10" d="M447.49,281.39c4.16,0,7.53-3.37,7.53-7.53c0-4.16-3.37-7.53-7.53-7.53h-41.73v15.06H447.49z"/>
<path class="st10" d="M447.49,327.51c4.16,0,7.53-3.37,7.53-7.53l0,0c0-4.16-3.37-7.53-7.53-7.53h-41.73v15.06H447.49z"/>
<path class="st10" d="M447.49,373.63c4.16,0,7.53-3.37,7.53-7.53c0-4.16-3.37-7.53-7.53-7.53h-41.73v15.06H447.49z"/>
<path class="st10" d="M52.51,358.57c-4.16,0-7.53,3.37-7.53,7.53v0c0,4.16,3.37,7.53,7.53,7.53h37.13v-15.06H52.51z"/>
<path class="st10" d="M52.51,312.45c-4.16,0-7.53,3.37-7.53,7.53s3.37,7.53,7.53,7.53h37.13v-15.06H52.51z"/>
<path class="st10" d="M52.51,266.33c-4.16,0-7.53,3.37-7.53,7.53s3.37,7.53,7.53,7.53h37.13v-15.06H52.51z"/>
<path class="st10" d="M52.51,220.2c-4.16,0-7.53,3.37-7.53,7.53c0,4.16,3.37,7.53,7.53,7.53h37.13V220.2H52.51z"/>
<path class="st10" d="M52.51,174.08c-4.16,0-7.53,3.37-7.53,7.53l0,0c0,4.16,3.37,7.53,7.53,7.53h37.13v-15.06H52.51z"/>
<path class="st10" d="M52.51,127.95c-4.16,0-7.53,3.37-7.53,7.53s3.37,7.53,7.53,7.53h37.13v-15.06H52.51z"/>
<circle class="st0" cx="146.84" cy="157.84" r="22.35"/>
<path class="st6" d="M129.76,157.84c0-11.84,9.21-21.52,20.85-22.3c-0.5-0.03-1-0.06-1.5-0.06c-12.35,0-22.35,10.01-22.35,22.35
	c0,12.35,10.01,22.35,22.35,22.35c0.5,0,1-0.02,1.5-0.06C138.97,179.36,129.76,169.68,129.76,157.84z"/>
<circle class="st0" cx="258.34" cy="235.26" r="22.35"/>
<polyline class="st50" points="150.61,157.84 188.61,157.84 202.23,174.08 254.11,174.08 265.67,157.84 405.76,157.84 "/>
<circle class="st0" cx="147.38" cy="294.46" r="22.35"/>
<line class="st50" x1="352.24" y1="294.46" x2="406.3" y2="294.46"/>
<polyline class="st51" points="242.38,310.7 254.66,310.7 266.21,294.46 351.62,294.46 "/>
<polyline class="st50" points="151.16,294.46 189.15,294.46 202.77,310.7 240,310.7 "/>
<polyline class="st50" points="89.64,235.26 127.84,235.26 137.43,250.79 191.09,250.79 199.05,235.26 258.34,235.26 "/>
<circle class="st0" cx="197.66" cy="351.86" r="22.35"/>
<polyline class="st50" points="89.64,367.39 130.41,367.39 138.37,351.86 197.66,351.86 "/>
<path class="st52" d="M376.49,396.81c-1.52,0.35-3.11,0.53-4.73,0.53h-28.48"/>
<path class="st52" d="M392.83,306.38v66.26"/>
<g>
	<polygon class="st18" points="364.26,356.98 352.74,371.8 337.16,361.52 348.68,346.69 	"/>
	<path class="st46" d="M364.26,356.98l-1.9,1.56c-3.07,2.52-5.6,5.62-7.45,9.14l-2.17,4.13l-14.41-11.2l11.52-14.83L364.26,356.98z"
		/>
	<g>
		<path class="st46" d="M427.69,415.96l-2.13,2.74c-4.34,5.59-12.4,6.6-17.98,2.26l-49.08-38.14c-5.59-4.34-6.6-12.4-2.26-17.98
			l2.13-2.74c4.34-5.59,12.4-6.6,17.98-2.26l15.53,12.07l33.55,26.07C431.02,402.32,432.03,410.37,427.69,415.96z"/>
	</g>
	<circle class="st53" cx="298.53" cy="317.78" r="57.34"/>
	<circle class="st46" cx="298.53" cy="317.78" r="57.34"/>
</g>
<path class="st6" d="M275.92,235.26c0,11.84-9.21,21.52-20.85,22.3c0.5,0.03,1,0.06,1.5,0.06c12.35,0,22.35-10.01,22.35-22.35
	c0-12.35-10.01-22.35-22.35-22.35c-0.5,0-1,0.02-1.5,0.06C266.72,213.74,275.92,223.42,275.92,235.26z"/>
<path class="st6" d="M215.6,351.28c0,11.84-9.21,21.52-20.85,22.3c0.5,0.03,1,0.06,1.5,0.06c12.35,0,22.35-10.01,22.35-22.35
	c0-12.35-10.01-22.35-22.35-22.35c-0.5,0-1,0.02-1.5,0.06C206.39,329.76,215.6,339.44,215.6,351.28z"/>
<path class="st6" d="M130.31,294.46c0-11.84,9.21-21.52,20.85-22.3c-0.5-0.03-1-0.06-1.5-0.06c-12.35,0-22.35,10.01-22.35,22.35
	c0,12.35,10.01,22.35,22.35,22.35c0.5,0,1-0.02,1.5-0.06C139.52,315.98,130.31,306.3,130.31,294.46z"/>
<path class="st52" d="M99.7,197.55v-69.88c0-11.64,9.44-21.08,21.08-21.08h28.48"/>
<path class="st47" d="M387.53,405.38c-4.44,2.22-9.44,3.47-14.74,3.47H122.6c-18.21,0-32.97-14.76-32.97-32.97V125.7
	c0-18.21,14.76-32.97,32.97-32.97h250.18c18.21,0,32.97,14.76,32.97,32.97v250.18c0,2.16-0.21,4.28-0.61,6.32"/>
<circle class="st47" cx="146.84" cy="157.84" r="22.35"/>
<circle class="st47" cx="258.34" cy="235.26" r="22.35"/>
<circle class="st47" cx="147.38" cy="294.46" r="22.35"/>
<circle class="st47" cx="197.66" cy="351.86" r="22.35"/>
</svg>
