<?xml version="1.0" encoding="utf-8"?>
<!-- Generator: Adobe Illustrator 26.0.1, SVG Export Plug-In . SVG Version: 6.00 Build 0)  -->
<svg version="1.1" id="Layer_1" xmlns="http://www.w3.org/2000/svg" xmlns:xlink="http://www.w3.org/1999/xlink" x="0px" y="0px"
	 width="500px" height="500px" viewBox="0 0 500 500" style="enable-background:new 0 0 500 500;" xml:space="preserve">
<style type="text/css">
	.st0{fill:#F05D24;}
	.st1{opacity:0.6;fill:#E5E5E5;}
	.st2{fill:#17171D;}
	.st3{opacity:0.04;fill:#FFFFFF;}
	.st4{fill:none;stroke:#E5E5E5;stroke-width:3;stroke-miterlimit:10;}
	.st5{fill:#FFFFFF;}
	.st6{opacity:0.6;fill:#BF3C13;}
	.st7{fill:#E5E5E5;}
	.st8{fill-rule:evenodd;clip-rule:evenodd;fill:#F05D24;}
	.st9{fill-rule:evenodd;clip-rule:evenodd;fill:#2B3339;}
	.st10{fill:#2B3339;}
	.st11{fill:none;stroke:#606060;stroke-miterlimit:10;}
	.st12{fill:none;}
	.st13{fill:#EF5C24;}
	.st14{fill:#C33A10;}
	.st15{fill:#EF8925;}
	.st16{fill:#D37118;}
	.st17{fill:#FF7F2C;}
	.st18{fill:#FFC900;}
	.st19{fill:#D8A505;}
	.st20{opacity:0.6;}
	.st21{fill:#F8FAFB;}
	.st22{fill:none;stroke:#2B3339;stroke-width:6;stroke-miterlimit:10;}
	.st23{fill:#F16333;}
	.st24{fill:#1F1F21;}
	.st25{opacity:0.12;fill:#FFFFFF;}
	.st26{fill:#585A5A;}
	.st27{fill:#1A1C20;}
	.st28{opacity:0.11;fill:#C6C6C6;}
	.st29{opacity:0.24;}
	.st30{opacity:0.12;}
	.st31{opacity:0.1;}
	.st32{opacity:0.19;fill:#B6B6B7;}
	.st33{filter:url(#Adobe_OpacityMaskFilter);}
	.st34{mask:url(#SVGID_1_);}
	.st35{fill:url(#SVGID_00000131366710442329598460000014288118394393494967_);}
	.st36{filter:url(#Adobe_OpacityMaskFilter_00000011003452157396098950000001525265956518700732_);}
	.st37{mask:url(#SVGID_00000161611139342705340880000001729342208023589550_);}
	.st38{opacity:0.61;}
	.st39{filter:url(#Adobe_OpacityMaskFilter_00000116224117297718585860000010133759521146873271_);}
	.st40{mask:url(#SVGID_00000115514909872374868470000009804191751325058688_);}
	.st41{fill:#DDDDDD;}
	.st42{fill:url(#SVGID_00000148621285822678083170000005951381551352623234_);}
	.st43{fill:url(#SVGID_00000125560415811329283990000007370401879165650598_);}
	.st44{opacity:0.19;}
	.st45{fill:#B6B6B7;}
	.st46{fill:none;stroke:#2B3339;stroke-width:4;stroke-miterlimit:10;}
	.st47{fill:none;stroke:#2B3339;stroke-width:4;stroke-linecap:round;stroke-miterlimit:10;}
	.st48{fill:none;stroke:#2B3339;stroke-width:3.5681;stroke-miterlimit:10;}
	.st49{fill:none;stroke:#FFC900;stroke-width:4;stroke-linecap:round;stroke-miterlimit:10;}
	.st50{fill:none;stroke:#F05D24;stroke-width:4;stroke-miterlimit:10;}
	.st51{fill:none;stroke:#F05D24;stroke-width:6;stroke-miterlimit:10;}
	.st52{fill:none;stroke:#F05D24;stroke-width:4;stroke-linecap:round;stroke-miterlimit:10;}
	.st53{opacity:0.21;fill:#FFFFFF;}
</style>
<g>
	<g>
		<path class="st18" d="M316.21,302.36H183.79c-2.62,0-4.75-2.12-4.75-4.75l0,0c0-2.62,2.12-4.75,4.75-4.75h132.42
			c2.62,0,4.75,2.12,4.75,4.75l0,0C320.96,300.24,318.83,302.36,316.21,302.36z"/>
		<path class="st18" d="M316.21,302.36H183.79c-2.62,0-4.75-2.12-4.75-4.75l0,0c0-2.62,2.12-4.75,4.75-4.75h132.42
			c2.62,0,4.75,2.12,4.75,4.75l0,0C320.96,300.24,318.83,302.36,316.21,302.36z"/>
		<path class="st19" d="M316.66,302.36c0.87,0,1.67-0.29,2.34-0.78c-0.67-0.49-1.48-0.78-2.34-0.78H183.34
			c-0.87,0-1.67,0.29-2.34,0.78c0.67,0.49,1.48,0.78,2.34,0.78H316.66z"/>
		<path class="st18" d="M316.21,321.77H183.79c-2.62,0-4.75-2.12-4.75-4.75l0,0c0-2.62,2.12-4.75,4.75-4.75h132.42
			c2.62,0,4.75,2.12,4.75,4.75l0,0C320.96,319.65,318.83,321.77,316.21,321.77z"/>
		<path class="st19" d="M316.66,322.07c0.87,0,1.67-0.29,2.34-0.78c-0.67-0.49-1.48-0.78-2.34-0.78H183.34
			c-0.87,0-1.67,0.29-2.34,0.78c0.67,0.49,1.48,0.78,2.34,0.78H316.66z"/>
	</g>
	<g>
		<path class="st18" d="M316.21,348.03H183.79c-2.62,0-4.75-2.12-4.75-4.75l0,0c0-2.62,2.12-4.75,4.75-4.75h132.42
			c2.62,0,4.75,2.12,4.75,4.75l0,0C320.96,345.9,318.83,348.03,316.21,348.03z"/>
		<path class="st18" d="M316.21,348.03H183.79c-2.62,0-4.75-2.12-4.75-4.75l0,0c0-2.62,2.12-4.75,4.75-4.75h132.42
			c2.62,0,4.75,2.12,4.75,4.75l0,0C320.96,345.9,318.83,348.03,316.21,348.03z"/>
		<path class="st19" d="M316.66,348.03c0.87,0,1.67-0.29,2.34-0.78c-0.67-0.49-1.48-0.78-2.34-0.78H183.34
			c-0.87,0-1.67,0.29-2.34,0.78c0.67,0.49,1.48,0.78,2.34,0.78H316.66z"/>
		<path class="st18" d="M316.21,367.44H183.79c-2.62,0-4.75-2.12-4.75-4.75l0,0c0-2.62,2.12-4.75,4.75-4.75h132.42
			c2.62,0,4.75,2.12,4.75,4.75l0,0C320.96,365.31,318.83,367.44,316.21,367.44z"/>
		<path class="st19" d="M316.66,367.73c0.87,0,1.67-0.29,2.34-0.78c-0.67-0.49-1.48-0.78-2.34-0.78H183.34
			c-0.87,0-1.67,0.29-2.34,0.78c0.67,0.49,1.48,0.78,2.34,0.78H316.66z"/>
	</g>
	<g>
		<path class="st18" d="M316.21,393.69H183.79c-2.62,0-4.75-2.12-4.75-4.75v0c0-2.62,2.12-4.75,4.75-4.75h132.42
			c2.62,0,4.75,2.12,4.75,4.75v0C320.96,391.56,318.83,393.69,316.21,393.69z"/>
		<path class="st18" d="M316.21,393.69H183.79c-2.62,0-4.75-2.12-4.75-4.75v0c0-2.62,2.12-4.75,4.75-4.75h132.42
			c2.62,0,4.75,2.12,4.75,4.75v0C320.96,391.56,318.83,393.69,316.21,393.69z"/>
		<path class="st19" d="M316.66,393.69c0.87,0,1.67-0.29,2.34-0.78c-0.67-0.49-1.48-0.78-2.34-0.78H183.34
			c-0.87,0-1.67,0.29-2.34,0.78c0.67,0.49,1.48,0.78,2.34,0.78H316.66z"/>
		<path class="st18" d="M316.21,413.1H183.79c-2.62,0-4.75-2.12-4.75-4.75l0,0c0-2.62,2.12-4.75,4.75-4.75h132.42
			c2.62,0,4.75,2.12,4.75,4.75l0,0C320.96,410.97,318.83,413.1,316.21,413.1z"/>
		<path class="st19" d="M316.66,413.39c0.87,0,1.67-0.29,2.34-0.78c-0.67-0.49-1.48-0.78-2.34-0.78H183.34
			c-0.87,0-1.67,0.29-2.34,0.78c0.67,0.49,1.48,0.78,2.34,0.78H316.66z"/>
	</g>
	<path class="st47" d="M161.06,370.19H84.23c-11.76,0-21.29-9.53-21.29-21.29V197.45c0-11.76,9.53-21.29,21.29-21.29h331.54
		c11.76,0,21.29,9.53,21.29,21.29V348.9c0,11.76-9.53,21.29-21.29,21.29h-76.83"/>
	<path class="st0" d="M338.94,176.17H161.06V83.62c0-11.14,9.03-20.18,20.18-20.18h137.53c11.14,0,20.18,9.03,20.18,20.18V176.17z"
		/>
	<path class="st6" d="M183.06,176.17h-20.18V83.62c0-11.14,9.03-20.18,20.18-20.18h0V176.17z"/>
	<path class="st48" d="M338.94,176.17H161.06V83.62c0-11.14,9.03-20.18,20.18-20.18h137.53c11.14,0,20.18,9.03,20.18,20.18V176.17z"
		/>
	<path class="st47" d="M321.92,436.55H178.08c-9.4,0-17.02-7.62-17.02-17.02V258.67h177.88v160.86
		C338.94,428.93,331.32,436.55,321.92,436.55z"/>
</g>
<circle class="st47" cx="94.76" cy="202.41" r="9.88"/>
<circle class="st47" cx="121.55" cy="203.86" r="8.44"/>
</svg>
