<?xml version="1.0" encoding="utf-8"?>
<!-- Generator: Adobe Illustrator 26.0.1, SVG Export Plug-In . SVG Version: 6.00 Build 0)  -->
<svg version="1.1" id="Layer_1" xmlns="http://www.w3.org/2000/svg" xmlns:xlink="http://www.w3.org/1999/xlink" x="0px" y="0px"
	 width="500px" height="500px" viewBox="0 0 500 500" style="enable-background:new 0 0 500 500;" xml:space="preserve">
<style type="text/css">
	.st0{fill:#F05D24;}
	.st1{opacity:0.6;fill:#E5E5E5;}
	.st2{fill:#17171D;}
	.st3{opacity:0.04;fill:#FFFFFF;}
	.st4{fill:none;stroke:#E5E5E5;stroke-width:3;stroke-miterlimit:10;}
	.st5{fill:#FFFFFF;}
	.st6{opacity:0.6;fill:#BF3C13;}
	.st7{fill:#E5E5E5;}
	.st8{fill-rule:evenodd;clip-rule:evenodd;fill:#F05D24;}
	.st9{fill-rule:evenodd;clip-rule:evenodd;fill:#2B3339;}
	.st10{fill:#2B3339;}
	.st11{fill:none;stroke:#606060;stroke-miterlimit:10;}
	.st12{fill:none;}
	.st13{fill:#EF5C24;}
	.st14{fill:#C33A10;}
	.st15{fill:#EF8925;}
	.st16{fill:#D37118;}
	.st17{fill:#FF7F2C;}
	.st18{fill:#FFC900;}
	.st19{fill:#D8A505;}
	.st20{opacity:0.6;}
	.st21{fill:#F8FAFB;}
	.st22{fill:none;stroke:#2B3339;stroke-width:6;stroke-miterlimit:10;}
	.st23{fill:#F16333;}
	.st24{fill:#1F1F21;}
	.st25{opacity:0.12;fill:#FFFFFF;}
	.st26{fill:#585A5A;}
	.st27{fill:#1A1C20;}
	.st28{opacity:0.11;fill:#C6C6C6;}
	.st29{opacity:0.24;}
	.st30{opacity:0.12;}
	.st31{opacity:0.1;}
	.st32{opacity:0.19;fill:#B6B6B7;}
	.st33{filter:url(#Adobe_OpacityMaskFilter);}
	.st34{mask:url(#SVGID_1_);}
	.st35{fill:url(#SVGID_00000056399518243767397340000009862913952196226436_);}
	.st36{filter:url(#Adobe_OpacityMaskFilter_00000030457549797949234620000004380054948056042887_);}
	.st37{mask:url(#SVGID_00000132782135262872528560000015232436961531545493_);}
	.st38{opacity:0.61;}
	.st39{filter:url(#Adobe_OpacityMaskFilter_00000114755192415403471950000014650989497494072723_);}
	.st40{mask:url(#SVGID_00000095317667755331434830000013631868218107974578_);}
	.st41{fill:#DDDDDD;}
	.st42{fill:url(#SVGID_00000142154756337495781990000011209536736056950967_);}
	.st43{fill:url(#SVGID_00000042710139545236445470000014523328362061975696_);}
	.st44{opacity:0.19;}
	.st45{fill:#B6B6B7;}
	.st46{fill:none;stroke:#2B3339;stroke-width:4;stroke-miterlimit:10;}
	.st47{fill:none;stroke:#2B3339;stroke-width:4;stroke-linecap:round;stroke-miterlimit:10;}
	.st48{fill:none;stroke:#2B3339;stroke-width:3.5681;stroke-miterlimit:10;}
	.st49{fill:none;stroke:#FFC900;stroke-width:4;stroke-linecap:round;stroke-miterlimit:10;}
	.st50{fill:none;stroke:#F05D24;stroke-width:4;stroke-miterlimit:10;}
	.st51{fill:none;stroke:#F05D24;stroke-width:6;stroke-miterlimit:10;}
	.st52{fill:none;stroke:#F05D24;stroke-width:4;stroke-linecap:round;stroke-miterlimit:10;}
	.st53{opacity:0.21;fill:#FFFFFF;}
</style>
<path class="st1" d="M371.96,194.53H170.29c-4.48,0-8.12-3.63-8.12-8.12v0h203.47L371.96,194.53z"/>
<circle class="st0" cx="149.14" cy="378.92" r="41.77"/>
<circle class="st5" cx="149.14" cy="378.92" r="15.06"/>
<circle class="st46" cx="149.14" cy="378.92" r="15.06"/>
<circle class="st0" cx="397.28" cy="378.92" r="41.77"/>
<path class="st47" d="M57.62,268.41v105.44h35.01c2.56-28.96,26.89-51.67,56.51-51.67c29.63,0,53.95,22.71,56.51,51.67h135.11
	c2.56-28.96,26.89-51.67,56.52-51.67c29.63,0,53.95,22.71,56.51,51.67h24.53v-80.81c0-7.6-5.14-14.24-12.49-16.15l-18.45-4.79
	l-83.31-85.69H164.2"/>
<polygon class="st0" points="436.69,278.01 285.94,278.01 285.94,197.57 355.91,197.57 "/>
<path class="st0" d="M287.42,289.85c0.19-0.2,0.39-0.38,0.6-0.55C287.81,289.47,287.61,289.65,287.42,289.85z"/>
<path class="st0" d="M335.57,289.3c0.21,0.17,0.42,0.35,0.6,0.55C335.99,289.65,335.79,289.47,335.57,289.3z"/>
<path class="st0" d="M336.2,289.88c0.38,0.42,0.71,0.89,0.95,1.41C336.91,290.77,336.59,290.3,336.2,289.88z"/>
<path class="st0" d="M334.09,288.48c0.51,0.19,0.99,0.45,1.41,0.77C335.08,288.93,334.61,288.67,334.09,288.48z"/>
<path class="st0" d="M332.25,288.15L332.25,288.15c0.28,0,0.56,0.03,0.82,0.07C332.8,288.18,332.53,288.15,332.25,288.15z"/>
<path class="st0" d="M337.15,291.3c0.12,0.26,0.22,0.54,0.3,0.82C337.38,291.84,337.28,291.56,337.15,291.3z"/>
<path class="st0" d="M333.22,288.24c0.26,0.05,0.51,0.11,0.75,0.19C333.73,288.35,333.48,288.29,333.22,288.24z"/>
<path class="st0" d="M290.52,288.22c0.27-0.04,0.54-0.07,0.82-0.07C291.07,288.15,290.79,288.18,290.52,288.22z"/>
<path class="st0" d="M288.09,289.25c0.43-0.32,0.9-0.58,1.42-0.77C288.99,288.67,288.51,288.93,288.09,289.25z"/>
<path class="st0" d="M287.39,289.88c-0.73,0.78-1.22,1.78-1.39,2.89c0.03-0.22,0.08-0.43,0.13-0.64
	C286.37,291.27,286.81,290.51,287.39,289.88z"/>
<path class="st0" d="M289.62,288.44c0.24-0.08,0.5-0.15,0.75-0.19C290.12,288.29,289.87,288.35,289.62,288.44z"/>
<path class="st0" d="M285.94,293.55c0-0.23,0.02-0.46,0.05-0.69C285.96,293.09,285.94,293.32,285.94,293.55z"/>
<path class="st0" d="M337.61,292.86c0.03,0.23,0.05,0.46,0.05,0.69c0,2.99-2.42,5.41-5.41,5.41l0,0c2.99,0,5.41-2.42,5.41-5.41
	C337.65,293.32,337.63,293.09,337.61,292.86z"/>
<path class="st0" d="M337.46,292.13c0.06,0.21,0.1,0.42,0.13,0.64C337.56,292.55,337.51,292.34,337.46,292.13z"/>
<path class="st0" d="M285.94,293.56C285.94,293.56,285.94,293.56,285.94,293.56C285.94,293.56,285.94,293.56,285.94,293.56
	c0,2.99,2.42,5.41,5.41,5.41l0,0C288.36,298.97,285.94,296.55,285.94,293.56z"/>
<path class="st0" d="M337.59,292.77c0,0.03,0.01,0.06,0.01,0.1C337.6,292.83,337.6,292.8,337.59,292.77z"/>
<polygon class="st0" points="337.46,292.13 337.46,292.12 337.46,292.12 "/>
<path class="st0" d="M285.99,292.87c0-0.03,0.01-0.07,0.01-0.1C286,292.8,285.99,292.83,285.99,292.87z"/>
<path class="st0" d="M337.65,293.56c0-0.24-0.02-0.47-0.05-0.69c0-0.03-0.01-0.06-0.01-0.1c-0.03-0.22-0.08-0.43-0.13-0.64
	c0,0,0,0,0,0c-0.63,2.29-2.72,3.97-5.21,3.97h-40.9c-2.49,0-4.58-1.68-5.21-3.97c-0.06,0.21-0.1,0.43-0.13,0.64
	c0,0.03-0.01,0.07-0.01,0.1c-0.03,0.22-0.05,0.45-0.05,0.69c0,0,0,0,0,0.01c0,2.99,2.42,5.41,5.41,5.41h40.9
	C335.23,298.97,337.65,296.55,337.65,293.56z"/>
<path class="st6" d="M337.65,293.56c0-0.24-0.02-0.47-0.05-0.69c0-0.03-0.01-0.06-0.01-0.1c-0.03-0.22-0.08-0.43-0.13-0.64
	c0,0,0,0,0,0c-0.63,2.29-2.72,3.97-5.21,3.97h-40.9c-2.49,0-4.58-1.68-5.21-3.97c-0.06,0.21-0.1,0.43-0.13,0.64
	c0,0.03-0.01,0.07-0.01,0.1c-0.03,0.22-0.05,0.45-0.05,0.69c0,0,0,0,0,0.01c0,2.99,2.42,5.41,5.41,5.41h40.9
	C335.23,298.97,337.65,296.55,337.65,293.56z"/>
<path class="st0" d="M289.5,288.48c0.04-0.01,0.08-0.03,0.12-0.04C289.58,288.45,289.54,288.47,289.5,288.48z"/>
<path class="st0" d="M287.39,289.88c0.01-0.01,0.02-0.02,0.03-0.03C287.41,289.86,287.4,289.87,287.39,289.88z"/>
<path class="st0" d="M288.02,289.3c0.02-0.02,0.04-0.03,0.06-0.05C288.07,289.27,288.04,289.28,288.02,289.3z"/>
<polygon class="st0" points="337.46,292.12 337.46,292.12 337.46,292.12 "/>
<path class="st0" d="M336.17,289.85c0.01,0.01,0.02,0.02,0.03,0.03C336.19,289.87,336.18,289.86,336.17,289.85z"/>
<path class="st0" d="M337.15,291.29C337.15,291.29,337.15,291.3,337.15,291.29C337.15,291.3,337.15,291.29,337.15,291.29z"/>
<path class="st0" d="M335.51,289.25c0.02,0.02,0.04,0.03,0.06,0.05C335.55,289.28,335.53,289.27,335.51,289.25z"/>
<path class="st0" d="M333.97,288.44c0.04,0.01,0.08,0.03,0.12,0.05C334.05,288.47,334.01,288.45,333.97,288.44z"/>
<path class="st0" d="M290.38,288.24c0.05-0.01,0.1-0.01,0.15-0.02C290.48,288.23,290.43,288.23,290.38,288.24z"/>
<path class="st0" d="M333.07,288.22c0.05,0.01,0.1,0.01,0.14,0.02C333.17,288.23,333.12,288.23,333.07,288.22z"/>
<path class="st0" d="M291.35,296.09h40.9c2.49,0,4.58-1.68,5.21-3.97c0,0,0,0,0,0c-0.08-0.28-0.18-0.56-0.3-0.82c0,0,0,0,0,0
	c-0.24-0.52-0.56-1-0.95-1.41c-0.01-0.01-0.02-0.02-0.03-0.03c-0.19-0.2-0.39-0.38-0.6-0.55c-0.02-0.02-0.04-0.03-0.06-0.05
	c-0.43-0.32-0.9-0.58-1.41-0.77c-0.04-0.01-0.08-0.03-0.12-0.05c-0.24-0.08-0.5-0.15-0.75-0.19c-0.05-0.01-0.1-0.01-0.14-0.02
	c-0.27-0.04-0.54-0.07-0.82-0.07h-40.9c0,0,0,0,0,0c-0.28,0-0.55,0.03-0.82,0.07c-0.05,0.01-0.1,0.01-0.15,0.02
	c-0.26,0.05-0.51,0.11-0.75,0.19c-0.04,0.01-0.08,0.03-0.12,0.04c-0.51,0.19-0.99,0.45-1.42,0.77c-0.02,0.02-0.04,0.03-0.06,0.05
	c-0.21,0.17-0.42,0.35-0.6,0.55c-0.01,0.01-0.02,0.02-0.03,0.03c-0.58,0.63-1.02,1.39-1.25,2.24
	C286.77,294.41,288.86,296.09,291.35,296.09z"/>
<g>
	<circle class="st48" cx="79.75" cy="186.41" r="73.16"/>
	<circle class="st18" cx="79.75" cy="186.41" r="4.96"/>
	<path class="st18" d="M80.19,139c1.69,16.04,2.23,32.16,2.43,48.28c0,0-0.71-1.72-0.71-1.72l5.86,5.77
		c13.5,13.63,26.89,27.55,38.95,42.49c-14.93-12.06-28.86-25.45-42.49-38.95c-0.33-0.32-6.42-6.54-6.48-6.59
		C77.91,171.83,78.47,155.37,80.19,139L80.19,139z"/>
</g>
<rect x="285.94" y="197.57" class="st6" width="8.22" height="80.44"/>
<path class="st6" d="M114.93,378.92c0-21.79,16.69-39.68,37.99-41.59c-1.25-0.11-2.5-0.18-3.78-0.18
	c-23.07,0-41.77,18.7-41.77,41.77c0,23.07,18.7,41.77,41.77,41.77c1.27,0,2.53-0.07,3.78-0.18
	C131.62,418.61,114.93,400.72,114.93,378.92z"/>
<path class="st6" d="M363.06,378.92c0-21.79,16.69-39.68,37.99-41.59c-1.25-0.11-2.5-0.18-3.78-0.18
	c-23.07,0-41.77,18.7-41.77,41.77c0,23.07,18.7,41.77,41.77,41.77c1.27,0,2.53-0.07,3.78-0.18
	C379.76,418.61,363.06,400.72,363.06,378.92z"/>
<g>
	<circle class="st5" cx="397.28" cy="378.92" r="15.06"/>
	<circle class="st46" cx="397.28" cy="378.92" r="15.06"/>
</g>
<polygon class="st48" points="436.69,278.01 285.94,278.01 285.94,197.57 355.91,197.57 "/>
<circle class="st47" cx="149.14" cy="378.92" r="41.77"/>
<circle class="st47" cx="397.28" cy="378.92" r="41.77"/>
</svg>
