<?xml version="1.0" encoding="utf-8"?>
<!-- Generator: Adobe Illustrator 26.0.1, SVG Export Plug-In . SVG Version: 6.00 Build 0)  -->
<svg version="1.1" id="Layer_1" xmlns="http://www.w3.org/2000/svg" xmlns:xlink="http://www.w3.org/1999/xlink" x="0px" y="0px"
	 width="500px" height="500px" viewBox="0 0 500 500" style="enable-background:new 0 0 500 500;" xml:space="preserve">
<style type="text/css">
	.st0{fill:#F05D24;}
	.st1{opacity:0.6;fill:#E5E5E5;}
	.st2{fill:#17171D;}
	.st3{opacity:0.04;fill:#FFFFFF;}
	.st4{fill:none;stroke:#E5E5E5;stroke-width:3;stroke-miterlimit:10;}
	.st5{fill:#FFFFFF;}
	.st6{opacity:0.6;fill:#BF3C13;}
	.st7{fill:#E5E5E5;}
	.st8{fill-rule:evenodd;clip-rule:evenodd;fill:#F05D24;}
	.st9{fill-rule:evenodd;clip-rule:evenodd;fill:#2B3339;}
	.st10{fill:#2B3339;}
	.st11{fill:none;stroke:#606060;stroke-miterlimit:10;}
	.st12{fill:none;}
	.st13{fill:#EF5C24;}
	.st14{fill:#C33A10;}
	.st15{fill:#EF8925;}
	.st16{fill:#D37118;}
	.st17{fill:#FF7F2C;}
	.st18{fill:#FFC900;}
	.st19{fill:#D8A505;}
	.st20{opacity:0.6;}
	.st21{fill:#F8FAFB;}
	.st22{fill:none;stroke:#2B3339;stroke-width:6;stroke-miterlimit:10;}
	.st23{fill:#F16333;}
	.st24{fill:#1F1F21;}
	.st25{opacity:0.12;fill:#FFFFFF;}
	.st26{fill:#585A5A;}
	.st27{fill:#1A1C20;}
	.st28{opacity:0.11;fill:#C6C6C6;}
	.st29{opacity:0.24;}
	.st30{opacity:0.12;}
	.st31{opacity:0.1;}
	.st32{opacity:0.19;fill:#B6B6B7;}
	.st33{filter:url(#Adobe_OpacityMaskFilter);}
	.st34{mask:url(#SVGID_1_);}
	.st35{fill:url(#SVGID_00000070835359278456240470000017776307792134364809_);}
	.st36{filter:url(#Adobe_OpacityMaskFilter_00000103243772486075553440000016327654140965290423_);}
	.st37{mask:url(#SVGID_00000114761480205973054520000012225158788568294058_);}
	.st38{opacity:0.61;}
	.st39{filter:url(#Adobe_OpacityMaskFilter_00000098913333983099768830000001693599938521165725_);}
	.st40{mask:url(#SVGID_00000013172445419569339590000015793704269103605124_);}
	.st41{fill:#DDDDDD;}
	.st42{fill:url(#SVGID_00000140701181538741964430000001178953729499438496_);}
	.st43{fill:url(#SVGID_00000167368375780614994210000009336425491238014612_);}
	.st44{opacity:0.19;}
	.st45{fill:#B6B6B7;}
	.st46{fill:none;stroke:#2B3339;stroke-width:4;stroke-miterlimit:10;}
	.st47{fill:none;stroke:#2B3339;stroke-width:4;stroke-linecap:round;stroke-miterlimit:10;}
	.st48{fill:none;stroke:#2B3339;stroke-width:3.5681;stroke-miterlimit:10;}
	.st49{fill:none;stroke:#FFC900;stroke-width:4;stroke-linecap:round;stroke-miterlimit:10;}
	.st50{fill:none;stroke:#F05D24;stroke-width:4;stroke-miterlimit:10;}
	.st51{fill:none;stroke:#F05D24;stroke-width:6;stroke-miterlimit:10;}
	.st52{fill:none;stroke:#F05D24;stroke-width:4;stroke-linecap:round;stroke-miterlimit:10;}
	.st53{opacity:0.21;fill:#FFFFFF;}
</style>
<g>
	<g>
		<path class="st1" d="M119.01,389.2V68.66c0-12.76,10.34-23.1,23.1-23.1h-6c-12.76,0-23.1,10.34-23.1,23.1V389.2
			c0,12.76,10.34,23.1,23.1,23.1h6C129.36,412.3,119.01,401.96,119.01,389.2z"/>
		<path class="st0" d="M123.33,86.46V371.3h138.91c-1.45-3.99-1.01-8.79-1.4-12.9c-0.35-3.79,5.55-3.75,5.91,0
			c0.14,1.54,0.06,3.42,0.09,5.31c0.44-0.31,0.99-0.5,1.66-0.5c1.1,0,1.87,0.5,2.34,1.2c-0.47-1-0.95-1.99-1.4-2.99
			c-2.65-5.8-4.72-11.83-7.13-17.73c-4.95-12.11-10.94-24-14.99-36.45c-0.76-2.34-2.89-4.35-1.96-6.59
			c-4.48-7.65-8.12-16.35-8.27-25.07c0-0.2,0.01-0.4,0.04-0.58c-0.7-0.65-1.12-1.61-0.87-2.79c0.88-4.32,4.41-12.08,10.04-8.86
			c2.35,1.34,4.02,4.46,3.52,7.16c3.79,2.7,5.49,8.09,7.5,11.99c3.99,7.75,8.33,15.27,12.21,23.09c1.7,3.42,3.4,7.13,5.78,10.15
			c2.98,3.78,5.72,1.94,9.61,1.12c4.38-0.92,9.77-1.07,11.18,4.07c0.01,0.03,0.01,0.06,0.02,0.09c0.94-0.45,2.07-0.69,3.46-0.63
			c0.6,0.02,1.1,0.19,1.52,0.47V86.46H123.33z"/>
		<path class="st0" d="M270.28,368.53c0.04,0.12,0.09,0.24,0.12,0.38c0.19,0.87,0.28,1.65,0.25,2.39h3.45
			c-0.96-2.04-1.94-4.07-2.9-6.1C271.56,366.37,271.25,367.76,270.28,368.53z"/>
		<rect x="123.33" y="86.46" class="st6" width="6.7" height="284.84"/>
		<path class="st0" d="M225.71,398.08H198.7c-4.25,0-7.69-3.44-7.69-7.69l0,0c0-4.25,3.44-7.69,7.69-7.69h27.01
			c4.25,0,7.69,3.44,7.69,7.69l0,0C233.4,394.63,229.96,398.08,225.71,398.08z"/>
		<path class="st6" d="M198.7,384.69h27.01c3.91,0,7.13,2.92,7.62,6.69c0.04-0.33,0.07-0.66,0.07-1c0-4.25-3.44-7.69-7.69-7.69
			H198.7c-4.25,0-7.69,3.44-7.69,7.69c0,0.34,0.03,0.67,0.07,1C191.58,387.61,194.8,384.69,198.7,384.69z"/>
		<path class="st0" d="M230.43,65.64h-36.44c-1.64,0-2.97-1.33-2.97-2.97v0c0-1.64,1.33-2.97,2.97-2.97h36.44
			c1.64,0,2.97,1.33,2.97,2.97v0C233.4,64.31,232.07,65.64,230.43,65.64z"/>
		<path class="st6" d="M193.99,60.69h36.44c1.47,0,2.69,1.07,2.92,2.47c0.03-0.16,0.05-0.33,0.05-0.5c0-1.64-1.33-2.97-2.97-2.97
			h-36.44c-1.64,0-2.97,1.33-2.97,2.97c0,0.17,0.02,0.34,0.05,0.5C191.3,61.76,192.51,60.69,193.99,60.69z"/>
		<circle class="st18" cx="158.78" cy="62.59" r="2.68"/>
		<path class="st19" d="M156.8,62.66c0-1.45,1.15-2.63,2.59-2.67c-0.2-0.05-0.4-0.08-0.62-0.08c-1.48,0-2.68,1.2-2.68,2.68
			s1.2,2.68,2.68,2.68c0.03,0,0.06-0.01,0.09-0.01C157.68,64.99,156.8,63.93,156.8,62.66z"/>
		<path class="st46" d="M293.03,412.3H136.12c-12.76,0-23.1-10.34-23.1-23.1V68.66c0-12.76,10.34-23.1,23.1-23.1H288.3
			c12.76,0,23.1,10.34,23.1,23.1v247.05"/>
		<path class="st46" d="M301.08,320.85V86.46H123.33V371.3h138.91"/>
	</g>
	<g>
		<g>
			<g>
				<path class="st46" d="M281.25,391.81c-4.08-9.13-8.17-18.27-12.26-27.4c-3.81-8.53-7.39-17.08-10.79-25.71l-0.04-0.07
					c0,0,5.85,36.42,6.65,40.5c1.97,10.11,12.49,17.86,19.26,24.67c1.29,1.31,20.38,19.26,20.38,19.26l0,0
					c-1.27-1.34-2.59-2.88-4.1-4.74C293.61,409.98,285.7,401.75,281.25,391.81z"/>
				<path class="st46" d="M371.01,399.88c-8.71-9.57-1.13-30.84-6.59-42.33c-3.97-8.35-10.8-31.04-20.98-33.3
					c-4.74-1.05-7.78,1.73-12.05-2.57c-4.79-4.83-8,0.43-12.82-0.93c-4.62-1.31-6.42-8.38-12.19-3.88
					c-3.48,1.64-5.72,4.69-9.98,2.07c-3.69-2.27-6.56-5.89-11.19-2.54c-2.88,1.18-4.44,4.13-8.09,2.5
					c-3.3-1.46-5.13-7.25-6.65-10.22c-6.16-12.04-12.33-24.09-18.49-36.13c-1.75-3.42-3.74-9.34-7.05-11.11
					c-11.11-5.94-9.71,13.35-7.87,18.57c4.06,11.56,8.12,23.11,12.19,34.67c2.85,8.11,5.83,16.1,8.96,24.02
					c3.4,8.63,6.98,17.17,10.79,25.71c4.08,9.13,8.17,18.27,12.26,27.4c4.45,9.94,12.36,18.17,19.1,26.51
					c1.51,1.87,2.84,3.41,4.1,4.74c3.92,4.14,7.23,6.33,13.41,10.13c7.39,4.55,20.5,21.25,20.5,21.25l48.62-28.9
					C386.99,425.54,374.48,403.69,371.01,399.88z"/>
			</g>
			<g>
				<path class="st46" d="M237.76,263.86c0,0,1.9,7.03,4.41,7.41c2.52,0.39,8.19-2.2,8.17-2.24c-1.51-2.81-2.76-6.5-5.4-7.69
					c-0.51-0.23-0.99-0.4-1.45-0.55C241.33,261.21,238.75,262.08,237.76,263.86z"/>
			</g>
		</g>
	</g>
	<g>
		<path class="st47" d="M195.4,278.34c-7.2-23.93,7.27-49.44,32.33-56.98s51.2,5.75,58.4,29.68"/>
		<path class="st47" d="M211.86,273.39c-4.59-15.25,4.64-31.5,20.6-36.31s32.62,3.67,37.21,18.92"/>
		<path class="st47" d="M225.32,269.34c-2.45-8.15,2.48-16.83,11.01-19.4s17.43,1.96,19.88,10.11"/>
	</g>
</g>
</svg>
