<?xml version="1.0" encoding="utf-8"?>
<!-- Generator: Adobe Illustrator 26.0.1, SVG Export Plug-In . SVG Version: 6.00 Build 0)  -->
<svg version="1.1" id="Layer_1" xmlns="http://www.w3.org/2000/svg" xmlns:xlink="http://www.w3.org/1999/xlink" x="0px" y="0px"
	 width="500px" height="500px" viewBox="0 0 500 500" style="enable-background:new 0 0 500 500;" xml:space="preserve">
<style type="text/css">
	.st0{fill:#F05D24;}
	.st1{opacity:0.6;fill:#E5E5E5;}
	.st2{fill:#17171D;}
	.st3{opacity:0.04;fill:#FFFFFF;}
	.st4{fill:none;stroke:#E5E5E5;stroke-width:3;stroke-miterlimit:10;}
	.st5{fill:#FFFFFF;}
	.st6{opacity:0.6;fill:#BF3C13;}
	.st7{fill:#E5E5E5;}
	.st8{fill-rule:evenodd;clip-rule:evenodd;fill:#F05D24;}
	.st9{fill-rule:evenodd;clip-rule:evenodd;fill:#2B3339;}
	.st10{fill:#2B3339;}
	.st11{fill:none;stroke:#606060;stroke-miterlimit:10;}
	.st12{fill:none;}
	.st13{fill:#EF5C24;}
	.st14{fill:#C33A10;}
	.st15{fill:#EF8925;}
	.st16{fill:#D37118;}
	.st17{fill:#FF7F2C;}
	.st18{fill:#FFC900;}
	.st19{fill:#D8A505;}
	.st20{opacity:0.6;}
	.st21{fill:#F8FAFB;}
	.st22{fill:none;stroke:#2B3339;stroke-width:6;stroke-miterlimit:10;}
	.st23{fill:#F16333;}
	.st24{fill:#1F1F21;}
	.st25{opacity:0.12;fill:#FFFFFF;}
	.st26{fill:#585A5A;}
	.st27{fill:#1A1C20;}
	.st28{opacity:0.11;fill:#C6C6C6;}
	.st29{opacity:0.24;}
	.st30{opacity:0.12;}
	.st31{opacity:0.1;}
	.st32{opacity:0.19;fill:#B6B6B7;}
	.st33{filter:url(#Adobe_OpacityMaskFilter);}
	.st34{mask:url(#SVGID_1_);}
	.st35{fill:url(#SVGID_00000054960568860720278340000011867995235470436227_);}
	.st36{filter:url(#Adobe_OpacityMaskFilter_00000052062653467121983760000004587407459708851598_);}
	.st37{mask:url(#SVGID_00000135649113064351227190000002309154160827624097_);}
	.st38{opacity:0.61;}
	.st39{filter:url(#Adobe_OpacityMaskFilter_00000138570388832329847580000006688855409950158248_);}
	.st40{mask:url(#SVGID_00000039091817640389824890000013420368682120523688_);}
	.st41{fill:#DDDDDD;}
	.st42{fill:url(#SVGID_00000094602697373268335500000000771958791254129035_);}
	.st43{fill:url(#SVGID_00000005945851323734320190000005717511789286457500_);}
	.st44{opacity:0.19;}
	.st45{fill:#B6B6B7;}
	.st46{fill:none;stroke:#2B3339;stroke-width:4;stroke-miterlimit:10;}
	.st47{fill:none;stroke:#2B3339;stroke-width:4;stroke-linecap:round;stroke-miterlimit:10;}
	.st48{fill:none;stroke:#2B3339;stroke-width:3.5681;stroke-miterlimit:10;}
	.st49{fill:none;stroke:#FFC900;stroke-width:4;stroke-linecap:round;stroke-miterlimit:10;}
	.st50{fill:none;stroke:#F05D24;stroke-width:4;stroke-miterlimit:10;}
	.st51{fill:none;stroke:#F05D24;stroke-width:6;stroke-miterlimit:10;}
	.st52{fill:none;stroke:#F05D24;stroke-width:4;stroke-linecap:round;stroke-miterlimit:10;}
	.st53{opacity:0.21;fill:#FFFFFF;}
</style>
<circle class="st0" cx="250" cy="250" r="88.96"/>
<circle class="st5" cx="250" cy="244.64" r="32.07"/>
<circle class="st46" cx="250" cy="244.64" r="32.07"/>
<path class="st6" d="M177.13,250c0-46.42,35.56-84.51,80.91-88.58c-2.65-0.24-5.33-0.38-8.05-0.38c-49.13,0-88.96,39.83-88.96,88.96
	c0,49.13,39.83,88.96,88.96,88.96c2.71,0,5.39-0.14,8.05-0.38C212.69,334.51,177.13,296.42,177.13,250z"/>
<circle class="st47" cx="250" cy="250" r="88.96"/>
<path class="st47" d="M363.58,158.04c18.34,24.02,29.24,54.04,29.24,86.6c0,34.51-12.24,66.16-32.61,90.85"/>
<path class="st47" d="M135.62,330.18c-17.86-23.84-28.44-53.46-28.44-85.54c0-31.57,10.25-60.75,27.59-84.4"/>
<path class="st47" d="M391.35,94.8c39.8,37.56,64.64,90.8,64.64,149.84c0,64.91-30.02,122.81-76.94,160.56"/>
<path class="st47" d="M117.26,402.16c-44.79-37.79-73.25-94.33-73.25-157.52c0-51.43,18.85-98.46,50.01-134.55"/>
<g>
	<line class="st49" x1="250" y1="320.89" x2="250" y2="357.03"/>
	<line class="st49" x1="250" y1="142.97" x2="250" y2="179.11"/>
</g>
</svg>
