<?xml version="1.0" encoding="utf-8"?>
<!-- Generator: Adobe Illustrator 26.0.1, SVG Export Plug-In . SVG Version: 6.00 Build 0)  -->
<svg version="1.1" id="Layer_1" xmlns="http://www.w3.org/2000/svg" xmlns:xlink="http://www.w3.org/1999/xlink" x="0px" y="0px"
	 width="500px" height="500px" viewBox="0 0 500 500" style="enable-background:new 0 0 500 500;" xml:space="preserve">
<style type="text/css">
	.st0{fill:#F05D24;}
	.st1{opacity:0.6;fill:#E5E5E5;}
	.st2{fill:#17171D;}
	.st3{opacity:0.04;fill:#FFFFFF;}
	.st4{fill:none;stroke:#E5E5E5;stroke-width:3;stroke-miterlimit:10;}
	.st5{fill:#FFFFFF;}
	.st6{opacity:0.6;fill:#BF3C13;}
	.st7{fill:#E5E5E5;}
	.st8{fill-rule:evenodd;clip-rule:evenodd;fill:#F05D24;}
	.st9{fill-rule:evenodd;clip-rule:evenodd;fill:#2B3339;}
	.st10{fill:#2B3339;}
	.st11{fill:none;stroke:#606060;stroke-miterlimit:10;}
	.st12{fill:none;}
	.st13{fill:#EF5C24;}
	.st14{fill:#C33A10;}
	.st15{fill:#EF8925;}
	.st16{fill:#D37118;}
	.st17{fill:#FF7F2C;}
	.st18{fill:#FFC900;}
	.st19{fill:#D8A505;}
	.st20{opacity:0.6;}
	.st21{fill:#F8FAFB;}
	.st22{fill:none;stroke:#2B3339;stroke-width:6;stroke-miterlimit:10;}
	.st23{fill:#F16333;}
	.st24{fill:#1F1F21;}
	.st25{opacity:0.12;fill:#FFFFFF;}
	.st26{fill:#585A5A;}
	.st27{fill:#1A1C20;}
	.st28{opacity:0.11;fill:#C6C6C6;}
	.st29{opacity:0.24;}
	.st30{opacity:0.12;}
	.st31{opacity:0.1;}
	.st32{opacity:0.19;fill:#B6B6B7;}
	.st33{filter:url(#Adobe_OpacityMaskFilter);}
	.st34{mask:url(#SVGID_1_);}
	.st35{fill:url(#SVGID_00000172417037172192588120000014073327731487092668_);}
	.st36{filter:url(#Adobe_OpacityMaskFilter_00000080184440407806067750000008548876135785257607_);}
	.st37{mask:url(#SVGID_00000030470554877439282580000008168144032751706004_);}
	.st38{opacity:0.61;}
	.st39{filter:url(#Adobe_OpacityMaskFilter_00000076604196685023833340000013193901893718157447_);}
	.st40{mask:url(#SVGID_00000066482775176551706760000006553284175060761788_);}
	.st41{fill:#DDDDDD;}
	.st42{fill:url(#SVGID_00000046315001756153218060000011693030005974545290_);}
	.st43{fill:url(#SVGID_00000016758844913310566490000016674686101036148149_);}
	.st44{opacity:0.19;}
	.st45{fill:#B6B6B7;}
	.st46{fill:none;stroke:#2B3339;stroke-width:4;stroke-miterlimit:10;}
	.st47{fill:none;stroke:#2B3339;stroke-width:4;stroke-linecap:round;stroke-miterlimit:10;}
	.st48{fill:none;stroke:#2B3339;stroke-width:3.5681;stroke-miterlimit:10;}
	.st49{fill:none;stroke:#FFC900;stroke-width:4;stroke-linecap:round;stroke-miterlimit:10;}
	.st50{fill:none;stroke:#F05D24;stroke-width:4;stroke-miterlimit:10;}
	.st51{fill:none;stroke:#F05D24;stroke-width:6;stroke-miterlimit:10;}
	.st52{fill:none;stroke:#F05D24;stroke-width:4;stroke-linecap:round;stroke-miterlimit:10;}
	.st53{opacity:0.21;fill:#FFFFFF;}
</style>
<g>
	<polygon class="st1" points="143.24,323.2 131.46,316.21 131.46,183.35 140.99,176.24 	"/>
	<rect x="43.42" y="183.79" class="st0" width="86.38" height="132.86"/>
	<g>
		<path class="st47" d="M312.79,106.21c79.41,0,143.79,64.38,143.79,143.79S392.2,393.79,312.79,393.79"/>
		<path class="st47" d="M320.1,137.66c53.35,9.58,93.83,56.23,93.83,112.34c0,54.58-38.31,100.21-89.51,111.48"/>
		<path class="st47" d="M325.53,172.94c29.34,13.25,51.77,42.77,51.77,77.06c0,31.28-18.99,58.59-44.25,73.2"/>
	</g>
	<rect x="43.42" y="183.35" class="st6" width="9.53" height="132.86"/>
	<polygon class="st46" points="277.42,250 277.42,183.53 277.42,183.53 277.42,85.66 130.01,183.53 129.8,183.53 129.8,183.67 
		129.8,183.67 129.8,250 129.8,316.33 129.8,316.33 129.8,316.47 130.01,316.47 277.42,414.34 277.42,316.47 277.42,316.47 	"/>
	<rect x="43.42" y="183.79" class="st46" width="86.38" height="132.86"/>
	<path class="st46" d="M43.42,282.08h-4.75c-12.68,0-22.97-10.28-22.97-22.97v-18.22c0-12.68,10.28-22.97,22.97-22.97h4.75V282.08z"
		/>
</g>
</svg>
