<?xml version="1.0" encoding="utf-8"?>
<!-- Generator: Adobe Illustrator 26.0.1, SVG Export Plug-In . SVG Version: 6.00 Build 0)  -->
<svg version="1.1" id="Layer_1" xmlns="http://www.w3.org/2000/svg" xmlns:xlink="http://www.w3.org/1999/xlink" x="0px" y="0px"
	 width="500px" height="500px" viewBox="0 0 500 500" style="enable-background:new 0 0 500 500;" xml:space="preserve">
<style type="text/css">
	.st0{opacity:0.43;}
	.st1{filter:url(#Adobe_OpacityMaskFilter);}
	.st2{mask:url(#SVGID_1_);}
	.st3{filter:url(#Adobe_OpacityMaskFilter_00000159428308096126116730000002467176380935486859_);}
	.st4{filter:url(#Adobe_OpacityMaskFilter_00000008857722263434339800000014896601231651623047_);}
	.st5{filter:url(#Adobe_OpacityMaskFilter_00000125565689679992779530000000490251293644339120_);}
	.st6{fill:#2B3339;}
	.st7{filter:url(#Adobe_OpacityMaskFilter_00000152983990888334503350000006390773939036414092_);}
	.st8{mask:url(#SVGID_00000099649437987562437280000014379808381829289878_);}
	.st9{filter:url(#Adobe_OpacityMaskFilter_00000063604501404555885170000013156452679894050712_);}
	.st10{filter:url(#Adobe_OpacityMaskFilter_00000103262082520893710280000001817449740682952578_);}
	.st11{filter:url(#Adobe_OpacityMaskFilter_00000073719564892735642310000013999759273424809136_);}
	.st12{filter:url(#Adobe_OpacityMaskFilter_00000168098629580132147680000002151769684206315399_);}
	.st13{mask:url(#SVGID_00000151537161874400948290000005755773543866022319_);}
	.st14{filter:url(#Adobe_OpacityMaskFilter_00000031201712292896584430000001702051812168788412_);}
	.st15{filter:url(#Adobe_OpacityMaskFilter_00000093167999756961955010000005534736460019899532_);}
	.st16{filter:url(#Adobe_OpacityMaskFilter_00000171696379154934246830000000045174503931044020_);}
	.st17{filter:url(#Adobe_OpacityMaskFilter_00000168811901062545448050000009291373786947145378_);}
	.st18{mask:url(#SVGID_00000067937034505480412580000002166397023384421815_);}
	.st19{filter:url(#Adobe_OpacityMaskFilter_00000182512425952167212210000002153688556185528987_);}
	.st20{filter:url(#Adobe_OpacityMaskFilter_00000074439296183465369040000012115590335204240000_);}
	.st21{filter:url(#Adobe_OpacityMaskFilter_00000161634142247072532620000008829431307281986456_);}
	.st22{filter:url(#Adobe_OpacityMaskFilter_00000176755105987713546230000007584338567391849857_);}
	.st23{mask:url(#SVGID_00000030473430637377487620000013499281525562978468_);}
	.st24{filter:url(#Adobe_OpacityMaskFilter_00000053513409396479092870000004499119115544686981_);}
	.st25{filter:url(#Adobe_OpacityMaskFilter_00000137854587544447381680000006622970347183888027_);}
	.st26{filter:url(#Adobe_OpacityMaskFilter_00000129205871857096296540000003781660838050953601_);}
	.st27{fill:#F05D24;}
	.st28{opacity:0.6;fill:#E5E5E5;}
	.st29{fill-rule:evenodd;clip-rule:evenodd;fill:#F05D24;}
	.st30{fill-rule:evenodd;clip-rule:evenodd;fill:#2B3339;}
	.st31{fill:none;stroke:#606060;stroke-miterlimit:10;}
	.st32{fill:none;}
	.st33{fill:#EF5C24;}
	.st34{fill:#C33A10;}
	.st35{fill:#EF8925;}
	.st36{fill:#D37118;}
	.st37{fill:#FFC900;}
	.st38{opacity:0.6;fill:#BF3C13;}
	.st39{fill:#D8A505;}
	.st40{opacity:0.51;fill:none;stroke:#A4A4A5;stroke-width:4;stroke-miterlimit:10;}
	.st41{fill:#FFFFFF;}
	.st42{fill:#E5E5E5;}
	.st43{opacity:0.6;}
	.st44{opacity:0.51;fill:#E5E5E5;}
	.st45{fill:none;stroke:#2B3339;stroke-width:6;stroke-miterlimit:10;}
	.st46{fill:#F16333;}
	.st47{fill:#1F1F21;}
	.st48{opacity:0.12;fill:#FFFFFF;}
	.st49{fill:#585A5A;}
	.st50{fill:#1A1C20;}
	.st51{opacity:0.11;fill:#C6C6C6;}
	.st52{opacity:0.24;}
	.st53{opacity:0.12;}
	.st54{opacity:0.1;}
	.st55{opacity:0.19;fill:#B6B6B7;}
	.st56{filter:url(#Adobe_OpacityMaskFilter_00000181056320069047420270000018405127057748607664_);}
	.st57{mask:url(#SVGID_00000181086218095248176280000000117659254154993849_);}
	.st58{filter:url(#Adobe_OpacityMaskFilter_00000163048946253686487060000001593850154752966303_);}
	.st59{mask:url(#SVGID_00000173125955043415202010000000704783603337687192_);}
	.st60{opacity:0.61;}
	.st61{filter:url(#Adobe_OpacityMaskFilter_00000143593822573438137560000013688859134405081276_);}
	.st62{mask:url(#SVGID_00000005985660454039374580000009004631458389331369_);}
	.st63{fill:#DDDDDD;}
	.st64{fill:url(#SVGID_00000053547531933736049900000017861480168433953670_);}
	.st65{fill:url(#SVGID_00000155105579977246071720000009615588836320682668_);}
	.st66{opacity:0.19;}
	.st67{fill:#B6B6B7;}
	.st68{fill:none;stroke:#2B3339;stroke-width:4;stroke-miterlimit:10;}
	.st69{fill:none;stroke:#2B3339;stroke-width:4;stroke-linecap:round;stroke-miterlimit:10;}
	.st70{fill:none;stroke:#2B3339;stroke-width:3.5681;stroke-miterlimit:10;}
	.st71{fill:none;stroke:#FFC900;stroke-width:4;stroke-linecap:round;stroke-miterlimit:10;}
	.st72{fill:none;stroke:#F05D24;stroke-width:4;stroke-miterlimit:10;}
	.st73{fill:none;stroke:#F05D24;stroke-width:6;stroke-miterlimit:10;}
	.st74{fill:none;stroke:#F05D24;stroke-width:4;stroke-linecap:round;stroke-miterlimit:10;}
	.st75{opacity:0.21;fill:#FFFFFF;}
	.st76{opacity:0.51;fill:#A4A4A5;}
	.st77{fill:none;stroke:#2B3339;stroke-width:3;stroke-miterlimit:10;}
	.st78{fill:#FF7F2C;}
	.st79{filter:url(#Adobe_OpacityMaskFilter_00000011722407908559978680000009640830625695705220_);}
	.st80{mask:url(#SVGID_00000115485920914308771370000010076445816866101936_);}
	.st81{filter:url(#Adobe_OpacityMaskFilter_00000148624761116423542250000000323603315179247290_);}
	.st82{filter:url(#Adobe_OpacityMaskFilter_00000110445394720549105130000012223116272440185499_);}
	.st83{filter:url(#Adobe_OpacityMaskFilter_00000048466232260646481630000004465425665523680431_);}
	.st84{fill:#F8FAFB;}
</style>
<g>
	<path class="st27" d="M308,278.5c0-30.74-23.92-55.88-54.17-57.86c-31.08,1.08-55.95,26.6-55.95,57.95
		c0,30.74,23.92,55.88,54.17,57.86C283.13,335.37,308,309.85,308,278.5z"/>
	<path class="st27" d="M197.88,278.59c0-31.35,24.87-56.87,55.95-57.95c-1.27-0.08-2.54-0.14-3.83-0.14c-32.03,0-58,25.97-58,58
		s25.97,58,58,58c0.69,0,1.37-0.03,2.05-0.05C221.81,334.47,197.88,309.33,197.88,278.59z"/>
	<path class="st38" d="M197.88,278.59c0-31.35,24.87-56.87,55.95-57.95c-1.27-0.08-2.54-0.14-3.83-0.14c-32.03,0-58,25.97-58,58
		s25.97,58,58,58c0.69,0,1.37-0.03,2.05-0.05C221.81,334.47,197.88,309.33,197.88,278.59z"/>
	<path class="st69" d="M411.85,397H88.15C74.81,397,64,386.19,64,372.85V184.15C64,170.81,74.81,160,88.15,160h323.71
		c13.34,0,24.15,10.81,24.15,24.15v188.71C436,386.19,425.19,397,411.85,397z"/>
	<path class="st27" d="M204.87,103h-2c-6.58,0-12.84,2.87-17.13,7.86L143.5,160h2l42.24-49.14C192.03,105.87,198.29,103,204.87,103z
		"/>
	<path class="st27" d="M314.26,110.86c-4.29-4.99-10.55-7.86-17.13-7.86h-84.26c-6.58,0-12.84,2.87-17.13,7.86L153.5,160h203
		L314.26,110.86z M313,152H187v-4.41c0-15.24,12.35-27.59,27.59-27.59h70.82c15.24,0,27.59,12.35,27.59,27.59V152z"/>
	<path class="st38" d="M212.87,103h-8c-6.58,0-12.84,2.87-17.13,7.86L145.5,160h8l42.24-49.14C200.03,105.87,206.29,103,212.87,103z
		"/>
	<path class="st69" d="M313,152H187v-4.41c0-15.24,12.35-27.59,27.59-27.59h70.82c15.24,0,27.59,12.35,27.59,27.59V152z"/>
	<path class="st69" d="M124.57,152h-33v-11.06c0-4.94,4-8.94,8.94-8.94h15.12c4.94,0,8.94,4,8.94,8.94V152z"/>
	<circle class="st69" cx="111.57" cy="208" r="13"/>
	<path class="st37" d="M405.72,215h-42.29c-2.68,0-4.85-2.17-4.85-4.85v-19.29c0-2.68,2.17-4.85,4.85-4.85h42.29
		c2.68,0,4.85,2.17,4.85,4.85v19.29C410.57,212.83,408.4,215,405.72,215z"/>
	<path class="st39" d="M405.72,213h-42.29c-2.68,0-4.85-2.17-4.85-4.85v2c0,2.68,2.17,4.85,4.85,4.85h42.29
		c2.68,0,4.85-2.17,4.85-4.85v-2C410.57,210.83,408.4,213,405.72,213z"/>
	<circle class="st69" cx="250" cy="278.5" r="58"/>
	<circle class="st69" cx="250" cy="278.5" r="58"/>
	<circle class="st69" cx="250" cy="278.5" r="79"/>
	<path class="st69" d="M356.5,160h-213l42.24-49.14c4.29-4.99,10.55-7.86,17.13-7.86h94.26c6.58,0,12.84,2.87,17.13,7.86L356.5,160z
		"/>
</g>
</svg>
